<svg width="169" height="51" viewBox="0 0 169 51" fill="none" xmlns="http://www.w3.org/2000/svg">
<path d="M162.987 50.9955H5.92C4.35142 50.9928 2.84779 50.3688 1.73826 49.26C0.628729 48.1512 0.003701 46.648 0 45.0795L0 6.90245C0.00344287 5.33462 0.628675 3.83219 1.73852 2.72478C2.84836 1.61738 4.35217 0.995449 5.92 0.995453L162.987 0.995453C166.25 0.995453 169 3.64545 169 6.90245V45.0795C169 48.3355 166.25 50.9955 162.987 50.9955Z" fill="#A6A6A6"/>
<path d="M168.002 45.1834C168.002 46.4604 167.495 47.6852 166.593 48.5884C166.146 49.035 165.616 49.3892 165.033 49.6307C164.449 49.8721 163.824 49.9961 163.193 49.9954H5.81671C4.54013 49.9957 3.31572 49.4889 2.41276 48.5865C1.5098 47.6841 1.00224 46.46 1.00171 45.1834V6.81342C1.00224 5.53629 1.50961 4.31158 2.41239 3.40823C3.31518 2.50488 4.53958 1.99675 5.81671 1.99542H163.192C164.467 1.99542 165.691 2.50342 166.592 3.40642C167.495 4.31033 168.002 5.53576 168.002 6.81342L168.003 45.1834H168.002Z" fill="black"/>
<path d="M37.2586 25.9605C37.2236 21.9935 40.4886 20.0635 40.6386 19.9735C38.7886 17.2635 35.9226 16.8925 34.9156 16.8635C32.5076 16.6075 30.1716 18.3115 28.9456 18.3115C27.6946 18.3115 25.8056 16.8875 23.7706 16.9295C21.1506 16.9695 18.7006 18.4945 17.3566 20.8625C14.5826 25.6905 16.6516 32.7865 19.3086 36.6895C20.6386 38.5995 22.1916 40.7345 24.2246 40.6595C26.2136 40.5775 26.9566 39.3845 29.3566 39.3845C31.7356 39.3845 32.4326 40.6595 34.5066 40.6115C36.6406 40.5775 37.9846 38.6915 39.2676 36.7625C40.8036 34.5725 41.4206 32.4145 41.4456 32.3035C41.3956 32.2865 37.2996 30.7145 37.2596 25.9605H37.2586ZM33.3436 14.2955C34.4136 12.9495 35.1446 11.1195 34.9416 9.26248C33.3936 9.33148 31.4566 10.3395 30.3416 11.6555C29.3556 12.8155 28.4746 14.7155 28.7016 16.5015C30.4416 16.6315 32.2266 15.6195 33.3436 14.2955ZM67.5106 41.2505H64.6806L63.1306 36.2555H57.7416L56.2646 41.2505H53.5096L58.8486 24.2455H62.1456L67.5106 41.2505ZM62.6626 34.1605L61.2606 29.7205C61.1126 29.2665 60.8346 28.1985 60.4246 26.5165H60.3746C60.1266 27.5875 59.8646 28.6565 59.5876 29.7195L58.2106 34.1595H62.6626V34.1605ZM81.2406 34.9695C81.2406 37.0545 80.6906 38.7025 79.5916 39.9125C78.6066 40.9895 77.3846 41.5275 75.9256 41.5275C74.3496 41.5275 73.2186 40.9475 72.5296 39.7875H72.4796V46.2475H69.8226V33.0255C69.8226 31.7155 69.7886 30.3695 69.7236 28.9895H72.0606L72.2086 30.9325H72.2586C73.1446 29.4685 74.4896 28.7375 76.2936 28.7375C77.7046 28.7375 78.8826 29.3085 79.8246 30.4525C80.7696 31.5965 81.2406 33.1025 81.2406 34.9695ZM78.5336 35.0695C78.5336 33.8755 78.2716 32.8915 77.7456 32.1175C77.1716 31.3095 76.3996 30.9055 75.4326 30.9055C74.7776 30.9055 74.1826 31.1305 73.6496 31.5735C73.1166 32.0215 72.7676 32.6055 72.6036 33.3285C72.5309 33.5995 72.4896 33.878 72.4806 34.1585V36.2035C72.4806 37.0955 72.7476 37.8475 73.2806 38.4625C73.8146 39.0775 74.5066 39.3835 75.3596 39.3835C76.3596 39.3835 77.1396 38.9875 77.6956 38.1985C78.2546 37.4075 78.5336 36.3645 78.5336 35.0685V35.0695ZM94.9946 34.9695C94.9946 37.0545 94.4446 38.7025 93.3446 39.9125C92.3616 40.9895 91.1386 41.5275 89.6796 41.5275C88.1046 41.5275 86.9726 40.9475 86.2846 39.7875H86.2346V46.2475H83.5786V33.0255C83.5786 31.7155 83.5446 30.3695 83.4796 28.9895H85.8166L85.9646 30.9325H86.0146C86.8996 29.4685 88.2446 28.7375 90.0496 28.7375C91.4596 28.7375 92.6366 29.3085 93.5816 30.4525C94.5216 31.5965 94.9946 33.1025 94.9946 34.9695ZM92.2876 35.0695C92.2876 33.8755 92.0246 32.8915 91.4996 32.1175C90.9246 31.3095 90.1556 30.9055 89.1876 30.9055C88.5346 30.9055 87.9026 31.1425 87.4026 31.5735C86.8696 32.0215 86.5226 32.6055 86.3586 33.3285C86.2865 33.5996 86.2452 33.8781 86.2356 34.1585V36.2035C86.2356 37.0955 86.5016 37.8475 87.0326 38.4625C87.5666 39.0755 88.2586 39.3835 89.1136 39.3835C90.1146 39.3835 90.8936 38.9875 91.4506 38.1985C92.0086 37.4075 92.2876 36.3645 92.2876 35.0685V35.0695ZM110.373 36.4815C110.373 37.9285 109.883 39.1055 108.9 40.0135C107.82 41.0065 106.316 41.5025 104.383 41.5025C102.598 41.5025 101.168 41.1495 100.085 40.4425L100.7 38.1725C101.851 38.8919 103.183 39.2686 104.541 39.2585C105.541 39.2585 106.321 39.0255 106.881 38.5635C107.437 38.1005 107.715 37.4795 107.715 36.7055C107.715 36.0155 107.486 35.4345 107.026 34.9625C106.569 34.4915 105.805 34.0525 104.738 33.6475C101.834 32.5375 100.384 30.9105 100.384 28.7715C100.384 27.3735 100.892 26.2275 101.91 25.3355C102.925 24.4425 104.278 23.9965 105.97 23.9965C107.48 23.9965 108.733 24.2665 109.734 24.8045L109.07 27.0245C108.135 26.5045 107.078 26.2435 105.896 26.2435C104.961 26.2435 104.231 26.4795 103.707 26.9495C103.278 27.3395 103.035 27.9015 103.043 28.4895C103.036 28.8065 103.101 29.121 103.233 29.4094C103.365 29.6978 103.56 29.9525 103.805 30.1545C104.247 30.5585 105.051 30.9945 106.217 31.4665C107.644 32.0565 108.692 32.7445 109.367 33.5345C110.038 34.3215 110.373 35.3065 110.373 36.4815ZM119.158 31.0335H116.229V36.9865C116.229 38.5005 116.745 39.2565 117.779 39.2565C118.255 39.2565 118.649 39.2155 118.959 39.1305L119.033 41.1995C118.51 41.3995 117.821 41.5015 116.967 41.5015C115.917 41.5015 115.097 41.1725 114.506 40.5175C113.916 39.8605 113.62 38.7585 113.62 37.2115V31.0315H111.875V28.9855H113.62V26.7405L116.23 25.9325V28.9855H119.158V31.0325V31.0335ZM132.372 35.0185C132.372 36.9035 131.846 38.4505 130.796 39.6615C129.696 40.9065 128.236 41.5275 126.415 41.5275C124.66 41.5275 123.263 40.9315 122.221 39.7375C121.179 38.5445 120.658 37.0375 120.658 35.2225C120.658 33.3225 121.194 31.7655 122.27 30.5555C123.343 29.3445 124.79 28.7385 126.612 28.7385C128.366 28.7385 129.778 29.3355 130.844 30.5305C131.864 31.6885 132.372 33.1855 132.372 35.0185ZM129.615 35.1075C129.615 33.9765 129.38 33.0065 128.902 32.1975C128.345 31.2185 127.549 30.7305 126.517 30.7305C125.449 30.7305 124.637 31.2205 124.081 32.1975C123.603 33.0075 123.368 33.9925 123.368 35.1575C123.368 36.2895 123.603 37.2585 124.081 38.0665C124.655 39.0455 125.458 39.5335 126.493 39.5335C127.508 39.5335 128.304 39.0345 128.879 38.0405C129.369 37.2165 129.615 36.2365 129.615 35.1075ZM141.008 31.3845C140.731 31.3334 140.451 31.3083 140.17 31.3095C139.236 31.3095 138.513 31.6715 138.005 32.3955C137.562 33.0345 137.34 33.8425 137.34 34.8175V41.2505H134.685L134.71 32.8505C134.71 31.4375 134.676 30.1505 134.61 28.9905H136.924L137.021 31.3365H137.095C137.375 30.5305 137.818 29.8805 138.423 29.3945C138.973 28.9704 139.648 28.7394 140.343 28.7375C140.589 28.7375 140.811 28.7555 141.008 28.7875V31.3845ZM152.891 34.5395C152.897 34.9535 152.865 35.3675 152.793 35.7755H144.823C144.853 36.9865 145.239 37.9135 145.979 38.5515C146.651 39.1235 147.519 39.4095 148.586 39.4095C149.766 39.4095 150.843 39.2165 151.811 38.8295L152.228 40.7195C151.096 41.2265 149.76 41.4785 148.218 41.4785C146.364 41.4785 144.908 40.9185 143.849 39.8005C142.793 38.6825 142.263 37.1805 142.263 35.2975C142.263 33.4485 142.755 31.9085 143.741 30.6805C144.773 29.3705 146.167 28.7145 147.921 28.7145C149.645 28.7145 150.951 29.3695 151.836 30.6805C152.538 31.7225 152.891 33.0105 152.891 34.5405V34.5395ZM150.357 33.8335C150.374 33.0255 150.201 32.3275 149.841 31.7385C149.381 30.9815 148.675 30.6025 147.724 30.6025C146.855 30.6025 146.149 30.9725 145.609 31.7125C145.167 32.3025 144.904 33.0085 144.823 33.8325H150.357V33.8335ZM61.5756 14.0065C61.5756 15.4785 61.1336 16.5855 60.2506 17.3295C59.4326 18.0155 58.2706 18.3595 56.7656 18.3595C56.0186 18.3595 55.3796 18.3265 54.8456 18.2615V10.2235C55.5426 10.1105 56.2946 10.0535 57.1056 10.0535C58.5396 10.0535 59.6206 10.3635 60.3496 10.9865C61.1666 11.6905 61.5756 12.6965 61.5756 14.0065ZM60.1916 14.0435C60.1916 13.0895 59.9386 12.3575 59.4326 11.8475C58.9266 11.3395 58.1876 11.0845 57.2146 11.0845C56.8016 11.0845 56.4496 11.1115 56.1576 11.1695V17.2805C56.3196 17.3055 56.6146 17.3165 57.0446 17.3165C58.0486 17.3165 58.8246 17.0375 59.3706 16.4805C59.9166 15.9225 60.1916 15.1105 60.1916 14.0425V14.0435ZM68.9136 15.2915C68.9136 16.1975 68.6546 16.9405 68.1356 17.5225C67.5926 18.1225 66.8726 18.4205 65.9736 18.4205C65.1066 18.4205 64.4166 18.1345 63.9016 17.5595C63.3876 16.9855 63.1316 16.2615 63.1316 15.3895C63.1316 14.4765 63.3956 13.7275 63.9266 13.1465C64.4576 12.5655 65.1716 12.2745 66.0706 12.2745C66.9376 12.2745 67.6336 12.5605 68.1606 13.1345C68.6626 13.6915 68.9136 14.4115 68.9136 15.2915ZM67.5526 15.3345C67.5526 14.7905 67.4346 14.3245 67.2006 13.9355C66.9246 13.4655 66.5326 13.2305 66.0236 13.2305C65.4956 13.2305 65.0956 13.4655 64.8196 13.9355C64.5846 14.3245 64.4676 14.7975 64.4676 15.3575C64.4676 15.9015 64.5856 16.3675 64.8196 16.7575C65.1036 17.2275 65.4996 17.4615 66.0106 17.4615C66.5116 17.4615 66.9046 17.2225 67.1876 16.7445C67.4306 16.3485 67.5526 15.8785 67.5526 15.3345ZM78.7526 12.3945L76.9056 18.2865H75.7036L74.9376 15.7275C74.7472 15.1017 74.589 14.4665 74.4636 13.8245H74.4396C74.3263 14.4692 74.1675 15.1051 73.9646 15.7275L73.1516 18.2875H71.9356L70.1986 12.3935H71.5486L72.2156 15.1945C72.3766 15.8565 72.5096 16.4885 72.6156 17.0855H72.6396C72.7376 16.5935 72.8996 15.9655 73.1266 15.2065L73.9646 12.3945H75.0346L75.8376 15.1465C76.0316 15.8185 76.1896 16.4645 76.3106 17.0865H76.3466C76.4366 16.4805 76.5696 15.8345 76.7476 15.1465L77.4646 12.3945H78.7526V12.3935V12.3945ZM85.5576 18.2865H84.2446V14.9115C84.2446 13.8715 83.8496 13.3515 83.0546 13.3515C82.8744 13.3462 82.6953 13.3821 82.5311 13.4565C82.3668 13.5308 82.2216 13.6416 82.1066 13.7805C81.8666 14.0615 81.7366 14.4205 81.7426 14.7905V18.2855H80.4286V14.0785C80.4286 13.5605 80.4126 12.9985 80.3816 12.3915H81.5346L81.5966 13.3125H81.6326C81.7856 13.0265 82.0126 12.7905 82.3126 12.6025C82.6686 12.3825 83.0666 12.2705 83.5026 12.2705C84.0526 12.2705 84.5126 12.4475 84.8766 12.8045C85.3296 13.2405 85.5566 13.8915 85.5566 14.7565V18.2865H85.5576ZM89.1776 18.2865H87.8656V9.69048H89.1766V18.2865H89.1776ZM96.9046 15.2915C96.9046 16.1975 96.6446 16.9405 96.1266 17.5225C95.5836 18.1225 94.8616 18.4205 93.9636 18.4205C93.0956 18.4205 92.4056 18.1345 91.8926 17.5595C91.3786 16.9855 91.1226 16.2615 91.1226 15.3895C91.1226 14.4765 91.3866 13.7275 91.9176 13.1465C92.4476 12.5655 93.1626 12.2745 94.0606 12.2745C94.9286 12.2745 95.6236 12.5605 96.1516 13.1345C96.6526 13.6915 96.9046 14.4115 96.9046 15.2915ZM95.5416 15.3345C95.5416 14.7905 95.4246 14.3245 95.1896 13.9355C94.9156 13.4655 94.5226 13.2305 94.0136 13.2305C93.4856 13.2305 93.0846 13.4655 92.8106 13.9355C92.5746 14.3245 92.4586 14.7975 92.4586 15.3575C92.4586 15.9015 92.5756 16.3675 92.8106 16.7575C93.0946 17.2275 93.4906 17.4615 94.0006 17.4615C94.5026 17.4615 94.8946 17.2225 95.1776 16.7445C95.4216 16.3475 95.5416 15.8775 95.5416 15.3345ZM103.257 18.2865H102.079L101.981 17.6075H101.945C101.541 18.1495 100.967 18.4205 100.22 18.4205C99.6626 18.4205 99.2116 18.2415 98.8716 17.8865C98.7192 17.7269 98.6 17.5386 98.5207 17.3327C98.4414 17.1267 98.4036 16.9071 98.4096 16.6865C98.4096 15.9665 98.7096 15.4175 99.3156 15.0375C99.9196 14.6575 100.769 14.4715 101.862 14.4805V14.3705C101.862 13.5945 101.454 13.2065 100.636 13.2065C100.054 13.2065 99.5396 13.3525 99.0956 13.6425L98.8296 12.7825C99.3776 12.4445 100.056 12.2745 100.855 12.2745C102.398 12.2745 103.172 13.0865 103.172 14.7115V16.8815C103.172 17.4705 103.201 17.9395 103.257 18.2865ZM101.895 16.2615V15.3525C100.447 15.3275 99.7226 15.7245 99.7226 16.5405C99.7226 16.8475 99.8056 17.0775 99.9746 17.2315C100.151 17.3871 100.38 17.4694 100.615 17.4615C100.904 17.4615 101.173 17.3705 101.419 17.1895C101.721 16.9775 101.899 16.6295 101.895 16.2615ZM110.715 18.2865H109.551L109.489 17.3405H109.453C109.081 18.0605 108.447 18.4205 107.557 18.4205C106.845 18.4205 106.253 18.1415 105.783 17.5845C105.313 17.0265 105.08 16.3025 105.08 15.4145C105.08 14.4605 105.334 13.6875 105.845 13.0975C106.339 12.5475 106.945 12.2725 107.667 12.2725C108.46 12.2725 109.015 12.5395 109.33 13.0725H109.355V9.69148H110.669V16.7005C110.669 17.2735 110.684 17.8025 110.715 18.2875V18.2865ZM109.355 15.8015V14.8195C109.367 14.5927 109.328 14.3661 109.239 14.157C109.151 13.9478 109.016 13.7615 108.845 13.6125C108.602 13.3997 108.288 13.2855 107.966 13.2925C107.476 13.2925 107.093 13.4855 106.812 13.8745C106.532 14.2625 106.391 14.7595 106.391 15.3655C106.391 15.9475 106.525 16.4205 106.794 16.7845C107.078 17.1715 107.462 17.3655 107.941 17.3655C108.372 17.3655 108.717 17.2045 108.978 16.8805C109.231 16.5815 109.355 16.2215 109.355 15.8015ZM121.941 15.2915C121.941 16.1975 121.681 16.9405 121.163 17.5225C120.62 18.1225 119.901 18.4205 119 18.4205C118.135 18.4205 117.445 18.1345 116.929 17.5595C116.415 16.9855 116.159 16.2615 116.159 15.3895C116.159 14.4765 116.423 13.7275 116.954 13.1465C117.484 12.5655 118.199 12.2745 119.099 12.2745C119.965 12.2745 120.662 12.5605 121.189 13.1345C121.689 13.6915 121.941 14.4115 121.941 15.2915ZM120.581 15.3345C120.581 14.7905 120.463 14.3245 120.229 13.9355C119.952 13.4655 119.561 13.2305 119.05 13.2305C118.524 13.2305 118.124 13.4655 117.847 13.9355C117.611 14.3245 117.495 14.7975 117.495 15.3575C117.495 15.9015 117.613 16.3675 117.847 16.7575C118.131 17.2275 118.527 17.4615 119.037 17.4615C119.539 17.4615 119.933 17.2225 120.217 16.7445C120.458 16.3475 120.581 15.8775 120.581 15.3345ZM128.999 18.2855H127.687V14.9105C127.687 13.8705 127.291 13.3505 126.497 13.3505C126.107 13.3505 125.792 13.4935 125.549 13.7795C125.308 14.0603 125.178 14.4196 125.185 14.7895V18.2845H123.871V14.0775C123.871 13.5595 123.856 12.9975 123.825 12.3905H124.977L125.038 13.3115H125.075C125.235 13.0193 125.47 12.7744 125.755 12.6015C126.112 12.3815 126.509 12.2695 126.945 12.2695C127.495 12.2695 127.954 12.4465 128.318 12.8035C128.773 13.2395 128.998 13.8905 128.998 14.7555V18.2855H128.999ZM137.832 13.3745H136.387V16.2365C136.387 16.9645 136.643 17.3285 137.152 17.3285C137.387 17.3285 137.582 17.3085 137.737 17.2675L137.771 18.2605C137.511 18.3585 137.171 18.4075 136.751 18.4075C136.233 18.4075 135.829 18.2495 135.537 17.9345C135.244 17.6195 135.099 17.0895 135.099 16.3455V13.3755H134.236V12.3945H135.099V11.3145L136.385 10.9265V12.3935H137.831V13.3755L137.832 13.3745ZM144.78 18.2855H143.467V14.9355C143.467 13.8795 143.071 13.3505 142.278 13.3505C141.669 13.3505 141.254 13.6565 141.026 14.2695C140.982 14.4226 140.961 14.5813 140.964 14.7405V18.2845H139.653V9.69048H140.964V13.2415H140.989C141.403 12.5955 141.995 12.2725 142.763 12.2725C143.306 12.2725 143.756 12.4505 144.113 12.8065C144.558 13.2505 144.78 13.9105 144.78 14.7825V18.2865V18.2855ZM151.948 15.0605C151.95 15.2596 151.934 15.4585 151.899 15.6545H147.963C147.98 16.2365 148.168 16.6805 148.533 16.9885C148.866 17.2635 149.295 17.4005 149.821 17.4005C150.404 17.4005 150.935 17.3085 151.413 17.1225L151.619 18.0325C151.059 18.2745 150.4 18.3955 149.637 18.3955C148.723 18.3955 148.003 18.1265 147.482 17.5895C146.958 17.0515 146.699 16.3305 146.699 15.4255C146.699 14.5365 146.941 13.7965 147.429 13.2065C147.937 12.5765 148.624 12.2615 149.492 12.2615C150.342 12.2615 150.986 12.5765 151.422 13.2065C151.774 13.7065 151.948 14.3265 151.948 15.0605ZM150.696 14.7215C150.714 14.3681 150.625 14.0176 150.441 13.7155C150.214 13.3515 149.867 13.1695 149.397 13.1695C149.192 13.1659 148.99 13.2127 148.807 13.3059C148.625 13.399 148.469 13.5356 148.352 13.7035C148.129 13.9996 147.994 14.3523 147.962 14.7215H150.696Z" fill="white"/>
</svg>
