<svg width="100" height="34" viewBox="0 0 100 34" fill="none" xmlns="http://www.w3.org/2000/svg">
<g clip-path="url(#clip0_725_227)">
<path d="M99.953 7.17552V6.39817C99.9434 5.82507 99.8923 5.25347 99.8001 4.68801C99.7099 4.12608 99.5354 3.58157 99.2827 3.07351C98.9021 2.31129 98.3504 1.65096 97.6721 1.14606C96.9938 0.641166 96.2081 0.305896 95.3786 0.167429C94.8278 0.0631504 94.2691 0.00713535 93.7088 0L6.2794 0C5.71917 0.00822692 5.16061 0.0642329 4.6096 0.167429C4.05707 0.259146 3.52166 0.436617 3.02211 0.693634C2.52218 0.954057 2.0658 1.29308 1.6698 1.69821C1.27405 2.1032 0.941 2.56691 0.682032 3.07351C0.429314 3.58157 0.254812 4.12608 0.164628 4.68801C0.0626128 5.25235 0.00754179 5.82442 0 6.39817C0 6.64931 0 6.91242 0 7.17552V26.8245C0 27.0876 0 27.3387 0 27.6018C0.00758698 28.1716 0.0626604 28.7397 0.164628 29.3C0.252899 29.8662 0.427465 30.415 0.682032 30.9265C0.942004 31.4289 1.27501 31.8885 1.6698 32.2898C2.06615 32.6913 2.52258 33.0264 3.02211 33.2824C3.51897 33.5484 4.05518 33.7302 4.6096 33.8206C5.16171 33.9139 5.71981 33.9658 6.2794 33.9761H93.7088C94.2685 33.9669 94.8267 33.915 95.3786 33.8206C95.9369 33.7304 96.477 33.5487 96.9779 33.2824C97.9928 32.7609 98.8169 31.9227 99.3297 30.8906C99.5843 30.3791 99.7589 29.8304 99.8471 29.2642C99.9219 28.7134 99.9573 28.1578 99.953 27.6018V26.8245C99.953 26.5135 99.953 26.2026 99.953 25.8917V8.10834C99.953 7.7974 99.953 7.48646 99.953 7.17552ZM99.2356 25.8917C99.2356 26.2026 99.2356 26.5016 99.2356 26.8006V27.5899C99.2284 28.119 99.1812 28.6467 99.0945 29.1685C99.017 29.6631 98.8664 30.1429 98.6477 30.5916C98.4243 31.0332 98.1347 31.4366 97.7893 31.7876C97.4479 32.1431 97.0504 32.4382 96.6134 32.6606C96.1727 32.887 95.7009 33.0442 95.214 33.127C94.7008 33.2136 94.182 33.2615 93.6618 33.2705H6.30292C5.7665 33.2549 5.23195 33.199 4.70367 33.1031C4.22185 33.0148 3.75471 32.8578 3.31609 32.6367C2.88203 32.4143 2.48518 32.1237 2.14017 31.7756C1.7942 31.4279 1.50802 31.0236 1.29351 30.5797C1.08323 30.1388 0.944258 29.6663 0.881938 29.1804C0.793911 28.6548 0.746728 28.123 0.740828 27.5899C0.740828 27.4105 0.740828 26.8125 0.740828 26.8125V7.17552C0.740828 7.17552 0.740828 6.58952 0.740828 6.42209C0.744326 5.87298 0.791516 5.32505 0.881938 4.78368C0.95934 4.29288 1.11003 3.817 1.32879 3.37249C1.78912 2.50828 2.49364 1.80428 3.35136 1.35139C3.77805 1.13394 4.2336 0.980852 4.70367 0.89694C5.2321 0.805518 5.76691 0.757526 6.30292 0.75343H93.6971C94.2174 0.759005 94.7365 0.806995 95.2493 0.89694C95.7369 0.976728 96.2092 1.13413 96.6486 1.36335C97.0852 1.5815 97.4827 1.87256 97.8246 2.22441C98.1687 2.57644 98.4582 2.9797 98.683 3.42033C98.8945 3.84998 99.0412 4.30959 99.1181 4.78368C99.2048 5.31347 99.252 5.84918 99.2592 6.38621V7.17552C99.2592 7.49842 99.2592 7.7974 99.2592 8.10834L99.2356 25.8917Z" fill="white"/>
<path d="M20.6962 17.2571C20.7019 16.5465 20.8865 15.8491 21.2323 15.2315C21.5781 14.614 22.0737 14.0967 22.6718 13.7292C22.2927 13.1808 21.7939 12.7292 21.2145 12.4096C20.6351 12.0901 19.9908 11.9114 19.3322 11.8874C17.9328 11.7439 16.5687 12.7485 15.8044 12.7485C15.0401 12.7485 14.0288 11.9592 12.8411 11.9592C12.0753 11.9846 11.3288 12.2103 10.6738 12.6146C10.0188 13.0189 9.4773 13.5881 9.10167 14.2673C7.47891 17.1136 8.6901 21.2993 10.2776 23.5955C11.0537 24.7316 11.9474 25.9873 13.1351 25.9873C14.3227 25.9873 14.699 25.1143 16.0984 25.1143C17.4977 25.1143 17.8858 25.8678 19.097 25.8438C20.3082 25.8199 21.1195 24.7077 21.8721 23.5716C22.4258 22.7661 22.8542 21.8787 23.1421 20.9406C22.426 20.6355 21.8131 20.1245 21.3786 19.4701C20.9441 18.8158 20.7069 18.0466 20.6962 17.2571Z" fill="white"/>
<path d="M18.4144 10.3806C19.0896 9.55135 19.4226 8.48829 19.3434 7.41467C18.3076 7.52731 17.3509 8.03085 16.6623 8.82586C16.3264 9.21509 16.0693 9.66793 15.9059 10.1584C15.7424 10.6489 15.6758 11.1674 15.7098 11.6841C16.228 11.6877 16.7403 11.5723 17.2086 11.3466C17.6768 11.1209 18.089 10.7907 18.4144 10.3806V10.3806Z" fill="white"/>
<path d="M35.3483 23.0692H31.3972L30.4447 25.9154H28.7749L32.5143 15.3674H34.2547L38.0059 25.9154H36.3008L35.3483 23.0692ZM31.8205 21.7536H34.9485L33.3963 17.1254L31.8205 21.7536Z" fill="white"/>
<path d="M46.0953 22.0766C46.0953 24.4684 44.8371 25.9992 42.9321 25.9992C42.4552 26.0189 41.9824 25.9028 41.5669 25.6641C41.1514 25.4253 40.8097 25.0734 40.5802 24.6478V28.4628H38.9692V18.2257H40.4744V19.5053C40.718 19.0782 41.0707 18.7259 41.4951 18.4859C41.9194 18.2459 42.3997 18.1271 42.885 18.142C44.8253 18.142 46.0953 19.6847 46.0953 22.0766ZM44.496 22.0766C44.496 20.5099 43.7082 19.4934 42.497 19.4934C41.2858 19.4934 40.5097 20.5338 40.5097 22.0766C40.5097 23.6193 41.3093 24.6598 42.497 24.6598C43.6847 24.6598 44.496 23.6432 44.496 22.0766Z" fill="white"/>
<path d="M54.4215 22.0766C54.4215 24.4685 53.1632 25.9993 51.27 25.9993C50.7932 26.019 50.3204 25.9029 49.9049 25.6642C49.4894 25.4254 49.1476 25.0734 48.9182 24.6479V28.4629H47.2954V18.2258H48.8006V19.5054C49.0393 19.0872 49.3827 18.7408 49.7958 18.5013C50.2089 18.2619 50.677 18.1379 51.1524 18.1421C53.1515 18.1421 54.4215 19.6848 54.4215 22.0766ZM52.8222 22.0766C52.8222 20.51 52.0344 19.4935 50.8232 19.4935C49.612 19.4935 48.8476 20.5339 48.8476 22.0766C48.8476 23.6194 49.6355 24.6598 50.8232 24.6598C52.0108 24.6598 52.8222 23.6433 52.8222 22.0766Z" fill="white"/>
<path d="M59.9714 22.9735C60.0889 24.026 61.0885 24.7076 62.4525 24.7076C63.8166 24.7076 64.675 24.026 64.675 23.0812C64.675 22.1364 64.1106 21.7657 62.77 21.4308L61.4177 21.1079C59.5127 20.6415 58.6308 19.7326 58.6308 18.2616C58.6308 16.4438 60.1948 15.1881 62.4055 15.1881C64.6162 15.1881 66.1096 16.4438 66.1567 18.2616H64.5692C64.4751 17.2092 63.6167 16.5754 62.3585 16.5754C61.1002 16.5754 60.2536 17.2092 60.2536 18.154C60.2536 18.8955 60.8063 19.3499 62.135 19.6728L63.311 19.9598C65.4394 20.4741 66.3213 21.3351 66.3213 22.8779C66.3213 24.8631 64.7691 26.0949 62.3114 26.0949C59.8538 26.0949 58.4544 24.899 58.3604 22.9735H59.9714Z" fill="white"/>
<path d="M69.6487 16.408V18.2258H71.0833V19.4217H69.6487V23.6672C69.6487 24.325 69.9426 24.6359 70.5659 24.6359H71.0833V25.8318C70.7958 25.8813 70.5047 25.9053 70.2131 25.9036C68.6844 25.9036 68.0847 25.3176 68.0847 23.8227V19.4695H67.0264V18.2736H68.12V16.408H69.6487Z" fill="white"/>
<path d="M71.9195 22.0765C71.8915 21.5791 71.9636 21.0812 72.1315 20.6132C72.2994 20.1452 72.5595 19.7169 72.8958 19.3548C73.2321 18.9926 73.6377 18.704 74.0875 18.5068C74.5373 18.3096 75.022 18.2079 75.5119 18.2079C76.0017 18.2079 76.4864 18.3096 76.9363 18.5068C77.3861 18.704 77.7916 18.9926 78.128 19.3548C78.4643 19.7169 78.7244 20.1452 78.8922 20.6132C79.0601 21.0812 79.1323 21.5791 79.1043 22.0765C79.1527 22.5821 79.0951 23.0923 78.9351 23.5735C78.7751 24.0548 78.5165 24.4959 78.1763 24.8679C77.8362 25.2398 77.4222 25.5341 76.9619 25.7311C76.5016 25.9282 76.0053 26.0236 75.506 26.0111C73.307 26.0111 71.9195 24.5042 71.9195 22.0765ZM77.5168 22.0765C77.5168 20.4142 76.7642 19.4335 75.506 19.4335C74.2478 19.4335 73.5069 20.4142 73.5069 22.0765C73.5069 23.7388 74.2478 24.7075 75.506 24.7075C76.7642 24.7075 77.5168 23.7388 77.5168 22.0765Z" fill="white"/>
<path d="M80.373 18.2258H81.8547V19.5293C81.9586 19.122 82.1956 18.7628 82.5269 18.5107C82.8581 18.2586 83.2639 18.1286 83.6774 18.1421C83.8553 18.1439 84.0326 18.1639 84.2065 18.2019V19.6848C83.9831 19.6096 83.7478 19.5772 83.5127 19.5891C83.2872 19.5787 83.0621 19.6185 82.8532 19.7056C82.6443 19.7928 82.4566 19.9252 82.3032 20.0938C82.1498 20.2623 82.0344 20.4628 81.9651 20.6813C81.8958 20.8999 81.8741 21.1312 81.9017 21.3591V25.9155H80.373V18.2258Z" fill="white"/>
<path d="M91.4034 23.6553C91.2429 24.3906 90.8226 25.0405 90.2221 25.4814C89.6216 25.9223 88.8829 26.1236 88.1461 26.0471C87.6516 26.0644 87.1593 25.9727 86.7029 25.7785C86.2465 25.5843 85.8368 25.292 85.5018 24.9218C85.1667 24.5515 84.9144 24.112 84.7619 23.6333C84.6094 23.1547 84.5604 22.6481 84.6183 22.1484C84.6183 19.7566 85.9941 18.166 88.1461 18.166C90.298 18.166 91.5562 19.625 91.5562 21.9571V22.5072H86.147V22.5909C86.127 22.8727 86.1656 23.1557 86.2604 23.4213C86.3551 23.6869 86.5039 23.9292 86.697 24.1323C86.8901 24.3355 87.1232 24.4949 87.381 24.6002C87.6387 24.7056 87.9155 24.7544 88.1931 24.7436C88.5615 24.7784 88.931 24.6912 89.2467 24.4951C89.5625 24.299 89.8074 24.0045 89.9452 23.6553H91.4034ZM86.1588 21.3591H89.9452C89.9582 21.1047 89.9195 20.8503 89.8315 20.6118C89.7435 20.3733 89.6081 20.1558 89.4337 19.9729C89.2594 19.79 89.0499 19.6456 88.8182 19.5487C88.5865 19.4518 88.3377 19.4045 88.0873 19.4098C87.8346 19.4082 87.5841 19.4575 87.3502 19.5547C87.1163 19.652 86.9036 19.7953 86.7243 19.9765C86.5451 20.1576 86.4029 20.3731 86.3058 20.6104C86.2087 20.8477 86.1588 21.1021 86.1588 21.3591V21.3591Z" fill="white"/>
<path d="M31.6082 7.41472C31.9344 7.39088 32.2617 7.44094 32.5665 7.56126C32.8714 7.68159 33.1462 7.8692 33.3711 8.11056C33.5961 8.35193 33.7656 8.64104 33.8674 8.95706C33.9693 9.27308 34.0009 9.60815 33.9601 9.93811C34.0044 10.2704 33.9755 10.6086 33.8755 10.9281C33.7754 11.2477 33.6067 11.5405 33.3815 11.7855C33.1564 12.0306 32.8805 12.2215 32.5737 12.3447C32.267 12.4678 31.9372 12.5199 31.6082 12.4974H29.8091V7.41472H31.6082ZM30.5734 11.7798H31.5142C31.7471 11.7929 31.9801 11.7532 32.1961 11.6636C32.4122 11.5739 32.606 11.4366 32.7635 11.2615C32.921 11.0865 33.0383 10.878 33.107 10.6512C33.1756 10.4244 33.1939 10.1849 33.1604 9.95007C33.192 9.71612 33.1723 9.47798 33.1028 9.25267C33.0332 9.02737 32.9156 8.82047 32.7583 8.64678C32.601 8.47309 32.4079 8.33691 32.1928 8.24796C31.9778 8.15901 31.746 8.11951 31.5142 8.13227H30.5734V11.7798Z" fill="white"/>
<path d="M34.8297 10.5719C34.7878 10.3118 34.802 10.0455 34.8713 9.79156C34.9407 9.53759 35.0635 9.302 35.2313 9.10112C35.3991 8.90023 35.6079 8.73887 35.8431 8.6282C36.0783 8.51753 36.3344 8.46021 36.5935 8.46021C36.8527 8.46021 37.1088 8.51753 37.344 8.6282C37.5792 8.73887 37.788 8.90023 37.9558 9.10112C38.1236 9.302 38.2464 9.53759 38.3158 9.79156C38.3851 10.0455 38.3993 10.3118 38.3574 10.5719C38.3993 10.832 38.3851 11.0983 38.3158 11.3523C38.2464 11.6062 38.1236 11.8418 37.9558 12.0427C37.788 12.2436 37.5792 12.405 37.344 12.5156C37.1088 12.6263 36.8527 12.6836 36.5935 12.6836C36.3344 12.6836 36.0783 12.6263 35.8431 12.5156C35.6079 12.405 35.3991 12.2436 35.2313 12.0427C35.0635 11.8418 34.9407 11.6062 34.8713 11.3523C34.802 11.0983 34.7878 10.832 34.8297 10.5719ZM37.6166 10.5719C37.6166 9.74673 37.2521 9.25641 36.6053 9.25641C35.9585 9.25641 35.594 9.74673 35.594 10.5719C35.594 11.3971 35.9585 11.8994 36.6053 11.8994C37.2521 11.8994 37.6284 11.4091 37.6284 10.5719H37.6166Z" fill="white"/>
<path d="M43.0973 12.4972H42.333L41.5451 9.67486L40.7808 12.4972H39.9811L38.9346 8.65833H39.6989L40.3692 11.5883L41.1571 8.65833H41.8744L42.6505 11.5883L43.3207 8.65833H44.0616L43.0973 12.4972Z" fill="white"/>
<path d="M45.0015 8.65839H45.7188V9.26831C45.8219 9.04533 45.9901 8.86017 46.2006 8.73816C46.4111 8.61614 46.6535 8.56322 46.8947 8.58664C47.0812 8.55979 47.2712 8.57888 47.4489 8.64231C47.6266 8.70573 47.7868 8.81164 47.9158 8.95111C48.0449 9.09058 48.1391 9.25954 48.1906 9.44377C48.2421 9.628 48.2494 9.82212 48.2117 10.0098V12.4973H47.4709V10.2011C47.4709 9.59121 47.2004 9.28027 46.6595 9.28027C46.535 9.27455 46.4108 9.29609 46.2952 9.34342C46.1796 9.39075 46.0754 9.46277 45.9896 9.55461C45.9037 9.64645 45.8383 9.75598 45.7976 9.87577C45.757 9.99556 45.7421 10.1228 45.7541 10.249V12.4973H45.0132L45.0015 8.65839Z" fill="white"/>
<path d="M49.3887 7.17542H50.1295V12.4973H49.3887V7.17542Z" fill="white"/>
<path d="M51.1524 10.5719C51.1105 10.3118 51.1247 10.0455 51.1941 9.79156C51.2634 9.53759 51.3863 9.302 51.5541 9.10112C51.7219 8.90023 51.9306 8.73887 52.1658 8.6282C52.4011 8.51753 52.6571 8.46021 52.9163 8.46021C53.1755 8.46021 53.4315 8.51753 53.6668 8.6282C53.902 8.73887 54.1107 8.90023 54.2785 9.10112C54.4463 9.302 54.5691 9.53759 54.6385 9.79156C54.7079 10.0455 54.7221 10.3118 54.6802 10.5719C54.7221 10.832 54.7079 11.0983 54.6385 11.3523C54.5691 11.6062 54.4463 11.8418 54.2785 12.0427C54.1107 12.2436 53.902 12.405 53.6668 12.5156C53.4315 12.6263 53.1755 12.6836 52.9163 12.6836C52.6571 12.6836 52.4011 12.6263 52.1658 12.5156C51.9306 12.405 51.7219 12.2436 51.5541 12.0427C51.3863 11.8418 51.2634 11.6062 51.1941 11.3523C51.1247 11.0983 51.1105 10.832 51.1524 10.5719V10.5719ZM53.9393 10.5719C53.9393 9.74673 53.5748 9.25641 52.9281 9.25641C52.2813 9.25641 51.9285 9.74673 51.9285 10.5719C51.9285 11.3971 52.2931 11.9592 52.9163 11.9592C53.5395 11.9592 53.9393 11.4091 53.9393 10.5719Z" fill="white"/>
<path d="M55.4917 11.4089C55.4917 10.7153 55.9973 10.3206 56.891 10.213L57.9023 10.1532V9.87814C57.9023 9.47153 57.6436 9.2443 57.138 9.2443C56.6323 9.2443 56.4324 9.39977 56.3501 9.67484H55.6328C55.7151 9.01708 56.3148 8.58655 57.1733 8.58655C58.0317 8.58655 58.6432 9.06492 58.6432 9.87814V12.4972H57.9376V11.959H57.8788C57.7542 12.1574 57.579 12.3178 57.372 12.423C57.1649 12.5283 56.9337 12.5746 56.7029 12.557C56.393 12.5667 56.0918 12.4515 55.8649 12.2365C55.6381 12.0215 55.504 11.724 55.4917 11.4089ZM57.9023 11.086V10.7631L56.9851 10.8229C56.4677 10.8229 56.2325 11.0382 56.2325 11.373C56.2325 11.7079 56.5265 11.9232 56.9381 11.9232C57.0558 11.9346 57.1746 11.9219 57.2874 11.8857C57.4003 11.8495 57.5047 11.7906 57.5947 11.7125C57.6847 11.6344 57.7583 11.5387 57.8111 11.431C57.864 11.3234 57.895 11.2061 57.9023 11.086Z" fill="white"/>
<path d="M59.6191 10.5718C59.6191 9.37591 60.2306 8.59856 61.1831 8.59856C61.4218 8.58231 61.6601 8.63696 61.8688 8.75585C62.0776 8.87475 62.2479 9.05277 62.359 9.26828H62.4178V7.17542H63.1586V12.4973H62.4531V11.8873H62.3237C62.2052 12.0963 62.0334 12.2689 61.8264 12.3868C61.6194 12.5046 61.385 12.5635 61.1478 12.5571C60.2306 12.5571 59.6191 11.7917 59.6191 10.5718ZM60.3952 10.5718C60.3952 11.3851 60.7715 11.8754 61.3948 11.8754C62.018 11.8754 62.4061 11.3851 62.4061 10.5838C62.4061 9.78252 62.018 9.28023 61.3948 9.28023C60.7715 9.28023 60.3952 9.77056 60.3952 10.5718Z" fill="white"/>
<path d="M66.2042 10.5719C66.1623 10.3118 66.1765 10.0455 66.2459 9.79156C66.3152 9.53759 66.438 9.302 66.6058 9.10112C66.7736 8.90023 66.9824 8.73887 67.2176 8.6282C67.4528 8.51753 67.7089 8.46021 67.9681 8.46021C68.2272 8.46021 68.4833 8.51753 68.7185 8.6282C68.9538 8.73887 69.1625 8.90023 69.3303 9.10112C69.4981 9.302 69.6209 9.53759 69.6903 9.79156C69.7596 10.0455 69.7738 10.3118 69.7319 10.5719C69.7738 10.832 69.7596 11.0983 69.6903 11.3523C69.6209 11.6062 69.4981 11.8418 69.3303 12.0427C69.1625 12.2436 68.9538 12.405 68.7185 12.5156C68.4833 12.6263 68.2272 12.6836 67.9681 12.6836C67.7089 12.6836 67.4528 12.6263 67.2176 12.5156C66.9824 12.405 66.7736 12.2436 66.6058 12.0427C66.438 11.8418 66.3152 11.6062 66.2459 11.3523C66.1765 11.0983 66.1623 10.832 66.2042 10.5719V10.5719ZM68.9911 10.5719C68.9911 9.74673 68.6266 9.25641 67.9916 9.25641C67.3566 9.25641 67.0273 9.74673 67.0273 10.5719C67.0273 11.3971 67.3919 11.8994 68.0386 11.8994C68.6854 11.8994 68.9911 11.4091 68.9911 10.5719V10.5719Z" fill="white"/>
<path d="M70.7549 8.65843H71.4722V9.26834C71.5753 9.04536 71.7436 8.86021 71.954 8.73819C72.1645 8.61617 72.4069 8.56326 72.6481 8.58667C72.8337 8.56195 73.0224 8.58263 73.1985 8.64699C73.3746 8.71135 73.5331 8.81754 73.6608 8.95672C73.7884 9.09591 73.8816 9.26407 73.9325 9.44723C73.9834 9.63039 73.9905 9.82327 73.9534 10.0098V12.4973H73.2126V10.2012C73.2126 9.59124 72.9421 9.2803 72.4012 9.2803C72.2767 9.27459 72.1525 9.29612 72.0369 9.34345C71.9213 9.39078 71.8171 9.4628 71.7312 9.55465C71.6454 9.64649 71.5799 9.75601 71.5393 9.8758C71.4987 9.99559 71.4838 10.1229 71.4957 10.249V12.4973H70.7549V8.65843Z" fill="white"/>
<path d="M78.1506 7.71362V8.68232H78.962V9.31616H78.1506V11.2894C78.1506 11.6841 78.3035 11.8635 78.6798 11.8635H78.962V12.4973C78.8291 12.5102 78.6952 12.5102 78.5622 12.4973C77.7273 12.4973 77.3863 12.2103 77.3863 11.4688V9.31616H76.7983V8.68232H77.3863V7.71362H78.1506Z" fill="white"/>
<path d="M79.9629 7.17542H80.7037V9.28023C80.8068 9.05725 80.9751 8.8721 81.1856 8.75008C81.3961 8.62806 81.6385 8.57514 81.8796 8.59856C82.0624 8.58619 82.2456 8.61535 82.416 8.68392C82.5863 8.75248 82.7395 8.85874 82.8645 8.99498C82.9894 9.13123 83.083 9.29404 83.1385 9.47163C83.1939 9.64921 83.2097 9.83711 83.1849 10.0217V12.4973H82.4323V10.2011C82.4323 9.59117 82.1619 9.28023 81.6327 9.28023C81.5038 9.26909 81.3741 9.28691 81.2528 9.33243C81.1315 9.37794 81.0214 9.45005 80.9305 9.54362C80.8397 9.6372 80.7701 9.74996 80.7269 9.87391C80.6836 9.99786 80.6677 10.13 80.6802 10.2609V12.4973H79.9629V7.17542Z" fill="white"/>
<path d="M87.5466 11.4567C87.4443 11.8068 87.225 12.1095 86.9266 12.3126C86.6281 12.5157 86.2693 12.6063 85.9121 12.5689C85.6646 12.5745 85.4188 12.5256 85.1916 12.4255C84.9644 12.3255 84.7612 12.1766 84.5959 11.9892C84.4306 11.8017 84.3071 11.5801 84.2339 11.3396C84.1606 11.0991 84.1395 10.8453 84.1717 10.5956C84.138 10.344 84.1579 10.0878 84.2301 9.84467C84.3023 9.6015 84.4251 9.37699 84.5902 9.18639C84.7553 8.99579 84.9588 8.84356 85.1869 8.74005C85.415 8.63654 85.6623 8.58417 85.9121 8.5865C86.9587 8.5865 87.5936 9.31601 87.5936 10.5239V10.7631H84.9361C84.9228 10.9038 84.9389 11.0458 84.9833 11.1798C85.0278 11.3138 85.0995 11.4367 85.1938 11.5406C85.2882 11.6445 85.403 11.7269 85.5308 11.7825C85.6587 11.8381 85.7966 11.8656 85.9356 11.8633C86.1132 11.884 86.2928 11.8507 86.4519 11.7677C86.6109 11.6847 86.7422 11.5557 86.8293 11.3969L87.5466 11.4567ZM84.9361 10.2608H86.8293C86.8391 10.1329 86.8226 10.0044 86.7808 9.88346C86.739 9.76249 86.6728 9.65174 86.5864 9.5583C86.5001 9.46485 86.3955 9.39078 86.2794 9.34082C86.1633 9.29086 86.0382 9.26612 85.9121 9.26817C85.6583 9.26495 85.4136 9.36358 85.2309 9.54268C85.0482 9.72178 84.9423 9.96691 84.9361 10.2249V10.2608Z" fill="white"/>
</g>
<defs>
<clipPath id="clip0_725_227">
<rect width="100" height="34" fill="white"/>
</clipPath>
</defs>
</svg>
