<svg width="31" height="30" viewBox="0 0 31 30" fill="none" xmlns="http://www.w3.org/2000/svg">
<circle cx="15.5913" cy="15" r="15" fill="white"/>
<path d="M15.9901 20.9843L12.2972 20.9192C11.1015 20.8965 9.90285 20.9418 8.73061 20.7068C6.94737 20.3557 6.82104 18.6342 6.68885 17.1902C6.5067 15.1601 6.57722 13.0932 6.92095 11.0801C7.115 9.95051 7.87867 9.27649 9.05965 9.20314C13.0463 8.93695 17.0595 8.9685 21.0374 9.09269C21.4575 9.10407 21.8805 9.16629 22.2947 9.23712C24.3396 9.58256 24.3894 11.5334 24.522 13.1756C24.6542 14.8348 24.5984 16.5025 24.3457 18.1503C24.143 19.5147 23.7552 20.6589 22.1184 20.7694C20.0678 20.9138 18.0641 21.0301 16.0077 20.9931C16.0078 20.9843 15.9959 20.9843 15.9901 20.9843ZM13.819 17.53C15.3644 16.6749 16.8803 15.834 18.4168 14.9846C16.8685 14.1295 15.3555 13.2886 13.819 12.4392V17.53Z" fill="#815CE1"/>
</svg>
