<svg width="31" height="30" viewBox="0 0 31 30" fill="none" xmlns="http://www.w3.org/2000/svg">
<circle cx="15.6479" cy="15" r="15" fill="white"/>
<path d="M15.647 7.44865C18.1064 7.44865 18.3976 7.45801 19.3689 7.50232C20.2669 7.54331 20.7546 7.69335 21.0792 7.81945C21.509 7.98654 21.8159 8.18616 22.1382 8.50845C22.4605 8.83074 22.6601 9.1376 22.8271 9.56748C22.9533 9.89207 23.1033 10.3798 23.1443 11.2777C23.1886 12.249 23.198 12.5403 23.198 14.9996C23.198 17.4589 23.1886 17.7502 23.1443 18.7214C23.1033 19.6194 22.9533 20.1071 22.8271 20.4317C22.6601 20.8616 22.4605 21.1685 22.1382 21.4908C21.8159 21.813 21.509 22.0127 21.0792 22.1797C20.7546 22.3059 20.2669 22.4559 19.3689 22.4969C18.3978 22.5412 18.1065 22.5506 15.647 22.5506C13.1876 22.5506 12.8963 22.5412 11.9252 22.4969C11.0272 22.4559 10.5395 22.3059 10.2149 22.1797C9.78502 22.0127 9.47816 21.813 9.15587 21.4908C8.83359 21.1685 8.63396 20.8616 8.46692 20.4317C8.34078 20.1071 8.19073 19.6194 8.14975 18.7215C8.10543 17.7502 8.09607 17.4589 8.09607 14.9996C8.09607 12.5403 8.10543 12.249 8.14975 11.2778C8.19073 10.3798 8.34078 9.89207 8.46692 9.56748C8.63396 9.1376 8.83359 8.83074 9.15587 8.50845C9.47816 8.18616 9.78502 7.98654 10.2149 7.81945C10.5395 7.69335 11.0272 7.54331 11.9252 7.50232C12.8964 7.45801 13.1877 7.44865 15.647 7.44865ZM15.647 5.78906C13.1456 5.78906 12.832 5.79967 11.8496 5.84449C10.8692 5.88924 10.1997 6.04492 9.61377 6.27262C9.00809 6.508 8.49445 6.82294 7.98241 7.33498C7.47037 7.84702 7.15543 8.36067 6.92005 8.96634C6.69234 9.55224 6.53666 10.2217 6.49191 11.2021C6.44709 12.1845 6.43652 12.4982 6.43652 14.9996C6.43652 17.5011 6.44709 17.8147 6.49191 18.7971C6.53666 19.7775 6.69234 20.447 6.92005 21.0329C7.15543 21.6385 7.47037 22.1522 7.98241 22.6642C8.49445 23.1763 9.00809 23.4912 9.61377 23.7266C10.1997 23.9543 10.8692 24.11 11.8496 24.1547C12.832 24.1995 13.1456 24.2101 15.647 24.2101C18.1485 24.2101 18.4621 24.1995 19.4445 24.1547C20.4249 24.11 21.0944 23.9543 21.6803 23.7266C22.286 23.4912 22.7996 23.1763 23.3117 22.6642C23.8237 22.1522 24.1386 21.6385 24.374 21.0329C24.6017 20.447 24.7574 19.7775 24.8021 18.7971C24.847 17.8147 24.8576 17.5011 24.8576 14.9996C24.8576 12.4982 24.847 12.1845 24.8021 11.2021C24.7574 10.2217 24.6017 9.55224 24.374 8.96634C24.1386 8.36067 23.8237 7.84702 23.3117 7.33498C22.7996 6.82294 22.286 6.508 21.6803 6.27262C21.0944 6.04492 20.4249 5.88924 19.4445 5.84449C18.4621 5.79967 18.1485 5.78906 15.647 5.78906ZM15.647 10.2699C13.0349 10.2699 10.9173 12.3875 10.9173 14.9996C10.9173 17.6118 13.0349 19.7293 15.647 19.7293C18.2592 19.7293 20.3768 17.6118 20.3768 14.9996C20.3768 12.3875 18.2592 10.2699 15.647 10.2699ZM15.647 18.0698C13.9514 18.0698 12.5768 16.6952 12.5768 14.9996C12.5768 13.304 13.9514 11.9294 15.647 11.9294C17.3426 11.9294 18.7172 13.304 18.7172 14.9996C18.7172 16.6952 17.3426 18.0698 15.647 18.0698ZM21.6689 10.083C21.6689 10.6934 21.1741 11.1883 20.5636 11.1883C19.9532 11.1883 19.4584 10.6934 19.4584 10.083C19.4584 9.47257 19.9532 8.97775 20.5636 8.97775C21.1741 8.97775 21.6689 9.47257 21.6689 10.083Z" fill="#815CE1"/>
</svg>
