<svg width="31" height="30" viewBox="0 0 31 30" fill="none" xmlns="http://www.w3.org/2000/svg">
<circle cx="15.9434" cy="15" r="15" fill="white"/>
<path d="M22.8161 13.4256C22.6848 13.4387 22.553 13.4456 22.421 13.4462C21.7088 13.4463 21.0077 13.2642 20.3811 12.9165C19.7545 12.5688 19.2221 12.0663 18.832 11.4544V18.237C18.832 19.2285 18.5457 20.1977 18.0092 21.0221C17.4728 21.8464 16.7104 22.489 15.8183 22.8684C14.9263 23.2478 13.9447 23.3471 12.9978 23.1537C12.0508 22.9602 11.1809 22.4828 10.4982 21.7817C9.81548 21.0806 9.35053 20.1874 9.16216 19.215C8.9738 18.2425 9.07047 17.2346 9.43997 16.3186C9.80946 15.4026 10.4352 14.6196 11.238 14.0688C12.0408 13.518 12.9846 13.224 13.9502 13.224C14.0521 13.224 14.1517 13.2334 14.2519 13.2398V15.7102C14.1517 15.6978 14.0532 15.679 13.9502 15.679C13.2894 15.679 12.6556 15.9486 12.1884 16.4284C11.7211 16.9082 11.4586 17.559 11.4586 18.2376C11.4586 18.9161 11.7211 19.5669 12.1884 20.0467C12.6556 20.5265 13.2894 20.7961 13.9502 20.7961C15.3265 20.7961 16.5419 19.6826 16.5419 18.2693L16.566 6.75H18.8675C18.9726 7.77688 19.4259 8.73313 20.1481 9.45154C20.8704 10.17 21.8155 10.6048 22.8184 10.6801V13.4256" fill="#815CE1"/>
</svg>
