<svg width="30" height="30" viewBox="0 0 30 30" fill="none" xmlns="http://www.w3.org/2000/svg">
<circle cx="15" cy="15" r="15" fill="white"/>
<g clip-path="url(#clip0_725_291)">
<path d="M14.991 6C10.023 6 6 10.032 6 15C6 19.968 10.023 24 14.991 24C19.968 24 24 19.968 24 15C24 10.032 19.968 6 14.991 6ZM21.228 11.4H18.573C18.285 10.275 17.871 9.195 17.331 8.196C18.987 8.763 20.364 9.915 21.228 11.4ZM15 7.836C15.747 8.916 16.332 10.113 16.719 11.4H13.281C13.668 10.113 14.253 8.916 15 7.836ZM8.034 16.8C7.89 16.224 7.8 15.621 7.8 15C7.8 14.379 7.89 13.776 8.034 13.2H11.076C11.004 13.794 10.95 14.388 10.95 15C10.95 15.612 11.004 16.206 11.076 16.8H8.034ZM8.772 18.6H11.427C11.715 19.725 12.129 20.805 12.669 21.804C11.013 21.237 9.636 20.094 8.772 18.6ZM11.427 11.4H8.772C9.636 9.906 11.013 8.763 12.669 8.196C12.129 9.195 11.715 10.275 11.427 11.4ZM15 22.164C14.253 21.084 13.668 19.887 13.281 18.6H16.719C16.332 19.887 15.747 21.084 15 22.164ZM17.106 16.8H12.894C12.813 16.206 12.75 15.612 12.75 15C12.75 14.388 12.813 13.785 12.894 13.2H17.106C17.187 13.785 17.25 14.388 17.25 15C17.25 15.612 17.187 16.206 17.106 16.8ZM17.331 21.804C17.871 20.805 18.285 19.725 18.573 18.6H21.228C20.364 20.085 18.987 21.237 17.331 21.804ZM18.924 16.8C18.996 16.206 19.05 15.612 19.05 15C19.05 14.388 18.996 13.794 18.924 13.2H21.966C22.11 13.776 22.2 14.379 22.2 15C22.2 15.621 22.11 16.224 21.966 16.8H18.924Z" fill="#815CE1"/>
</g>
<defs>
<clipPath id="clip0_725_291">
<rect width="18.421" height="18.421" fill="white" transform="translate(5.78906 5.78955)"/>
</clipPath>
</defs>
</svg>
