<svg width="36" height="36" viewBox="0 0 36 36" fill="none" xmlns="http://www.w3.org/2000/svg">
<g filter="url(#filter0_d_401_2915)">
<circle cx="18" cy="18" r="15" fill="white"/>
<path fill-rule="evenodd" clip-rule="evenodd" d="M27.2104 18.0385C27.2104 12.9303 23.0867 8.78931 17.9998 8.78931C12.913 8.78931 8.78931 12.9303 8.78931 18.0385C8.78931 22.5246 11.9698 26.2647 16.1899 27.1092V20.1933H14.6877V17.6787H16.1899V16.1691C16.1899 14.1177 17.0379 12.8979 19.4476 12.8979H21.4537V15.4128H20.1997C19.2617 15.4128 19.1996 15.7641 19.1996 16.4199L19.1963 17.6785H21.4678L21.202 20.1929H19.1963V27.2104C23.7179 26.6214 27.2104 22.7395 27.2104 18.0385Z" fill="#F9543B"/>
</g>
<defs>
<filter id="filter0_d_401_2915" x="0.428571" y="0.428571" width="35.1429" height="35.1429" filterUnits="userSpaceOnUse" color-interpolation-filters="sRGB">
<feFlood flood-opacity="0" result="BackgroundImageFix"/>
<feColorMatrix in="SourceAlpha" type="matrix" values="0 0 0 0 0 0 0 0 0 0 0 0 0 0 0 0 0 0 127 0" result="hardAlpha"/>
<feOffset/>
<feGaussianBlur stdDeviation="1.28571"/>
<feComposite in2="hardAlpha" operator="out"/>
<feColorMatrix type="matrix" values="0 0 0 0 0 0 0 0 0 0 0 0 0 0 0 0 0 0 0.25 0"/>
<feBlend mode="normal" in2="BackgroundImageFix" result="effect1_dropShadow_401_2915"/>
<feBlend mode="normal" in="SourceGraphic" in2="effect1_dropShadow_401_2915" result="shape"/>
</filter>
</defs>
</svg>
