<svg width="100" height="34" viewBox="0 0 100 34" fill="none" xmlns="http://www.w3.org/2000/svg">
<g clip-path="url(#clip0_725_253)">
<path d="M96.2959 0.674603C96.7051 0.674603 97.1103 0.767084 97.4884 0.946764C97.8665 1.12644 98.21 1.38981 98.4993 1.72181C98.7887 2.05382 99.0182 2.44797 99.1748 2.88175C99.3314 3.31554 99.412 3.78047 99.412 4.25V29.75C99.4089 30.6959 99.0793 31.6019 98.4952 32.2695C97.9111 32.9371 97.1203 33.3119 96.2959 33.3119H3.70414C2.87971 33.3119 2.08887 32.9371 1.50481 32.2695C0.920754 31.6019 0.59107 30.6959 0.587959 29.75V4.25C0.587959 3.30175 0.91627 2.39233 1.50067 1.72181C2.08506 1.0513 2.87768 0.674603 3.70414 0.674603H96.2959ZM96.2959 0H3.70414C2.72269 0.00355793 1.78233 0.452467 1.08834 1.24873C0.394353 2.04499 0.00310095 3.12392 0 4.25L0 29.75C0.00310095 30.8761 0.394353 31.955 1.08834 32.7513C1.78233 33.5475 2.72269 33.9964 3.70414 34H96.2959C97.2691 33.9823 98.1975 33.5272 98.8814 32.7325C99.5652 31.9377 99.95 30.8668 99.953 29.75V4.25C99.95 3.13318 99.5652 2.06228 98.8814 1.26754C98.1975 0.472795 97.2691 0.0176661 96.2959 0V0Z" fill="white"/>
<path d="M35.1251 8.70241C35.1379 9.01392 35.0955 9.32518 35.0005 9.61737C34.9055 9.90956 34.7599 10.1766 34.5724 10.4024C34.362 10.6574 34.1058 10.8571 33.8216 10.9875C33.5373 11.1179 33.2318 11.1761 32.9261 11.158C32.6142 11.1712 32.3032 11.1105 32.0127 10.9795C31.7221 10.8486 31.4582 10.6503 31.2375 10.3971C31.0167 10.1438 30.8439 9.84102 30.7298 9.50765C30.6157 9.17427 30.5628 8.81747 30.5743 8.45955C30.5662 8.10267 30.6215 7.74762 30.7369 7.41605C30.8522 7.08447 31.0251 6.78329 31.2451 6.53084C31.4652 6.2784 31.7277 6.07997 32.0167 5.94765C32.3056 5.81532 32.6151 5.75187 32.9261 5.76114C33.2411 5.765 33.5525 5.83828 33.8434 5.97701C34.1097 6.10813 34.3468 6.30643 34.5372 6.55717L34.1491 7.00241C34.0045 6.80758 33.824 6.65204 33.6207 6.54704C33.4173 6.44204 33.1961 6.3902 32.9732 6.39527C32.5316 6.39965 32.1092 6.6032 31.7973 6.96194C31.6263 7.15204 31.492 7.38111 31.4029 7.6344C31.3137 7.88769 31.2718 8.15958 31.2799 8.43257C31.2573 8.71267 31.2876 8.99507 31.3688 9.2605C31.4499 9.52594 31.5801 9.76816 31.7502 9.97067C32.0621 10.3294 32.4845 10.5329 32.9261 10.5373C33.1565 10.5444 33.3857 10.4979 33.6 10.4005C33.8142 10.3031 34.009 10.1569 34.1726 9.97067C34.3998 9.68645 34.5293 9.3173 34.5372 8.93178H32.9261V8.32463H35.0781C35.1047 8.44843 35.1205 8.57499 35.1251 8.70241V8.70241Z" fill="white"/>
<path d="M35.125 8.70233H35.0544C35.0687 9.00359 35.0291 9.30502 34.9381 9.58809C34.8471 9.87116 34.7066 10.1299 34.5253 10.3484C34.3185 10.5922 34.0691 10.7832 33.7935 10.9087C33.5179 11.0343 33.2223 11.0916 32.926 11.0769C32.633 11.0844 32.3418 11.0223 32.0706 10.8946C31.7995 10.7669 31.5543 10.5764 31.3503 10.3349C31.137 10.0969 30.9685 9.81133 30.8553 9.49572C30.742 9.18011 30.6864 8.84121 30.6918 8.49995C30.685 8.15847 30.74 7.81908 30.8533 7.50324C30.9667 7.1874 31.1359 6.90198 31.3503 6.66503C31.5543 6.42352 31.7995 6.23295 32.0706 6.10526C32.3418 5.97757 32.633 5.91551 32.926 5.92296C33.2288 5.92224 33.5287 5.99106 33.808 6.12535C34.0675 6.24395 34.2977 6.43391 34.4782 6.67852H34.537H34.4782L34.1019 7.00233H34.1607H34.2195C34.0603 6.79135 33.8607 6.62552 33.6363 6.51785C33.4118 6.41018 33.1688 6.36357 32.926 6.38169C32.6932 6.37763 32.462 6.42684 32.246 6.52645C32.03 6.62606 31.8334 6.77408 31.6678 6.96185C31.4887 7.16037 31.3479 7.3999 31.2547 7.66488C31.1616 7.92987 31.118 8.21439 31.1269 8.49995C31.1174 8.78359 31.1608 9.06628 31.254 9.32918C31.3473 9.59208 31.4884 9.82914 31.6678 10.0246C32.0099 10.4046 32.4675 10.617 32.9437 10.617C33.4199 10.617 33.8774 10.4046 34.2195 10.0246C34.4629 9.73259 34.605 9.34882 34.6193 8.94519V8.85074H33.0201V8.4055H35.0897V8.32455H35.0192C35.0307 8.44562 35.0307 8.56777 35.0192 8.68884H35.1603C35.1603 8.56741 35.1603 8.43249 35.1603 8.29757V8.23011H32.926V9.01265H34.6076V8.93169H34.537C34.5227 9.29302 34.3977 9.63698 34.1843 9.90312C34.0316 10.0826 33.8485 10.2243 33.6462 10.3195C33.444 10.4146 33.2269 10.4612 33.0083 10.4563C32.7871 10.4565 32.5681 10.4055 32.3645 10.3063C32.1608 10.2072 31.9766 10.062 31.823 9.87942C31.6693 9.69681 31.5493 9.48054 31.4701 9.24353C31.3909 9.00651 31.3542 8.75362 31.3621 8.49995C31.3615 7.99488 31.5348 7.50998 31.8442 7.15074C31.9982 6.9743 32.1819 6.83551 32.384 6.74276C32.5861 6.65 32.8025 6.6052 33.0201 6.61106C33.2421 6.59457 33.4643 6.63853 33.6687 6.73936C33.8731 6.84018 34.0537 6.99501 34.196 7.19122V7.19122L34.5958 6.74598C34.4016 6.47909 34.1504 6.27455 33.8668 6.15233C33.5703 6.00234 33.25 5.92425 32.926 5.92296C32.6137 5.92089 32.3042 5.99022 32.0155 6.12689C31.7267 6.26356 31.4646 6.46485 31.2445 6.719C30.8253 7.18815 30.5844 7.82816 30.5742 8.49995C30.5628 8.86377 30.6188 9.22622 30.7384 9.56342C30.858 9.90063 31.0385 10.2049 31.268 10.4563C31.707 10.963 32.3033 11.2493 32.926 11.2523C33.2401 11.2635 33.5528 11.1997 33.8443 11.065C34.1358 10.9303 34.3997 10.7276 34.6193 10.4698C34.8107 10.2327 34.9591 9.95436 35.056 9.65097C35.1528 9.34757 35.1963 9.02513 35.1838 8.70233H35.125Z" fill="white"/>
<path d="M38.5357 6.57059H36.5132V8.18963H38.3358V8.81027H36.5132V10.4158H38.5357V11.05H35.9487V5.94995H38.5357V6.57059Z" fill="white"/>
<path d="M38.5351 6.57048V6.48953H36.4419V8.18953V8.27048H38.2646V8.71572H36.4419V10.4157V10.5102H38.4645V10.9689H36.0186V6.0308H38.4645V6.57048H38.5351V6.48953V6.57048H38.6174V5.94985V5.8689H35.8657V11.1308H38.6174V10.4157V10.3348H36.583V8.89112H38.4175V8.18953V8.10858H36.583V6.66493H38.6174V6.57048H38.5351Z" fill="white"/>
<path d="M40.9467 11.05H40.3822V6.57059H39.1357V5.94995H42.1931V6.57059H40.9467V11.05Z" fill="white"/>
<path d="M40.9454 11.0498V10.9689H40.4515V6.48953H39.2051V6.0308H42.1096V6.48953H40.9454H40.8749V11.0498H40.9454V10.9689V11.0498H41.016V6.66493H42.1919H42.2625V5.94985V5.8689H39.064V6.57048V6.66493H40.2987V11.1308H40.9454H41.016V11.0498H40.9454Z" fill="white"/>
<path d="M44.979 5.94995H44.4028V11.05H44.979V5.94995Z" fill="white"/>
<path d="M44.4031 11.0498H44.4737V6.0308H44.897V10.9689H44.4031V11.0498H44.4737H44.4031V11.1308H44.9676H45.0381V5.8689H44.4031H44.3208V11.1308H44.4031V11.0498Z" fill="white"/>
<path d="M47.5072 11.05H46.931V6.57059H45.6846V5.94995H48.742V6.57059H47.5072V11.05Z" fill="white"/>
<path d="M47.507 11.0498V10.9689H47.0014V6.48953H45.7666V6.0308H48.6712V6.48953H47.507H47.4247V11.0498H47.507V10.9689V11.0498H47.5775V6.66493H48.7417H48.8123V5.94985V5.8689H45.6138V6.57048V6.66493H46.8602V11.1308H47.507H47.5775V11.0498H47.507Z" fill="white"/>
<path d="M54.5267 10.3888C54.0887 10.8712 53.5052 11.1406 52.8981 11.1406C52.291 11.1406 51.7074 10.8712 51.2694 10.3888C51.0468 10.1449 50.8696 9.85179 50.7483 9.52717C50.6271 9.20255 50.5643 8.85313 50.5639 8.49995C50.5582 8.15062 50.6135 7.80351 50.7266 7.4791C50.8397 7.15469 51.0083 6.85955 51.2224 6.61106C51.4389 6.34839 51.7022 6.14247 51.9945 6.00741C52.2867 5.87235 52.601 5.81133 52.9157 5.82853C53.2203 5.82345 53.5227 5.89029 53.8038 6.02491C54.085 6.15953 54.3391 6.35905 54.5502 6.61106C54.7627 6.86021 54.9295 7.15578 55.0406 7.48024C55.1517 7.80471 55.2049 8.15147 55.197 8.49995C55.2018 8.85035 55.1449 9.19825 55.0297 9.52282C54.9145 9.84739 54.7435 10.1419 54.5267 10.3888V10.3888ZM51.7398 9.9571C52.0554 10.3066 52.477 10.502 52.9157 10.502C53.3544 10.502 53.776 10.3066 54.0916 9.9571C54.2563 9.76575 54.385 9.53775 54.47 9.28715C54.5549 9.03655 54.5942 8.76865 54.5855 8.49995C54.5931 8.22938 54.5533 7.95982 54.4685 7.70721C54.3836 7.4546 54.2555 7.22409 54.0916 7.02932C53.7732 6.68591 53.3527 6.49472 52.9157 6.49472C52.4787 6.49472 52.0582 6.68591 51.7398 7.02932C51.5759 7.22409 51.4478 7.4546 51.363 7.70721C51.2781 7.95982 51.2383 8.22938 51.2459 8.49995C51.2372 8.76865 51.2765 9.03655 51.3615 9.28715C51.4464 9.53775 51.5751 9.76575 51.7398 9.9571V9.9571Z" fill="white"/>
<path d="M54.5271 10.3889C54.1069 10.8635 53.541 11.1295 52.9514 11.1295C52.3617 11.1295 51.7958 10.8635 51.3756 10.3889C51.1512 10.1472 50.9735 9.85428 50.854 9.5289C50.7345 9.20353 50.6758 8.853 50.6818 8.49998C50.6747 8.16085 50.7273 7.82357 50.8364 7.50829C50.9455 7.19302 51.1089 6.90622 51.3168 6.66505C51.737 6.19044 52.3029 5.92443 52.8926 5.92443C53.4822 5.92443 54.0481 6.19044 54.4683 6.66505C54.6751 6.90713 54.8378 7.19408 54.9468 7.50915C55.0559 7.82421 55.1091 8.16105 55.1033 8.49998C55.1104 8.8391 55.0578 9.17638 54.9487 9.49166C54.8396 9.80693 54.6762 10.0937 54.4683 10.3349V10.3349C54.935 9.86789 55.2223 9.20855 55.2679 8.49998C55.2728 8.14032 55.215 7.78317 55.0979 7.44952C54.9808 7.11587 54.8067 6.81246 54.5859 6.55712C54.3728 6.29513 54.1139 6.08763 53.8262 5.94815C53.5385 5.80866 53.2284 5.74033 52.9161 5.74759C52.6032 5.74085 52.2924 5.80804 52.0032 5.94499C51.7139 6.08193 51.4522 6.2857 51.2345 6.54363C51.0144 6.80168 50.8417 7.10779 50.7265 7.44384C50.6114 7.77988 50.5562 8.13902 50.5642 8.49998C50.5578 8.85868 50.6137 9.21527 50.7288 9.54886C50.8439 9.88246 51.0158 10.1864 51.2345 10.4428C51.4535 10.6998 51.7151 10.9041 52.0039 11.0435C52.2927 11.1829 52.6028 11.2547 52.9161 11.2547C53.2294 11.2547 53.5395 11.1829 53.8283 11.0435C54.117 10.9041 54.3786 10.6998 54.5976 10.4428L54.5271 10.3889ZM51.7402 9.95712H51.6814C52.0161 10.3378 52.4683 10.5513 52.9396 10.5513C53.4109 10.5513 53.8631 10.3378 54.1978 9.95712C54.3701 9.75686 54.5048 9.51832 54.5938 9.25614C54.6828 8.99396 54.7241 8.71368 54.7152 8.43252C54.7255 8.15116 54.6848 7.87041 54.5958 7.608C54.5067 7.34559 54.3712 7.10721 54.1978 6.90791C53.8631 6.52726 53.4109 6.3137 52.9396 6.3137C52.4683 6.3137 52.0161 6.52726 51.6814 6.90791C51.5102 7.10909 51.3762 7.34779 51.2873 7.60975C51.1984 7.8717 51.1565 8.15153 51.164 8.43252C51.1578 8.71331 51.2004 8.9927 51.2892 9.25445C51.378 9.51619 51.5113 9.75504 51.6814 9.95712H51.7402C51.5875 9.77944 51.4672 9.56859 51.3865 9.33691C51.3057 9.10524 51.266 8.8574 51.2698 8.60791C51.266 8.35843 51.3057 8.11059 51.3865 7.87891C51.4672 7.64724 51.5875 7.43639 51.7402 7.25871C51.8917 7.07582 52.0742 6.93021 52.2763 6.83071C52.4784 6.7312 52.6961 6.6799 52.9161 6.6799C53.136 6.6799 53.3537 6.7312 53.5559 6.83071C53.758 6.93021 53.9404 7.07582 54.092 7.25871C54.2463 7.43572 54.3683 7.64615 54.4511 7.87778C54.5339 8.1094 54.5757 8.35759 54.5741 8.60791C54.5757 8.85824 54.5339 9.10643 54.4511 9.33805C54.3683 9.56967 54.2463 9.7801 54.092 9.95712C53.9404 10.14 53.758 10.2856 53.5559 10.3851C53.3537 10.4846 53.136 10.5359 52.9161 10.5359C52.6961 10.5359 52.4784 10.4846 52.2763 10.3851C52.0742 10.2856 51.8917 10.14 51.7402 9.95712V9.95712Z" fill="white"/>
<path d="M55.9858 11.05V5.94995H56.6796L58.8316 9.91662H58.8668L58.8316 8.9317V5.94995H59.4078V11.05H58.808L56.5503 6.8944H56.5268L56.5503 7.86582V11.05H55.9858Z" fill="white"/>
<path d="M55.9861 11.0498H56.0567V6.0308H56.6329L58.7966 9.99747H58.8671H58.9377L58.9142 8.9316V6.0308H59.3375V10.9689H58.8554L56.5976 6.79985H56.527H56.4565L56.48 7.87921V10.9689H55.9861V11.0498H56.0567H55.9861V11.1308H56.5506H56.6211V7.86572L56.5976 6.89429H56.527V6.97525H56.5506V6.89429L56.4918 6.93477L58.773 11.1308H59.408H59.4786V5.8689H58.8318H58.7613V8.9316L58.7848 9.91652H58.8671V9.83556H58.8318V9.91652L58.9024 9.87604L56.7152 5.8689H55.9861H55.9038V11.1308H55.9861V11.0498Z" fill="white"/>
<path d="M50.4704 18.484C49.8476 18.4866 49.2395 18.701 48.7228 19.0999C48.2061 19.4988 47.804 20.0645 47.5672 20.7254C47.3305 21.3864 47.2698 22.113 47.3927 22.8135C47.5156 23.514 47.8167 24.1571 48.2579 24.6614C48.6991 25.1657 49.2607 25.5088 49.8717 25.6472C50.4827 25.7856 51.1157 25.7132 51.6909 25.4392C52.2661 25.1651 52.7575 24.7016 53.1033 24.1073C53.4491 23.513 53.6336 22.8144 53.6336 22.0999C53.64 21.6218 53.5625 21.1472 53.4056 20.7044C53.2488 20.2615 53.0158 19.8593 52.7206 19.5219C52.4255 19.1845 52.0741 18.9187 51.6875 18.7404C51.3009 18.5621 50.887 18.4749 50.4704 18.484V18.484ZM50.4704 24.2856C50.0892 24.3153 49.709 24.2129 49.3792 23.9915C49.0494 23.7702 48.7852 23.4401 48.621 23.0443C48.4568 22.6484 48.4001 22.205 48.4583 21.7718C48.5166 21.3385 48.687 20.9353 48.9476 20.6146C49.2081 20.2939 49.5466 20.0705 49.9193 19.9734C50.2919 19.8764 50.6813 19.9101 51.037 20.0703C51.3927 20.2304 51.6982 20.5096 51.9138 20.8715C52.1294 21.2335 52.2452 21.6614 52.246 22.0999C52.2587 22.3783 52.2224 22.6568 52.1393 22.9188C52.0562 23.1808 51.928 23.4209 51.7623 23.6248C51.5966 23.8288 51.3968 23.9924 51.1749 24.1059C50.953 24.2194 50.7134 24.2805 50.4704 24.2856V24.2856ZM43.5678 18.484C42.945 18.4866 42.3368 18.701 41.8201 19.0999C41.3034 19.4988 40.9013 20.0645 40.6646 20.7254C40.4279 21.3864 40.3671 22.113 40.4901 22.8135C40.613 23.514 40.9141 24.1571 41.3553 24.6614C41.7965 25.1657 42.358 25.5088 42.969 25.6472C43.58 25.7856 44.2131 25.7132 44.7882 25.4392C45.3634 25.1651 45.8549 24.7016 46.2007 24.1073C46.5465 23.513 46.731 22.8144 46.731 22.0999C46.7374 21.6218 46.6598 21.1472 46.503 20.7044C46.3461 20.2615 46.1132 19.8593 45.818 19.5219C45.5228 19.1845 45.1715 18.9187 44.7849 18.7404C44.3983 18.5621 43.9844 18.4749 43.5678 18.484V18.484ZM43.5678 24.2856C43.1869 24.3126 42.8077 24.2077 42.4793 23.9846C42.151 23.7614 41.8886 23.4303 41.7262 23.034C41.5639 22.6378 41.509 22.1947 41.5686 21.7622C41.6283 21.3297 41.7998 20.9278 42.061 20.6085C42.3221 20.2891 42.6608 20.0672 43.0332 19.9713C43.4055 19.8755 43.7944 19.9101 44.1494 20.0709C44.5044 20.2316 44.8091 20.5109 45.0241 20.8727C45.2391 21.2345 45.3544 21.662 45.3552 22.0999C45.3679 22.3794 45.3312 22.659 45.2474 22.9219C45.1635 23.1848 45.0343 23.4255 44.8673 23.6296C44.7004 23.8338 44.4992 23.9971 44.2759 24.1098C44.0526 24.2225 43.8117 24.2823 43.5678 24.2856V24.2856ZM35.3364 19.5903V21.1284H38.5349C38.4916 21.8458 38.2389 22.5255 37.8175 23.0578C37.4953 23.4333 37.108 23.727 36.6806 23.9199C36.2532 24.1128 35.7952 24.2006 35.3364 24.1776C34.4007 24.1776 33.5034 23.7512 32.8419 22.9921C32.1803 22.233 31.8086 21.2035 31.8086 20.13C31.8086 19.0565 32.1803 18.027 32.8419 17.2679C33.5034 16.5088 34.4007 16.0824 35.3364 16.0824C36.2146 16.0804 37.0587 16.4726 37.6882 17.1752L38.6407 16.0959C38.1974 15.5949 37.6719 15.1998 37.0946 14.9335C36.5173 14.6671 35.8997 14.5348 35.2776 14.5443C33.9802 14.5443 32.7359 15.1356 31.8185 16.1882C30.9011 17.2408 30.3857 18.6684 30.3857 20.157C30.3857 21.6456 30.9011 23.0732 31.8185 24.1258C32.7359 25.1784 33.9802 25.7697 35.2776 25.7697C35.9339 25.8103 36.5899 25.6851 37.1995 25.403C37.809 25.1209 38.3572 24.6888 38.8053 24.1372C39.5936 23.165 40.0161 21.8755 39.9812 20.5483C39.9836 20.2271 39.96 19.9064 39.9107 19.5903H35.3364ZM68.9088 20.7911C68.7171 20.1358 68.3552 19.5635 67.8717 19.1511C67.3882 18.7387 66.8063 18.5059 66.2042 18.484C65.7997 18.4869 65.3999 18.5841 65.0291 18.7697C64.6584 18.9552 64.3243 19.2252 64.0472 19.5633C63.7701 19.9014 63.5557 20.3006 63.4171 20.7366C63.2785 21.1727 63.2186 21.6364 63.2409 22.0999C63.2314 22.5743 63.3052 23.046 63.458 23.487C63.6108 23.9279 63.8394 24.3291 64.1302 24.6665C64.421 25.0039 64.768 25.2707 65.1506 25.451C65.5332 25.6313 65.9435 25.7213 66.3571 25.7157C66.8775 25.7185 67.3905 25.5733 67.8501 25.2931C68.3097 25.013 68.7017 24.6065 68.9911 24.1102L67.9093 23.2872C67.7491 23.5946 67.5215 23.8486 67.2491 24.0237C66.9768 24.1989 66.6692 24.2892 66.3571 24.2856C66.0374 24.3017 65.7211 24.2057 65.4501 24.0105C65.1791 23.8153 64.9664 23.53 64.8401 23.1927L69.0499 21.1959L68.9088 20.7911ZM64.6755 21.9919C64.6596 21.7288 64.6899 21.4647 64.7646 21.2153C64.8393 20.9658 64.9569 20.7361 65.1105 20.5398C65.264 20.3435 65.4503 20.1846 65.6584 20.0725C65.8665 19.9604 66.0921 19.8974 66.3218 19.8872C66.563 19.8607 66.8054 19.9204 67.0158 20.0581C67.2263 20.1958 67.3946 20.4046 67.4977 20.6562L64.6755 21.9919ZM61.2536 25.4999H62.6412V14.8411H61.2065L61.2536 25.4999ZM58.9841 19.2935C58.7737 19.0312 58.517 18.8233 58.2311 18.6837C57.9452 18.5441 57.6366 18.4761 57.326 18.484C56.4902 18.484 55.6886 18.8649 55.0976 19.543C54.5066 20.2212 54.1746 21.1409 54.1746 22.0999C54.1746 23.0588 54.5066 23.9786 55.0976 24.6567C55.6886 25.3348 56.4902 25.7157 57.326 25.7157C57.6382 25.7274 57.9487 25.6597 58.2354 25.5174C58.5221 25.3751 58.7777 25.1618 58.9841 24.8927V24.8927V25.4189C59.0193 25.6902 59.0015 25.9671 58.9319 26.2296C58.8623 26.492 58.7427 26.7334 58.5817 26.9362C58.4207 27.139 58.2224 27.2981 58.0011 27.4021C57.7799 27.506 57.5412 27.5522 57.3025 27.5372C56.9572 27.5268 56.6223 27.3996 56.3399 27.1716C56.0575 26.9435 55.8401 26.6248 55.715 26.2554L54.5391 26.8221C54.7642 27.4577 55.1499 28.0017 55.6465 28.3839C56.1431 28.7662 56.728 28.9694 57.326 28.9673C58.9488 28.9673 60.3246 27.861 60.3246 25.1895V18.6999H58.937L58.9841 19.2935ZM57.3495 24.2856C56.8808 24.2257 56.4477 23.9697 56.1332 23.5664C55.8187 23.1632 55.6448 22.641 55.6448 22.0999C55.6448 21.5587 55.8187 21.0366 56.1332 20.6333C56.4477 20.23 56.8808 19.974 57.3495 19.9141C57.5871 19.9277 57.8198 19.9959 58.0339 20.1146C58.248 20.2334 58.4392 20.4002 58.596 20.6054C58.7529 20.8105 58.8722 21.0497 58.9469 21.3087C59.0217 21.5677 59.0503 21.8414 59.0311 22.1133C59.0486 22.3836 59.0187 22.6551 58.9431 22.9117C58.8675 23.1684 58.7477 23.4051 58.5909 23.6077C58.4341 23.8103 58.2434 23.9746 58.0301 24.0911C57.8169 24.2075 57.5855 24.2737 57.3495 24.2856ZM75.4116 14.8411H72.0955V25.4999H73.4831V21.4522H75.4116C75.8046 21.4811 76.1987 21.4172 76.5693 21.2645C76.94 21.1117 77.2794 20.8734 77.5666 20.5643C77.8539 20.2551 78.0828 19.8817 78.2393 19.467C78.3958 19.0524 78.4766 18.6053 78.4766 18.1534C78.4766 17.7016 78.3958 17.2545 78.2393 16.8398C78.0828 16.4252 77.8539 16.0517 77.5666 15.7426C77.2794 15.4334 76.94 15.1951 76.5693 15.0424C76.1987 14.8897 75.8046 14.8258 75.4116 14.8546V14.8411ZM75.4116 19.9681H73.4831V16.3252H75.4469C75.8679 16.3252 76.2717 16.5171 76.5694 16.8587C76.8671 17.2003 77.0344 17.6636 77.0344 18.1467C77.0344 18.6298 76.8671 19.093 76.5694 19.4346C76.2717 19.7762 75.8679 19.9681 75.4469 19.9681H75.4116ZM83.9488 18.4435C83.446 18.408 82.9452 18.5425 82.5084 18.8303C82.0716 19.118 81.7179 19.5465 81.4911 20.0626L82.667 20.6562C82.7875 20.3993 82.9708 20.1884 83.1943 20.0494C83.4179 19.9104 83.6719 19.8493 83.9253 19.8737C84.2737 19.8356 84.6213 19.9555 84.8938 20.2076C85.1663 20.4597 85.342 20.8241 85.3834 21.2229V21.3443C84.9408 21.064 84.4425 20.9199 83.937 20.926C82.62 20.926 81.2677 21.7626 81.2677 23.3141C81.2807 23.6483 81.3528 23.9759 81.4796 24.2771C81.6063 24.5783 81.7851 24.8468 82.005 25.0664C82.2249 25.2859 82.4815 25.4519 82.759 25.5542C83.0365 25.6566 83.3293 25.6932 83.6195 25.6618C83.9674 25.6837 84.3141 25.599 84.6241 25.4165C84.9341 25.2339 85.1961 24.96 85.3834 24.6229V25.4324H86.7239V21.3848C86.7233 20.9826 86.6504 20.5848 86.5098 20.2164C86.3693 19.8479 86.1641 19.5166 85.907 19.2432C85.6499 18.9698 85.3465 18.76 85.0157 18.6271C84.6848 18.4941 84.3336 18.4408 83.9841 18.4705L83.9488 18.4435ZM83.8194 24.2856C83.3726 24.2856 82.7376 24.0292 82.7376 23.3816C82.7376 22.734 83.5254 22.2483 84.2075 22.2483C84.6477 22.2388 85.0821 22.3646 85.4657 22.6126C85.4144 23.0729 85.2193 23.4962 84.9165 23.8039C84.6137 24.1116 84.2239 24.2828 83.8194 24.2856V24.2856ZM91.7216 18.6999L90.0753 23.3006L88.429 18.6999H86.9003L89.3698 25.1356L87.9587 28.7245H89.3698L93.1797 18.6999H91.7216ZM79.2686 25.4459H80.6562V14.8411H79.2098L79.2686 25.4459Z" fill="white"/>
<path d="M16.5458 16.9999L7.79701 26.984C7.71562 26.7815 7.67926 26.559 7.69118 26.3364V7.60941C7.67926 7.38682 7.71562 7.16431 7.79701 6.96179L16.5458 16.9999Z" fill="white"/>
<path d="M24.1894 16.9999C24.1894 17.3372 23.966 17.661 23.5662 17.9308L20.1325 20.157L17.3809 16.9999L20.1325 13.8292L23.5191 16.0689C23.6939 16.1399 23.8486 16.2639 23.9666 16.4279C24.0847 16.5919 24.1617 16.7896 24.1894 16.9999V16.9999Z" fill="white"/>
<path d="M19.6027 20.5079H19.5321L9.12526 27.2539C8.87898 27.4517 8.576 27.5338 8.2786 27.4833H8.19629L16.9098 17.5396V17.4722L16.9686 17.5396L19.6027 20.5079Z" fill="white"/>
<path d="M19.6021 13.4919L17.0151 16.4737H16.9563H16.8975L8.23096 6.46259H8.32503C8.62091 6.40814 8.92375 6.48535 9.17169 6.67846L19.5786 13.4245L19.6021 13.4919Z" fill="white"/>
</g>
<defs>
<clipPath id="clip0_725_253">
<rect width="100" height="34" fill="white"/>
</clipPath>
</defs>
</svg>
