<svg width="216" height="72" viewBox="0 0 216 72" fill="none" xmlns="http://www.w3.org/2000/svg">
<path d="M117.138 19.4177H106.626V9.76874H102.515V32.5566H106.626V22.8769H117.138V32.5566H121.26V9.76874H117.138V19.4177Z" fill="white"/>
<path d="M129.554 15.4659H125.545V32.5568H129.554V15.4659Z" fill="white"/>
<path d="M127.562 8.66698C126.954 8.65608 126.365 8.88588 125.924 9.30682C125.71 9.50208 125.54 9.73987 125.424 10.005C125.307 10.2701 125.247 10.5567 125.247 10.8465C125.247 11.1363 125.307 11.423 125.424 11.6881C125.54 11.9532 125.71 12.191 125.924 12.3863C126.362 12.8141 126.951 13.0513 127.562 13.0466C128.17 13.0585 128.758 12.8285 129.197 12.4068C129.409 12.211 129.579 11.973 129.695 11.7079C129.811 11.4429 129.871 11.1566 129.871 10.8671C129.871 10.5776 129.811 10.2912 129.695 10.0262C129.579 9.76114 129.409 9.52317 129.197 9.32734C128.761 8.89816 128.173 8.66062 127.562 8.66698Z" fill="white"/>
<path d="M148.252 21.4912C147.55 21.0562 146.752 20.8023 145.929 20.7522V20.5298C146.645 20.3611 147.325 20.0631 147.936 19.6504C148.533 19.2418 149.023 18.6934 149.363 18.0525C149.735 17.3182 149.918 16.5017 149.894 15.6779C149.912 14.6117 149.63 13.5621 149.08 12.6498C148.49 11.7197 147.639 10.9862 146.634 10.5421C145.344 9.98703 143.949 9.72307 142.547 9.76884H133.854V32.5499H143.051C144.533 32.5998 146.009 32.323 147.373 31.7389C148.432 31.2738 149.326 30.5002 149.942 29.5183C150.517 28.5609 150.813 27.4609 150.797 26.3431C150.827 25.3103 150.581 24.2883 150.085 23.3834C149.646 22.6052 149.015 21.9536 148.252 21.4912ZM137.965 13.1733H142.117C143.33 13.1733 144.239 13.4596 144.843 14.0321C145.144 14.3068 145.383 14.6439 145.543 15.0201C145.703 15.3963 145.78 15.8028 145.769 16.2117C145.785 16.826 145.613 17.4304 145.275 17.943C144.935 18.4379 144.462 18.8267 143.913 19.0653C143.31 19.3368 142.655 19.4723 141.995 19.4622H137.965V13.1733ZM145.616 28.2455C144.955 28.8203 143.88 29.1077 142.39 29.1077H137.962V22.4322H142.492C143.25 22.4121 144.002 22.574 144.686 22.9044C145.269 23.1921 145.761 23.6392 146.103 24.1943C146.438 24.7448 146.612 25.3794 146.604 26.0249C146.616 26.4459 146.534 26.8643 146.363 27.2489C146.192 27.6335 145.937 27.9742 145.616 28.2455Z" fill="white"/>
<path d="M166.959 17.3129C166.254 16.6179 165.408 16.0844 164.479 15.7492C163.525 15.408 162.518 15.2366 161.505 15.2428C160.014 15.2068 158.543 15.5946 157.261 16.3617C156.058 17.1163 155.091 18.1968 154.471 19.4788C153.811 20.9375 153.47 22.5213 153.47 24.1236C153.47 25.7259 153.811 27.3097 154.471 28.7684C155.1 30.0462 156.092 31.1073 157.322 31.8171C158.677 32.5635 160.206 32.9343 161.751 32.8914C162.953 32.9124 164.149 32.707 165.276 32.2858C166.242 31.9237 167.109 31.3375 167.807 30.575C168.472 29.8389 168.941 28.9454 169.17 27.978L165.423 27.5537C165.26 28.0145 164.99 28.4297 164.636 28.765C164.282 29.0961 163.863 29.349 163.406 29.5075C162.896 29.6788 162.36 29.7632 161.822 29.7573C161.025 29.7759 160.238 29.5823 159.54 29.1961C158.885 28.8166 158.357 28.2512 158.021 27.5709C157.656 26.8054 157.472 25.966 157.482 25.1176H169.333V23.8824C169.363 22.5616 169.151 21.2466 168.71 20.0023C168.332 18.9865 167.734 18.0679 166.959 17.3129ZM157.442 22.3974C157.474 21.7468 157.649 21.1114 157.952 20.5361C158.292 19.8985 158.791 19.3607 159.4 18.9758C160.047 18.571 160.798 18.3642 161.56 18.3804C162.268 18.365 162.967 18.5462 163.58 18.9039C164.156 19.246 164.628 19.7408 164.942 20.3342C165.272 20.9675 165.443 21.6723 165.44 22.3871L157.442 22.3974Z" fill="white"/>
<path d="M184.315 16.4852C183.633 16.0402 182.879 15.7183 182.087 15.534C181.285 15.3408 180.463 15.2432 179.638 15.2432C178.53 15.2302 177.429 15.4096 176.382 15.7735C175.441 16.1007 174.588 16.6404 173.888 17.3509C173.192 18.0854 172.69 18.9827 172.427 19.9616L176.174 20.4953C176.396 19.8806 176.8 19.3492 177.332 18.9727C178.019 18.5076 178.838 18.2805 179.665 18.326C180.438 18.2706 181.203 18.5156 181.801 19.0104C182.057 19.2624 182.255 19.5667 182.383 19.9026C182.512 20.2386 182.566 20.5982 182.544 20.9573V21.0223C182.556 21.1896 182.523 21.3572 182.448 21.5072C182.373 21.6572 182.259 21.784 182.118 21.8742C181.696 22.0994 181.232 22.2356 180.755 22.2746C180.135 22.3613 179.326 22.4559 178.327 22.5586C177.523 22.6457 176.726 22.7886 175.942 22.9863C175.212 23.1682 174.513 23.4589 173.868 23.8485C173.262 24.2195 172.762 24.7417 172.417 25.3643C172.035 26.1028 171.851 26.928 171.882 27.7594C171.849 28.7551 172.11 29.7383 172.631 30.5856C173.13 31.3496 173.841 31.9503 174.675 32.3135C175.587 32.7101 176.573 32.9072 177.567 32.8918C178.356 32.9083 179.142 32.782 179.887 32.5188C181.039 32.1136 181.996 31.2846 182.564 30.199H182.697V32.5496H186.553V21.1181C186.586 20.1357 186.374 19.1606 185.936 18.2816C185.555 17.5556 184.997 16.9379 184.315 16.4852ZM182.554 26.425C182.557 27.0416 182.39 27.6469 182.07 28.1734C181.74 28.7175 181.269 29.162 180.708 29.4599C180.062 29.7949 179.343 29.9609 178.616 29.9424C177.887 29.9731 177.167 29.7746 176.555 29.3744C176.124 29.0279 175.842 28.5279 175.768 27.9781C175.693 27.4283 175.833 26.8709 176.157 26.4216C176.456 26.0709 176.841 25.8044 177.274 25.6483C177.793 25.452 178.332 25.3177 178.882 25.2479L179.822 25.1145C180.183 25.0632 180.551 25.0016 180.919 24.9366C181.258 24.8757 181.593 24.7969 181.924 24.7005C182.152 24.6441 182.368 24.5468 182.561 24.4131L182.554 26.425Z" fill="white"/>
<path d="M198.244 29.3436C198.018 29.3799 197.791 29.3982 197.562 29.3983C197.252 29.403 196.944 29.3496 196.653 29.2409C196.373 29.1304 196.14 28.9245 195.995 28.6592C195.808 28.2736 195.722 27.8458 195.747 27.4172V18.5826H199.095V15.4655H195.74V11.3596H191.724V15.4655H189.309V18.5826H191.724V28.1015C191.679 29.0407 191.917 29.9717 192.405 30.7738C192.867 31.4807 193.533 32.0296 194.313 32.3477C195.178 32.6943 196.107 32.8518 197.038 32.8096C197.524 32.8024 198.009 32.7497 198.485 32.6522C198.881 32.5633 199.167 32.4812 199.398 32.4093L198.717 29.258C198.615 29.2717 198.455 29.3059 198.244 29.3436Z" fill="white"/>
<path d="M214.815 24.468C214.027 23.713 212.829 23.1609 211.222 22.8119L208.319 22.1858C207.652 22.0716 207.018 21.8098 206.463 21.4194C206.284 21.2746 206.141 21.0896 206.045 20.8792C205.95 20.6689 205.905 20.439 205.914 20.2081C205.913 19.9184 205.991 19.6338 206.139 19.3849C206.286 19.136 206.498 18.9321 206.752 18.795C207.384 18.4114 208.113 18.2212 208.851 18.2475C209.391 18.2311 209.928 18.3339 210.424 18.5486C210.822 18.7287 211.172 18.9994 211.446 19.339C211.692 19.649 211.874 20.0049 211.981 20.386L215.636 19.9857C215.405 18.5962 214.64 17.3531 213.507 16.523C212.356 15.6699 210.784 15.2434 208.793 15.2434C207.564 15.2191 206.342 15.4364 205.196 15.8832C204.238 16.2502 203.4 16.8739 202.77 17.6864C202.188 18.4767 201.885 19.4405 201.912 20.4237C201.89 20.9892 201.982 21.5534 202.183 22.0824C202.383 22.6115 202.687 23.0947 203.077 23.5031C203.858 24.3152 205.065 24.8923 206.698 25.2344L209.6 25.8469C210.228 25.9488 210.822 26.1998 211.334 26.5791C211.512 26.7262 211.655 26.9118 211.752 27.1222C211.849 27.3325 211.897 27.5621 211.893 27.7938C211.888 28.0947 211.805 28.3892 211.652 28.6475C211.498 28.9058 211.279 29.1188 211.017 29.2651C210.327 29.6882 209.526 29.8932 208.718 29.8536C207.927 29.8901 207.143 29.6849 206.47 29.2651C205.88 28.8526 205.474 28.2252 205.339 27.5166L201.428 27.8964C201.526 28.6361 201.78 29.3465 202.171 29.9805C202.563 30.6146 203.084 31.158 203.7 31.5747C204.97 32.4552 206.646 32.8943 208.728 32.892C210.017 32.9192 211.298 32.6865 212.496 32.2077C213.507 31.8111 214.393 31.148 215.061 30.2881C215.678 29.4707 216.007 28.4706 215.997 27.4448C216.018 26.8932 215.923 26.3435 215.72 25.8309C215.516 25.3182 215.208 24.854 214.815 24.468Z" fill="white"/>
<path d="M110.336 43.44H107.347V42.0736C107.347 40.7421 107.903 40.0414 109.258 40.0414C109.849 40.0414 110.197 40.1815 110.406 40.2516L110.996 38.4647C110.684 38.3245 110.058 38.1143 109.05 38.1143C107.138 38.1143 105.296 39.2705 105.296 41.583V43.44H103.141V45.1919H105.296V56.8946H107.347V45.1919H110.336V43.44Z" fill="white"/>
<path d="M118.083 57.1749C121.698 57.1749 124.132 54.4069 124.132 50.2374C124.132 46.0329 121.698 43.2649 118.083 43.2649C114.468 43.2649 112.035 46.0329 112.035 50.2374C112.035 54.4069 114.468 57.1749 118.083 57.1749ZM118.083 55.3179C115.337 55.3179 114.086 52.9353 114.086 50.2374C114.086 47.5395 115.337 45.1219 118.083 45.1219C120.829 45.1219 122.081 47.5395 122.081 50.2374C122.081 52.9353 120.829 55.3179 118.083 55.3179Z" fill="white"/>
<path d="M127.262 56.8946H129.313V48.3804C129.313 46.5584 130.738 45.227 132.685 45.227C133.232 45.227 133.797 45.3321 133.936 45.3671V43.2649C133.702 43.2473 133.163 43.2298 132.859 43.2298C131.26 43.2298 129.869 44.1408 129.383 45.4722H129.243V43.44H127.262V56.8946Z" fill="white"/>
<path d="M144.258 56.8946L146.048 51.8141H153.243L155.034 56.8946H157.293L150.758 38.9552H148.533L141.998 56.8946H144.258ZM146.726 49.887L149.576 41.7933H149.715L152.566 49.887H146.726Z" fill="white"/>
<path d="M159.787 56.8946H161.838V48.3804C161.838 46.5584 163.263 45.227 165.21 45.227C165.757 45.227 166.322 45.3321 166.461 45.3671V43.2649C166.226 43.2473 165.688 43.2298 165.383 43.2298C163.784 43.2298 162.394 44.1408 161.907 45.4722H161.768V43.44H159.787V56.8946Z" fill="white"/>
<path d="M175.533 43.44H172.683V40.2166H170.632V43.44H168.616V45.1919H170.632V53.601C170.632 55.9486 172.509 57.0698 174.247 57.0698C175.012 57.0698 175.499 56.9296 175.777 56.8245L175.36 54.9675C175.186 55.0025 174.908 55.0726 174.456 55.0726C173.552 55.0726 172.683 54.7923 172.683 53.0404V45.1919H175.533V43.44Z" fill="white"/>
<path d="M178.618 56.8946H180.669V43.44H178.618V56.8946ZM179.661 41.1976C180.461 41.1976 181.121 40.5669 181.121 39.7961C181.121 39.0253 180.461 38.3946 179.661 38.3946C178.862 38.3946 178.201 39.0253 178.201 39.7961C178.201 40.5669 178.862 41.1976 179.661 41.1976Z" fill="white"/>
<path d="M193.88 46.4533C193.237 44.5437 191.795 43.2649 189.153 43.2649C186.337 43.2649 184.252 44.8766 184.252 47.1541C184.252 49.0111 185.347 50.2549 187.797 50.833L190.022 51.3586C191.369 51.674 192.003 52.3221 192.003 53.2507C192.003 54.4069 190.787 55.3529 188.875 55.3529C187.198 55.3529 186.146 54.6259 185.781 53.1806L183.835 53.6711C184.313 55.9573 186.181 57.1749 188.91 57.1749C192.012 57.1749 194.124 55.4668 194.124 53.1455C194.124 51.271 192.959 50.0885 190.578 49.5016L188.597 49.0111C187.015 48.6169 186.303 48.0826 186.303 47.049C186.303 45.8927 187.519 45.0518 189.153 45.0518C190.943 45.0518 191.682 46.0504 192.038 46.9789L193.88 46.4533Z" fill="white"/>
<path d="M203.016 43.44H200.166V40.2166H198.115V43.44H196.099V45.1919H198.115V53.601C198.115 55.9486 199.992 57.0698 201.73 57.0698C202.494 57.0698 202.981 56.9296 203.259 56.8245L202.842 54.9675C202.668 55.0025 202.39 55.0726 201.938 55.0726C201.035 55.0726 200.166 54.7923 200.166 53.0404V45.1919H203.016V43.44Z" fill="white"/>
<path d="M215.317 46.4533C214.674 44.5437 213.231 43.2649 210.589 43.2649C207.774 43.2649 205.688 44.8766 205.688 47.1541C205.688 49.0111 206.783 50.2549 209.234 50.833L211.458 51.3586C212.805 51.674 213.44 52.3221 213.44 53.2507C213.44 54.4069 212.223 55.3529 210.311 55.3529C208.634 55.3529 207.583 54.6259 207.218 53.1806L205.271 53.6711C205.749 55.9573 207.617 57.1749 210.346 57.1749C213.448 57.1749 215.56 55.4668 215.56 53.1455C215.56 51.271 214.396 50.0885 212.014 49.5016L210.033 49.0111C208.452 48.6169 207.739 48.0826 207.739 47.049C207.739 45.8927 208.956 45.0518 210.589 45.0518C212.379 45.0518 213.118 46.0504 213.474 46.9789L215.317 46.4533Z" fill="white"/>
<path fill-rule="evenodd" clip-rule="evenodd" d="M53.0345 67.988C53.0489 68.5096 52.9587 69.0288 52.7691 69.5149C52.5796 70.001 52.2946 70.4441 51.931 70.8181C51.5675 71.1921 51.1327 71.4894 50.6523 71.6924C50.172 71.8954 49.6559 72 49.1345 72C48.6131 72 48.097 71.8954 47.6167 71.6924C47.1364 71.4894 46.7016 71.1921 46.338 70.8181C45.9744 70.4441 45.6894 70.001 45.4999 69.5149C45.3104 69.0288 45.2201 68.5096 45.2345 67.988V38.1981C45.2345 37.1634 44.8237 36.171 44.0926 35.4393C43.3615 34.7077 42.3699 34.2966 41.3359 34.2966C40.302 34.2966 39.3103 34.7077 38.5792 35.4393C37.8481 36.171 37.4374 37.1634 37.4374 38.1981V60.9227C37.4517 61.4443 37.3615 61.9635 37.1719 62.4496C36.9824 62.9356 36.6974 63.3788 36.3339 63.7528C35.9703 64.1268 35.5355 64.4241 35.0552 64.6271C34.5748 64.8301 34.0587 64.9347 33.5373 64.9347C33.0159 64.9347 32.4998 64.8301 32.0195 64.6271C31.5392 64.4241 31.1044 64.1268 30.7408 63.7528C30.3772 63.3788 30.0923 62.9356 29.9027 62.4496C29.7132 61.9635 29.6229 61.4443 29.6373 60.9227V4.01198C29.6229 3.49039 29.7132 2.97121 29.9027 2.48512C30.0923 1.99902 30.3772 1.55588 30.7408 1.18187C31.1044 0.807863 31.5392 0.510579 32.0195 0.307583C32.4998 0.104588 33.0159 0 33.5373 0C34.0587 0 34.5748 0.104588 35.0552 0.307583C35.5355 0.510579 35.9703 0.807863 36.3339 1.18187C36.6974 1.55588 36.9824 1.99902 37.1719 2.48512C37.3615 2.97121 37.4517 3.49039 37.4374 4.01198V26.4522C37.4374 27.4869 37.8481 28.4793 38.5792 29.2109C39.3103 29.9426 40.302 30.3537 41.3359 30.3537C42.3699 30.3537 43.3615 29.9426 44.0926 29.2109C44.8237 28.4793 45.2345 27.4869 45.2345 26.4522V9.74127C45.2201 9.21968 45.3104 8.70049 45.4999 8.2144C45.6894 7.72831 45.9744 7.28516 46.338 6.91116C46.7016 6.53715 47.1364 6.23986 47.6167 6.03687C48.097 5.83387 48.6131 5.72929 49.1345 5.72929C49.6559 5.72929 50.172 5.83387 50.6523 6.03687C51.1327 6.23986 51.5675 6.53715 51.931 6.91116C52.2946 7.28516 52.5796 7.72831 52.7691 8.2144C52.9587 8.70049 53.0489 9.21968 53.0345 9.74127V67.988ZM0 30.5373V41.4656C0.0279868 42.4821 0.451159 43.4476 1.1795 44.1567C1.90785 44.8658 2.8839 45.2625 3.90003 45.2625C4.91617 45.2625 5.89222 44.8658 6.62056 44.1567C7.34891 43.4476 7.77208 42.4821 7.80007 41.4656V30.5373C7.80007 29.5026 7.38933 28.5102 6.65821 27.7786C5.92709 27.0469 4.93548 26.6358 3.90151 26.6358C2.86728 26.6358 1.87536 27.0468 1.14377 27.7784C0.412183 28.51 0.000784699 29.5023 0 30.5373ZM60.0531 21.1732V64.0984C60.0388 64.62 60.129 65.1392 60.3186 65.6253C60.5081 66.1113 60.7931 66.5545 61.1566 66.9285C61.5202 67.3025 61.955 67.5998 62.4353 67.8028C62.9156 68.0058 63.4318 68.1104 63.9532 68.1104C64.4746 68.1104 64.9907 68.0058 65.471 67.8028C65.9513 67.5998 66.3861 67.3025 66.7497 66.9285C67.1133 66.5545 67.3982 66.1113 67.5878 65.6253C67.7773 65.1392 67.8676 64.62 67.8532 64.0984V21.1732C67.8532 20.1382 67.4426 19.1455 66.7115 18.4134C65.9805 17.6812 64.9889 17.2695 63.9546 17.2687C62.9199 17.2687 61.9275 17.6801 61.1959 18.4123C60.4642 19.1445 60.0531 20.1377 60.0531 21.1732ZM14.8187 12.5822V48.4865C14.8466 49.503 15.2698 50.4685 15.9982 51.1776C16.7265 51.8867 17.7025 52.2834 18.7187 52.2834C19.7348 52.2834 20.7109 51.8867 21.4392 51.1776C22.1676 50.4685 22.5907 49.503 22.6187 48.4865V12.5852C22.6179 11.5502 22.2065 10.5578 21.4749 9.82623C20.7434 9.09464 19.7514 8.68369 18.7172 8.68369C17.6832 8.68369 16.6916 9.09474 15.9605 9.82641C15.2294 10.5581 14.8187 11.5504 14.8187 12.5852V12.5822ZM74.8718 25.0747V37.5612C74.8574 38.0828 74.9477 38.602 75.1372 39.0881C75.3267 39.5741 75.6117 40.0173 75.9753 40.3913C76.3388 40.7653 76.7736 41.0626 77.254 41.2656C77.7343 41.4686 78.2504 41.5732 78.7718 41.5732C79.2932 41.5732 79.8093 41.4686 80.2896 41.2656C80.77 41.0626 81.2048 40.7653 81.5683 40.3913C81.9319 40.0173 82.2169 39.5741 82.4064 39.0881C82.5959 38.602 82.6862 38.0828 82.6719 37.5612V25.0747C82.6719 24.0399 82.2611 23.0476 81.53 22.3159C80.7989 21.5842 79.8072 21.1732 78.7733 21.1732C78.2611 21.1728 77.7538 21.2734 77.2805 21.4693C76.8071 21.6652 76.377 21.9525 76.0147 22.3148C75.6524 22.6772 75.3649 23.1074 75.1688 23.5809C74.9727 24.0545 74.8718 24.5621 74.8718 25.0747Z" fill="white"/>
</svg>
