<svg width="497" height="100" viewBox="0 0 497 100" fill="none" xmlns="http://www.w3.org/2000/svg">
<path d="M163.991 44.5621H149.274V31.1608H143.518V62.8106H149.274V49.3666H163.991V62.8106H169.761V31.1608H163.991V44.5621Z" fill="white"/>
<path d="M181.373 39.0745H175.76V62.8119H181.373V39.0745Z" fill="white"/>
<path d="M178.584 29.6308C177.732 29.6157 176.908 29.9348 176.29 30.5195C175.992 30.7907 175.753 31.1209 175.59 31.4892C175.427 31.8574 175.343 32.2555 175.343 32.658C175.343 33.0605 175.427 33.4586 175.59 33.8268C175.753 34.195 175.992 34.5253 176.29 34.7965C176.904 35.3906 177.728 35.7201 178.584 35.7136C179.435 35.7301 180.258 35.4107 180.873 34.825C181.17 34.553 181.407 34.2225 181.57 33.8544C181.732 33.4862 181.816 33.0886 181.816 32.6865C181.816 32.2844 181.732 31.8867 181.57 31.5186C181.407 31.1505 181.17 30.82 180.873 30.548C180.262 29.9519 179.439 29.622 178.584 29.6308Z" fill="white"/>
<path d="M207.55 47.4426C206.567 46.8384 205.45 46.4858 204.297 46.4161V46.1072C205.3 45.8729 206.252 45.4591 207.106 44.8859C207.943 44.3183 208.629 43.5567 209.104 42.6666C209.626 41.6467 209.881 40.5126 209.848 39.3686C209.873 37.8877 209.478 36.4299 208.709 35.1628C207.883 33.871 206.691 32.8522 205.285 32.2355C203.479 31.4645 201.525 31.0979 199.562 31.1615H187.392V62.8018H200.268C202.343 62.8712 204.409 62.4868 206.319 61.6755C207.801 61.0295 209.053 59.955 209.915 58.5913C210.72 57.2616 211.134 55.7338 211.112 54.1812C211.154 52.7469 210.81 51.3274 210.115 50.0706C209.5 48.9898 208.617 48.0848 207.55 47.4426ZM193.148 35.8899H198.961C200.659 35.8899 201.93 36.2875 202.776 37.0827C203.199 37.4643 203.533 37.9323 203.757 38.4549C203.981 38.9774 204.089 39.542 204.073 40.1099C204.096 40.9631 203.854 41.8026 203.382 42.5145C202.905 43.2018 202.244 43.7419 201.474 44.0733C200.63 44.4503 199.714 44.6385 198.789 44.6245H193.148V35.8899ZM203.859 56.8235C202.934 57.6219 201.428 58.021 199.343 58.021H193.143V48.7495H199.486C200.547 48.7216 201.6 48.9464 202.557 49.4053C203.374 49.8049 204.061 50.4258 204.541 51.1968C205.01 51.9615 205.253 52.8429 205.242 53.7393C205.259 54.324 205.144 54.9052 204.905 55.4393C204.665 55.9735 204.308 56.4467 203.859 56.8235Z" fill="white"/>
<path d="M233.738 41.638C232.752 40.6727 231.568 39.9318 230.267 39.4662C228.931 38.9923 227.522 38.7543 226.104 38.7629C224.016 38.7129 221.956 39.2515 220.162 40.3169C218.477 41.365 217.123 42.8656 216.256 44.6462C215.332 46.6722 214.854 48.8719 214.854 51.0973C214.854 53.3228 215.332 55.5224 216.256 57.5485C217.136 59.3231 218.525 60.797 220.248 61.7827C222.145 62.8193 224.284 63.3344 226.447 63.2749C228.13 63.304 229.805 63.0187 231.383 62.4338C232.735 61.9308 233.949 61.1167 234.926 60.0576C235.857 59.0352 236.514 57.7943 236.833 56.4507L231.588 55.8614C231.36 56.5014 230.982 57.078 230.486 57.5437C229.991 58.0035 229.404 58.3548 228.765 58.5749C228.05 58.8129 227.301 58.9301 226.547 58.9218C225.432 58.9477 224.329 58.6788 223.352 58.1425C222.435 57.6154 221.695 56.8301 221.225 55.8852C220.715 54.822 220.457 53.6562 220.472 52.4778H237.062V50.7623C237.104 48.9279 236.808 47.1015 236.19 45.3733C235.66 43.9625 234.823 42.6867 233.738 41.638ZM220.414 48.6998C220.46 47.7963 220.704 46.9138 221.13 46.1146C221.605 45.2291 222.303 44.4822 223.157 43.9476C224.062 43.3854 225.113 43.0981 226.18 43.1207C227.172 43.0993 228.15 43.3509 229.008 43.8478C229.815 44.3228 230.475 45.0101 230.915 45.8342C231.377 46.7138 231.617 47.6927 231.612 48.6856L220.414 48.6998Z" fill="white"/>
<path d="M258.037 40.4895C257.082 39.8714 256.027 39.4243 254.918 39.1684C253.795 38.9001 252.644 38.7645 251.489 38.7645C249.938 38.7465 248.396 38.9957 246.93 39.5011C245.614 39.9555 244.42 40.705 243.439 41.6918C242.465 42.7119 241.762 43.9583 241.394 45.3178L246.639 46.0591C246.95 45.2054 247.516 44.4672 248.261 43.9444C249.222 43.2983 250.369 42.9829 251.527 43.0462C252.61 42.9692 253.68 43.3095 254.517 43.9967C254.875 44.3467 255.153 44.7694 255.333 45.2359C255.512 45.7025 255.588 46.202 255.557 46.7007V46.791C255.574 47.0234 255.528 47.2562 255.423 47.4645C255.318 47.6728 255.158 47.8489 254.961 47.9743C254.37 48.287 253.721 48.4762 253.053 48.5303C252.186 48.6507 251.052 48.7822 249.653 48.9247C248.528 49.0458 247.413 49.2443 246.315 49.5187C245.293 49.7715 244.314 50.1752 243.411 50.7163C242.563 51.2316 241.863 51.9569 241.379 52.8216C240.846 53.8473 240.588 54.9934 240.631 56.1481C240.585 57.531 240.95 58.8965 241.68 60.0735C242.378 61.1345 243.373 61.9688 244.541 62.4733C245.818 63.024 247.198 63.2978 248.59 63.2764C249.695 63.2994 250.795 63.1239 251.837 62.7585C253.451 62.1956 254.79 61.0442 255.586 59.5364H255.772V62.8012H261.17V46.924C261.216 45.5597 260.92 44.2054 260.307 42.9844C259.772 41.9762 258.992 41.1182 258.037 40.4895ZM255.571 54.2947C255.576 55.1511 255.341 55.9919 254.894 56.7231C254.431 57.4788 253.772 58.0961 252.987 58.51C252.083 58.9752 251.076 59.2057 250.059 59.18C249.038 59.2228 248.029 58.947 247.173 58.3912C246.569 57.91 246.175 57.2155 246.071 56.4519C245.967 55.6882 246.162 54.9141 246.616 54.29C247.035 53.803 247.574 53.4328 248.18 53.216C248.906 52.9434 249.661 52.7568 250.431 52.66L251.747 52.4746C252.252 52.4034 252.767 52.3178 253.282 52.2275C253.757 52.1429 254.226 52.0335 254.689 51.8996C255.008 51.8214 255.31 51.6861 255.581 51.5004L255.571 54.2947Z" fill="white"/>
<path d="M277.536 58.3473C277.221 58.3977 276.902 58.4231 276.583 58.4233C276.148 58.4298 275.717 58.3557 275.309 58.2047C274.917 58.0513 274.591 57.7653 274.389 57.3968C274.126 56.8612 274.006 56.2671 274.041 55.6718V43.4015H278.729V39.0723H274.031V33.3696H268.409V39.0723H265.028V43.4015H268.409V56.6222C268.346 57.9267 268.679 59.2198 269.363 60.3337C270.01 61.3155 270.941 62.078 272.033 62.5197C273.245 63.0011 274.545 63.2198 275.848 63.1613C276.529 63.1513 277.208 63.0781 277.875 62.9427C278.428 62.8191 278.829 62.7051 279.153 62.6053L278.199 58.2285C278.056 58.2475 277.832 58.295 277.536 58.3473Z" fill="white"/>
<path d="M300.736 51.5768C299.633 50.5282 297.956 49.7615 295.705 49.2767L291.642 48.4071C290.707 48.2485 289.82 47.8849 289.043 47.3426C288.792 47.1415 288.592 46.8846 288.459 46.5924C288.325 46.3003 288.263 45.981 288.276 45.6603C288.274 45.2579 288.383 44.8627 288.589 44.517C288.796 44.1713 289.093 43.8881 289.449 43.6976C290.333 43.1649 291.354 42.9007 292.386 42.9373C293.142 42.9145 293.895 43.0572 294.589 43.3555C295.145 43.6056 295.635 43.9815 296.02 44.4532C296.364 44.8838 296.618 45.3781 296.769 45.9074L301.886 45.3514C301.562 43.4216 300.492 41.6951 298.905 40.5422C297.293 39.3573 295.093 38.7648 292.305 38.7648C290.584 38.7311 288.874 39.033 287.269 39.6535C285.929 40.1632 284.755 41.0294 283.874 42.1579C283.058 43.2556 282.635 44.5942 282.672 45.9597C282.642 46.7452 282.771 47.5287 283.051 48.2635C283.331 48.9983 283.757 49.6694 284.303 50.2367C285.397 51.3646 287.086 52.1661 289.372 52.6413L293.435 53.492C294.314 53.6335 295.146 53.9821 295.863 54.5089C296.112 54.7132 296.312 54.971 296.448 55.2632C296.583 55.5553 296.651 55.8742 296.645 56.196C296.639 56.6139 296.522 57.0229 296.307 57.3817C296.092 57.7405 295.786 58.0363 295.419 58.2394C294.453 58.8271 293.331 59.1119 292.2 59.0568C291.092 59.1075 289.995 58.8225 289.053 58.2394C288.228 57.6666 287.66 56.7952 287.47 55.8111L281.995 56.3385C282.132 57.3659 282.487 58.3525 283.035 59.2331C283.583 60.1138 284.313 60.8684 285.176 61.4472C286.953 62.6701 289.299 63.28 292.215 63.2768C294.019 63.3146 295.812 62.9914 297.489 62.3263C298.905 61.7756 300.145 60.8546 301.08 59.6604C301.944 58.525 302.405 57.136 302.391 55.7112C302.42 54.9452 302.287 54.1817 302.002 53.4697C301.717 52.7577 301.286 52.1129 300.736 51.5768Z" fill="white"/>
<path d="M326.239 40.145H321.207V37.8629C321.207 35.6394 322.143 34.4691 324.425 34.4691C325.42 34.4691 326.005 34.7032 326.356 34.8202L327.351 31.836C326.825 31.6019 325.771 31.2508 324.074 31.2508C320.856 31.2508 317.755 33.1818 317.755 37.0437V40.145H314.127V43.0707H317.755V62.6144H321.207V43.0707H326.239V40.145Z" fill="white"/>
<path d="M339.281 63.0825C345.366 63.0825 349.462 58.4599 349.462 51.4967C349.462 44.475 345.366 39.8524 339.281 39.8524C333.195 39.8524 329.099 44.475 329.099 51.4967C329.099 58.4599 333.195 63.0825 339.281 63.0825ZM339.281 59.9813C334.658 59.9813 332.552 56.0023 332.552 51.4967C332.552 46.9911 334.658 42.9537 339.281 42.9537C343.903 42.9537 346.01 46.9911 346.01 51.4967C346.01 56.0023 343.903 59.9813 339.281 59.9813Z" fill="white"/>
<path d="M354.732 62.6144H358.184V48.3955C358.184 45.3527 360.583 43.1292 363.86 43.1292C364.782 43.1292 365.733 43.3047 365.967 43.3633V39.8524C365.572 39.8232 364.665 39.7939 364.153 39.7939C361.461 39.7939 359.121 41.3153 358.301 43.5388H358.067V40.145H354.732V62.6144Z" fill="white"/>
<path d="M376.339 62.6144L379.352 54.1298H391.465L394.478 62.6144H398.282L387.281 32.6552H383.536L372.535 62.6144H376.339ZM380.493 50.9116L385.291 37.3948H385.526L390.324 50.9116H380.493Z" fill="white"/>
<path d="M402.48 62.6144H405.932V48.3955C405.932 45.3527 408.331 43.1292 411.608 43.1292C412.53 43.1292 413.481 43.3047 413.715 43.3633V39.8524C413.32 39.8232 412.413 39.7939 411.901 39.7939C409.209 39.7939 406.869 41.3153 406.049 43.5388H405.815V40.145H402.48V62.6144Z" fill="white"/>
<path d="M428.987 40.145H424.189V34.7617H420.736V40.145H417.343V43.0707H420.736V57.1141C420.736 61.0345 423.896 62.907 426.822 62.907C428.109 62.907 428.928 62.6729 429.396 62.4974L428.694 59.3961C428.402 59.4546 427.934 59.5717 427.173 59.5717C425.652 59.5717 424.189 59.1035 424.189 56.1778V43.0707H428.987V40.145Z" fill="white"/>
<path d="M434.18 62.6144H437.632V40.145H434.18V62.6144ZM435.935 36.4001C437.281 36.4001 438.393 35.3468 438.393 34.0595C438.393 32.7722 437.281 31.719 435.935 31.719C434.59 31.719 433.478 32.7722 433.478 34.0595C433.478 35.3468 434.59 36.4001 435.935 36.4001Z" fill="white"/>
<path d="M459.871 45.1772C458.789 41.9882 456.361 39.8524 451.913 39.8524C447.174 39.8524 443.663 42.5441 443.663 46.3475C443.663 49.4487 445.506 51.526 449.631 52.4915L453.376 53.3692C455.644 53.8958 456.712 54.9783 456.712 56.5289C456.712 58.4599 454.664 60.0398 451.445 60.0398C448.622 60.0398 446.852 58.8256 446.238 56.4119L442.961 57.2311C443.765 61.0491 446.91 63.0825 451.504 63.0825C456.726 63.0825 460.281 60.2299 460.281 56.3534C460.281 53.2229 458.321 51.248 454.313 50.2679L450.977 49.4487C448.315 48.7904 447.115 47.8981 447.115 46.1719C447.115 44.241 449.163 42.8366 451.913 42.8366C454.927 42.8366 456.17 44.5043 456.77 46.0549L459.871 45.1772Z" fill="white"/>
<path d="M475.25 40.145H470.451V34.7617H466.999V40.145H463.605V43.0707H466.999V57.1141C466.999 61.0345 470.159 62.907 473.085 62.907C474.372 62.907 475.191 62.6729 475.659 62.4974L474.957 59.3961C474.664 59.4546 474.196 59.5717 473.436 59.5717C471.914 59.5717 470.451 59.1035 470.451 56.1778V43.0707H475.25V40.145Z" fill="white"/>
<path d="M495.956 45.1772C494.874 41.9882 492.445 39.8524 487.998 39.8524C483.259 39.8524 479.748 42.5441 479.748 46.3475C479.748 49.4487 481.591 51.526 485.716 52.4915L489.461 53.3692C491.729 53.8958 492.797 54.9783 492.797 56.5289C492.797 58.4599 490.749 60.0398 487.53 60.0398C484.707 60.0398 482.937 58.8256 482.322 56.4119L479.046 57.2311C479.85 61.0491 482.995 63.0825 487.589 63.0825C492.811 63.0825 496.366 60.2299 496.366 56.3534C496.366 53.2229 494.406 51.248 490.397 50.2679L487.062 49.4487C484.4 48.7904 483.2 47.8981 483.2 46.1719C483.2 44.241 485.248 42.8366 487.998 42.8366C491.012 42.8366 492.255 44.5043 492.855 46.0549L495.956 45.1772Z" fill="white"/>
<path fill-rule="evenodd" clip-rule="evenodd" d="M74.2471 94.4278C74.2673 95.1522 74.1409 95.8733 73.8755 96.5485C73.6102 97.2236 73.2113 97.8391 72.7023 98.3585C72.1933 98.878 71.5845 99.2909 70.9121 99.5728C70.2397 99.8547 69.5171 100 68.7872 100C68.0572 100 67.3347 99.8547 66.6623 99.5728C65.9898 99.2909 65.3811 98.878 64.8721 98.3585C64.3631 97.8391 63.9642 97.2236 63.6988 96.5485C63.4335 95.8733 63.3071 95.1522 63.3272 94.4278V53.0529C63.3272 51.6158 62.7522 50.2375 61.7286 49.2213C60.7051 48.2051 59.3169 47.6342 57.8693 47.6342C56.4218 47.6342 55.0336 48.2051 54.01 49.2213C52.9865 50.2375 52.4115 51.6158 52.4115 53.0529V84.6148C52.4316 85.3393 52.3052 86.0604 52.0399 86.7355C51.7745 87.4106 51.3756 88.0261 50.8666 88.5455C50.3576 89.065 49.7489 89.4779 49.0764 89.7598C48.404 90.0418 47.6814 90.187 46.9515 90.187C46.2215 90.187 45.499 90.0418 44.8266 89.7598C44.1541 89.4779 43.5454 89.065 43.0364 88.5455C42.5274 88.0261 42.1285 87.4106 41.8631 86.7355C41.5978 86.0604 41.4714 85.3393 41.4915 84.6148V5.5722C41.4714 4.84777 41.5978 4.12668 41.8631 3.45155C42.1285 2.77642 42.5274 2.16094 43.0364 1.64149C43.5454 1.12203 44.1541 0.709137 44.8266 0.427199C45.499 0.145261 46.2215 0 46.9515 0C47.6814 0 48.404 0.145261 49.0764 0.427199C49.7489 0.709137 50.3576 1.12203 50.8666 1.64149C51.3756 2.16094 51.7745 2.77642 52.0399 3.45155C52.3052 4.12668 52.4316 4.84777 52.4115 5.5722V36.7391C52.4115 38.1763 52.9865 39.5545 54.01 40.5708C55.0336 41.587 56.4218 42.1579 57.8693 42.1579C59.3169 42.1579 60.7051 41.587 61.7286 40.5708C62.7522 39.5545 63.3272 38.1763 63.3272 36.7391V13.5295C63.3071 12.8051 63.4335 12.084 63.6988 11.4089C63.9642 10.7338 64.3631 10.1183 64.8721 9.59883C65.3811 9.07937 65.9898 8.66648 66.6623 8.38454C67.3347 8.1026 68.0572 7.95734 68.7872 7.95734C69.5171 7.95734 70.2397 8.1026 70.9121 8.38454C71.5845 8.66648 72.1933 9.07937 72.7023 9.59883C73.2113 10.1183 73.6102 10.7338 73.8755 11.4089C74.1409 12.084 74.2673 12.8051 74.2471 13.5295V94.4278ZM0 42.413V57.5912C0.0391809 59.003 0.631612 60.3439 1.65128 61.3288C2.67095 62.3136 4.03739 62.8646 5.45996 62.8646C6.88253 62.8646 8.24897 62.3136 9.26864 61.3288C10.2883 60.3439 10.8807 59.003 10.9199 57.5912V42.413C10.9199 40.9758 10.3449 39.5975 9.32134 38.5813C8.29779 37.5651 6.90955 36.9942 5.46203 36.9942C4.01413 36.9942 2.62547 37.565 1.60126 38.5811C0.577047 39.5972 0.00109856 40.9754 0 42.413ZM84.073 29.4072V89.0255C84.0529 89.75 84.1792 90.471 84.4446 91.1462C84.7099 91.8213 85.1089 92.4368 85.6179 92.9562C86.1269 93.4757 86.7356 93.8886 87.408 94.1705C88.0805 94.4525 88.803 94.5977 89.533 94.5977C90.2629 94.5977 90.9854 94.4525 91.6579 94.1705C92.3303 93.8886 92.939 93.4757 93.448 92.9562C93.957 92.4368 94.356 91.8213 94.6213 91.1462C94.8867 90.471 95.013 89.75 94.9929 89.0255V29.4072C94.9929 27.9697 94.418 26.591 93.3946 25.5741C92.3712 24.5573 90.9829 23.9854 89.535 23.9844C88.0864 23.9844 86.6971 24.5557 85.6728 25.5727C84.6485 26.5896 84.073 27.969 84.073 29.4072ZM20.7458 17.4753V67.3424C20.785 68.7542 21.3774 70.0952 22.397 71.08C23.4167 72.0649 24.7832 72.6159 26.2057 72.6159C27.6283 72.6159 28.9947 72.0649 30.0144 71.08C31.0341 70.0952 31.6265 68.7542 31.6657 67.3424V17.4794C31.6646 16.0419 31.0886 14.6636 30.0644 13.6475C29.0402 12.6314 27.6516 12.0607 26.2037 12.0607C24.7561 12.0607 23.3679 12.6316 22.3443 13.6478C21.3208 14.664 20.7458 16.0423 20.7458 17.4794V17.4753ZM104.819 34.8259V52.1683C104.799 52.8927 104.925 53.6138 105.19 54.289C105.456 54.9641 105.855 55.5796 106.364 56.099C106.873 56.6185 107.481 57.0314 108.154 57.3133C108.826 57.5953 109.549 57.7405 110.279 57.7405C111.009 57.7405 111.731 57.5953 112.404 57.3133C113.076 57.0314 113.685 56.6185 114.194 56.099C114.703 55.5796 115.102 54.9641 115.367 54.289C115.632 53.6138 115.759 52.8927 115.739 52.1683V34.8259C115.739 33.3888 115.164 32.0105 114.14 30.9943C113.117 29.9781 111.728 29.4072 110.281 29.4072C109.564 29.4067 108.854 29.5464 108.191 29.8185C107.528 30.0906 106.926 30.4896 106.419 30.9928C105.912 31.4961 105.509 32.0936 105.235 32.7513C104.96 33.409 104.819 34.114 104.819 34.8259Z" fill="white"/>
</svg>
