<svg width="75" height="75" viewBox="0 0 75 75" fill="none" xmlns="http://www.w3.org/2000/svg">
<g filter="url(#filter0_d_401_2708)">
<circle cx="37.3333" cy="37.6666" r="33.3333" fill="#F9543B"/>
<path d="M37.3333 20.8859C42.7984 20.8859 43.4457 20.9067 45.604 21.0052C47.5996 21.0963 48.6833 21.4297 49.4047 21.7099C50.36 22.0812 51.0419 22.5249 51.7581 23.2411C52.4743 23.9572 52.9179 24.6392 53.2891 25.5945C53.5694 26.3158 53.9028 27.3995 53.9939 29.395C54.0924 31.5534 54.1132 32.2007 54.1132 37.6658C54.1132 43.131 54.0924 43.7783 53.9939 45.9366C53.9028 47.9322 53.5694 49.0159 53.2891 49.7372C52.9179 50.6925 52.4743 51.3744 51.7581 52.0906C51.0419 52.8068 50.36 53.2504 49.4047 53.6217C48.6833 53.902 47.5996 54.2354 45.604 54.3265C43.4461 54.4249 42.7988 54.4457 37.3333 54.4457C31.8678 54.4457 31.2205 54.4249 29.0626 54.3265C27.067 54.2354 25.9832 53.902 25.262 53.6217C24.3066 53.2504 23.6247 52.8068 22.9085 52.0906C22.1923 51.3744 21.7487 50.6925 21.3775 49.7372C21.0972 49.0159 20.7637 47.9322 20.6726 45.9366C20.5742 43.7783 20.5534 43.131 20.5534 37.6658C20.5534 32.2007 20.5742 31.5534 20.6726 29.3951C20.7637 27.3995 21.0972 26.3158 21.3775 25.5945C21.7487 24.6392 22.1923 23.9572 22.9085 23.2411C23.6247 22.5249 24.3066 22.0812 25.262 21.7099C25.9832 21.4297 27.067 21.0963 29.0625 21.0052C31.2208 20.9067 31.8681 20.8859 37.3333 20.8859ZM37.3333 17.198C31.7745 17.198 31.0776 17.2215 28.8945 17.3211C26.7158 17.4206 25.228 17.7665 23.926 18.2725C22.5801 18.7956 21.4386 19.4955 20.3008 20.6333C19.1629 21.7712 18.463 22.9127 17.94 24.2586C17.434 25.5606 17.088 27.0484 16.9886 29.227C16.889 31.4101 16.8655 32.1071 16.8655 37.6658C16.8655 43.2246 16.889 43.9216 16.9886 46.1047C17.088 48.2833 17.434 49.7711 17.94 51.0731C18.463 52.419 19.1629 53.5605 20.3008 54.6983C21.4386 55.8362 22.5801 56.5361 23.926 57.0591C25.228 57.5652 26.7158 57.9111 28.8945 58.0106C31.0776 58.1102 31.7745 58.1336 37.3333 58.1336C42.892 58.1336 43.5891 58.1102 45.7721 58.0106C47.9507 57.9111 49.4385 57.5652 50.7405 57.0591C52.0865 56.5361 53.2279 55.8362 54.3658 54.6983C55.5036 53.5605 56.2035 52.419 56.7266 51.0731C57.2326 49.7711 57.5785 48.2833 57.678 46.1047C57.7776 43.9216 57.8012 43.2246 57.8012 37.6658C57.8012 32.1071 57.7776 31.4101 57.678 29.227C57.5785 27.0484 57.2326 25.5606 56.7266 24.2586C56.2035 22.9127 55.5036 21.7712 54.3658 20.6333C53.2279 19.4955 52.0865 18.7956 50.7405 18.2725C49.4385 17.7665 47.9507 17.4206 45.7721 17.3211C43.5891 17.2215 42.892 17.198 37.3333 17.198ZM37.3333 27.1553C31.5285 27.1553 26.8227 31.8611 26.8227 37.6658C26.8227 43.4706 31.5285 48.1764 37.3333 48.1764C43.1381 48.1764 47.8438 43.4706 47.8438 37.6658C47.8438 31.8611 43.1381 27.1553 37.3333 27.1553ZM37.3333 44.4885C33.5653 44.4885 30.5106 41.4338 30.5106 37.6658C30.5106 33.8978 33.5653 30.8432 37.3333 30.8432C41.1013 30.8432 44.1559 33.8978 44.1559 37.6658C44.1559 41.4338 41.1013 44.4885 37.3333 44.4885ZM50.7152 26.74C50.7152 28.0965 49.6156 29.1962 48.2591 29.1962C46.9026 29.1962 45.8029 28.0965 45.8029 26.74C45.8029 25.3835 46.9026 24.2839 48.2591 24.2839C49.6156 24.2839 50.7152 25.3835 50.7152 26.74Z" fill="white"/>
</g>
<defs>
<filter id="filter0_d_401_2708" x="0" y="0.333252" width="74.6666" height="74.6667" filterUnits="userSpaceOnUse" color-interpolation-filters="sRGB">
<feFlood flood-opacity="0" result="BackgroundImageFix"/>
<feColorMatrix in="SourceAlpha" type="matrix" values="0 0 0 0 0 0 0 0 0 0 0 0 0 0 0 0 0 0 127 0" result="hardAlpha"/>
<feOffset/>
<feGaussianBlur stdDeviation="2"/>
<feComposite in2="hardAlpha" operator="out"/>
<feColorMatrix type="matrix" values="0 0 0 0 0 0 0 0 0 0 0 0 0 0 0 0 0 0 0.25 0"/>
<feBlend mode="normal" in2="BackgroundImageFix" result="effect1_dropShadow_401_2708"/>
<feBlend mode="normal" in="SourceGraphic" in2="effect1_dropShadow_401_2708" result="shape"/>
</filter>
</defs>
</svg>
