<svg width="36" height="36" viewBox="0 0 36 36" fill="none" xmlns="http://www.w3.org/2000/svg">
<g filter="url(#filter0_d_401_2920)">
<circle cx="18" cy="18" r="15" fill="white"/>
<path d="M18.0001 10.4487C20.4594 10.4487 20.7507 10.458 21.7219 10.5023C22.6199 10.5433 23.1076 10.6934 23.4322 10.8195C23.8621 10.9865 24.1689 11.1862 24.4912 11.5085C24.8135 11.8307 25.0131 12.1376 25.1802 12.5675C25.3063 12.8921 25.4564 13.3798 25.4973 14.2777C25.5417 15.249 25.551 15.5403 25.551 17.9996C25.551 20.4589 25.5417 20.7502 25.4973 21.7214C25.4564 22.6194 25.3063 23.1071 25.1802 23.4317C25.0131 23.8616 24.8135 24.1685 24.4912 24.4908C24.1689 24.813 23.8621 25.0127 23.4322 25.1797C23.1076 25.3059 22.6199 25.4559 21.7219 25.4969C20.7508 25.5412 20.4595 25.5506 18.0001 25.5506C15.5406 25.5506 15.2493 25.5412 14.2782 25.4969C13.3802 25.4559 12.8925 25.3059 12.568 25.1797C12.138 25.0127 11.8312 24.813 11.5089 24.4908C11.1866 24.1685 10.987 23.8616 10.8199 23.4317C10.6938 23.1071 10.5438 22.6194 10.5028 21.7215C10.4585 20.7502 10.4491 20.4589 10.4491 17.9996C10.4491 15.5403 10.4585 15.249 10.5028 14.2778C10.5438 13.3798 10.6938 12.8921 10.8199 12.5675C10.987 12.1376 11.1866 11.8307 11.5089 11.5085C11.8312 11.1862 12.138 10.9865 12.568 10.8195C12.8925 10.6934 13.3802 10.5433 14.2782 10.5023C15.2494 10.458 15.5407 10.4487 18.0001 10.4487ZM18.0001 8.78906C15.4986 8.78906 15.185 8.79967 14.2026 8.84449C13.2222 8.88924 12.5527 9.04492 11.9668 9.27262C11.3611 9.508 10.8475 9.82294 10.3354 10.335C9.82339 10.847 9.50845 11.3607 9.27307 11.9663C9.04537 12.5522 8.88969 13.2217 8.84494 14.2021C8.80012 15.1845 8.78955 15.4982 8.78955 17.9996C8.78955 20.5011 8.80012 20.8147 8.84494 21.7971C8.88969 22.7775 9.04537 23.447 9.27307 24.0329C9.50845 24.6385 9.82339 25.1522 10.3354 25.6642C10.8475 26.1763 11.3611 26.4912 11.9668 26.7266C12.5527 26.9543 13.2222 27.11 14.2026 27.1547C15.185 27.1995 15.4986 27.2101 18.0001 27.2101C20.5015 27.2101 20.8152 27.1995 21.7975 27.1547C22.7779 27.11 23.4474 26.9543 24.0333 26.7266C24.639 26.4912 25.1526 26.1763 25.6647 25.6642C26.1767 25.1522 26.4917 24.6385 26.727 24.0329C26.9547 23.447 27.1104 22.7775 27.1552 21.7971C27.2 20.8147 27.2106 20.5011 27.2106 17.9996C27.2106 15.4982 27.2 15.1845 27.1552 14.2021C27.1104 13.2217 26.9547 12.5522 26.727 11.9663C26.4917 11.3607 26.1767 10.847 25.6647 10.335C25.1526 9.82294 24.639 9.508 24.0333 9.27262C23.4474 9.04492 22.7779 8.88924 21.7975 8.84449C20.8152 8.79967 20.5015 8.78906 18.0001 8.78906ZM18.0001 13.2699C15.3879 13.2699 13.2703 15.3875 13.2703 17.9996C13.2703 20.6118 15.3879 22.7294 18.0001 22.7294C20.6122 22.7294 22.7298 20.6118 22.7298 17.9996C22.7298 15.3875 20.6122 13.2699 18.0001 13.2699ZM18.0001 21.0698C16.3045 21.0698 14.9299 19.6952 14.9299 17.9996C14.9299 16.304 16.3045 14.9294 18.0001 14.9294C19.6957 14.9294 21.0703 16.304 21.0703 17.9996C21.0703 19.6952 19.6957 21.0698 18.0001 21.0698ZM24.0219 13.083C24.0219 13.6934 23.5271 14.1883 22.9167 14.1883C22.3062 14.1883 21.8114 13.6934 21.8114 13.083C21.8114 12.4726 22.3062 11.9778 22.9167 11.9778C23.5271 11.9778 24.0219 12.4726 24.0219 13.083Z" fill="#F9543B"/>
</g>
<defs>
<filter id="filter0_d_401_2920" x="0.428571" y="0.428571" width="35.1429" height="35.1429" filterUnits="userSpaceOnUse" color-interpolation-filters="sRGB">
<feFlood flood-opacity="0" result="BackgroundImageFix"/>
<feColorMatrix in="SourceAlpha" type="matrix" values="0 0 0 0 0 0 0 0 0 0 0 0 0 0 0 0 0 0 127 0" result="hardAlpha"/>
<feOffset/>
<feGaussianBlur stdDeviation="1.28571"/>
<feComposite in2="hardAlpha" operator="out"/>
<feColorMatrix type="matrix" values="0 0 0 0 0 0 0 0 0 0 0 0 0 0 0 0 0 0 0.25 0"/>
<feBlend mode="normal" in2="BackgroundImageFix" result="effect1_dropShadow_401_2920"/>
<feBlend mode="normal" in="SourceGraphic" in2="effect1_dropShadow_401_2920" result="shape"/>
</filter>
</defs>
</svg>
