<svg width="175" height="123" viewBox="0 0 175 123" fill="none" xmlns="http://www.w3.org/2000/svg">
<path d="M130.884 0H127.985C109.173 0 93.071 11.8202 86.7185 28.4215C80.3661 11.8202 64.2616 0 45.4498 0H42.561V16.5706L42.642 41.266V47.0714C44.0822 69.1208 61.772 86.805 83.8158 88.2424C84.776 88.3056 85.7435 88.3373 86.7185 88.3373C87.6936 88.3373 88.6602 88.3056 89.6185 88.2424C111.668 86.8077 129.355 69.1208 130.792 47.0714C130.815 46.7364 130.834 46.3987 130.845 46.061V41.2799H130.884V0ZM48.3525 30.5817L59.0283 41.2799H48.3525V30.5817ZM83.8158 82.4343H83.707C83.4279 82.4119 83.1209 82.3839 82.8306 82.356C82.5403 82.3281 82.2528 82.2946 81.9626 82.2583L81.3095 82.1718C80.6647 82.0825 80.0256 81.9737 79.3864 81.8481C79.1073 81.7951 78.8282 81.7365 78.5491 81.6723C78.27 81.6081 77.9909 81.5495 77.7118 81.4825C77.455 81.4211 77.1982 81.354 76.9442 81.287L76.8521 81.262C76.6288 81.2061 76.4083 81.1447 76.1878 81.0777C76.1181 81.061 76.0483 81.0414 75.9841 81.0191C75.8166 80.9717 75.6464 80.9214 75.4789 80.8684C75.3114 80.8153 75.2165 80.7875 75.0826 80.7429C74.9486 80.6982 74.756 80.6423 74.5941 80.5837C74.502 80.553 74.4043 80.5224 74.315 80.4861C74.1476 80.4331 73.9745 80.3716 73.8043 80.3074C73.6815 80.2665 73.5586 80.2218 73.4358 80.1735C73.313 80.1251 73.1735 80.072 73.0172 80.0143C72.9139 79.978 72.8079 79.9362 72.7046 79.8915C72.4953 79.8134 72.2915 79.7297 72.0877 79.6459L71.9957 79.6041C71.7919 79.5203 71.5882 79.4338 71.3844 79.3417C71.2811 79.2999 71.1835 79.2579 71.083 79.2105C70.9043 79.1323 70.7285 79.0486 70.5527 78.9676L70.4606 78.9231C70.2233 78.8142 69.9889 78.7026 69.7572 78.5854C69.5256 78.4681 69.2688 78.3425 69.0287 78.2141L68.959 78.1779C68.7273 78.0579 68.5012 77.935 68.2696 77.8066C68.0379 77.6783 67.7811 77.5275 67.5411 77.3936C66.5754 76.8354 65.6348 76.2325 64.7277 75.5906C64.5574 75.4761 64.3956 75.3588 64.2309 75.2388C63.7034 74.8536 63.1842 74.4546 62.6791 74.0443C62.5646 73.9578 62.453 73.8657 62.3441 73.7652C62.2353 73.6647 62.065 73.5363 61.9283 73.4163C61.7385 73.2544 61.5459 73.0897 61.3701 72.9223C61.2417 72.8078 61.1133 72.6961 60.9905 72.5761C60.9039 72.5008 60.8174 72.4255 60.7337 72.3473L60.4015 72.0347C60.2815 71.923 60.1643 71.8086 60.0443 71.6914C59.8629 71.5127 59.6759 71.3341 59.4861 71.1499C59.38 71.0467 59.2768 70.9378 59.1763 70.8317C59.0758 70.7256 58.9446 70.5917 58.8274 70.4689C58.4794 70.0968 58.138 69.7199 57.8031 69.3384C57.6775 69.1961 57.5547 69.0595 57.4319 68.9032L57.2337 68.6686C57.1025 68.5123 56.9741 68.3561 56.8513 68.1998C56.7285 68.0435 56.5555 67.8286 56.4075 67.6416C56.3851 67.6086 56.3609 67.5769 56.335 67.5466L55.9051 66.9884C55.7153 66.7316 55.5311 66.4749 55.3469 66.2125L54.8948 65.5539L54.8641 65.5092C54.7134 65.2831 54.5626 65.0542 54.4175 64.8253C54.2724 64.5964 54.1161 64.3536 53.9737 64.1164C53.8314 63.8791 53.6946 63.6419 53.5467 63.4018C53.3764 63.1004 53.2006 62.7963 53.0331 62.4893C52.9327 62.3051 52.835 62.1181 52.7373 61.9311C52.6396 61.7441 52.5224 61.5207 52.4191 61.3141C52.3884 61.2471 52.3493 61.1774 52.3186 61.1077C52.207 60.8816 52.0925 60.6527 51.9865 60.4238C51.8804 60.1949 51.766 59.9493 51.6599 59.7093L51.6264 59.6284C51.5204 59.3828 51.4115 59.1372 51.311 58.8916C51.1026 58.3892 50.9035 57.8812 50.7138 57.3677C50.6998 57.323 50.683 57.2783 50.6663 57.2337C50.5798 56.9992 50.4961 56.762 50.4179 56.5247V56.5024L50.1583 55.7042C50.0718 55.4251 49.9881 55.1599 49.9127 54.8864C49.8374 54.6128 49.7564 54.3448 49.6866 54.0741C49.6169 53.8034 49.5303 53.4825 49.4578 53.1866C49.3852 52.8908 49.3378 52.6563 49.2791 52.3912C49.2205 52.126 49.1759 51.925 49.134 51.6878C49.112 51.6031 49.0943 51.5175 49.081 51.431C49.0335 51.1882 48.9889 50.9398 48.947 50.6942C48.8689 50.242 48.8047 49.7871 48.7405 49.3322C48.7405 49.3015 48.7405 49.2735 48.7405 49.2428C48.7237 49.1199 48.707 48.9972 48.693 48.8744C48.6707 48.6985 48.6539 48.5227 48.6316 48.3468C48.6316 48.2156 48.6065 48.0845 48.5953 47.9561C48.5842 47.8277 48.559 47.6128 48.5479 47.4397C48.5479 47.3727 48.5479 47.303 48.5311 47.236C55.5874 47.8007 62.3509 50.3016 68.0771 54.4633C73.8033 58.625 78.2701 64.2862 80.9857 70.8234H72.1464L83.693 82.3086L83.8075 82.4258L83.8158 82.4343ZM124.948 47.3923C124.948 47.5653 124.92 47.7384 124.9 47.9087C124.881 48.0789 124.878 48.1682 124.861 48.2994C124.842 48.4752 124.825 48.6511 124.803 48.827C124.786 48.9498 124.769 49.0725 124.755 49.1953C124.727 49.4158 124.694 49.6336 124.663 49.8541C124.621 50.1193 124.582 50.3844 124.535 50.6467C124.507 50.8282 124.471 51.0096 124.437 51.1882C124.415 51.3082 124.395 51.4254 124.373 51.5454C124.373 51.604 124.348 51.6654 124.337 51.724C124.292 51.9334 124.25 52.1427 124.203 52.352L124.186 52.4359C124.133 52.6731 124.077 52.9103 124.024 53.1475C123.949 53.4462 123.873 53.742 123.795 54.0379C123.745 54.236 123.692 54.4342 123.63 54.6323C123.594 54.7747 123.552 54.9115 123.505 55.065C123.445 55.266 123.384 55.4668 123.321 55.6678C123.251 55.8967 123.175 56.1256 123.1 56.3517C123.005 56.6308 122.908 56.9099 122.804 57.189C122.757 57.3257 122.704 57.4681 122.651 57.6021C122.494 58.0235 122.33 58.4394 122.157 58.8553C122.053 59.1037 121.947 59.3492 121.841 59.5921C121.766 59.7623 121.691 59.9299 121.61 60.1001C121.529 60.2704 121.495 60.3541 121.437 60.4797L121.244 60.8816C121.18 61.0155 121.116 61.1467 121.046 61.2779C120.884 61.6016 120.719 61.9226 120.546 62.2436C120.437 62.4445 120.331 62.6455 120.22 62.8436C119.848 63.5042 119.457 64.1554 119.048 64.7974C118.902 65.0262 118.768 65.2524 118.604 65.4785C118.266 65.9809 117.917 66.4721 117.557 66.9577C117.417 67.1503 117.278 67.3401 117.127 67.5159C117.105 67.5494 117.08 67.5801 117.057 67.6108L116.611 68.169C116.424 68.4035 116.231 68.638 116.033 68.8696C115.91 69.0176 115.785 69.1488 115.662 69.3051C115.327 69.6902 114.986 70.067 114.638 70.4354C114.523 70.5582 114.406 70.6782 114.289 70.7982C114.171 70.9182 114.04 71.0523 113.918 71.1779C113.873 71.2253 113.825 71.2728 113.778 71.3174C113.638 71.4607 113.493 71.603 113.343 71.7444C113.267 71.8197 113.186 71.8951 113.105 71.9705C113.024 72.0458 112.865 72.1993 112.742 72.3138C112.62 72.4282 112.575 72.47 112.486 72.5426C112.36 72.6626 112.232 72.7771 112.103 72.8887C111.917 73.0562 111.731 73.2209 111.545 73.3828C111.406 73.5028 111.266 73.62 111.126 73.7317C110.987 73.8433 110.886 73.9326 110.766 74.0247C110.749 74.0437 110.729 74.0606 110.708 74.075C110.504 74.2396 110.306 74.3987 110.102 74.5522L110.055 74.5885L109.427 75.0601H109.41C109.195 75.222 108.969 75.3812 108.748 75.5347C108.528 75.6882 108.24 75.8891 107.981 76.0594C107.543 76.3552 107.102 76.6372 106.65 76.9107C106.415 77.0559 106.172 77.1898 105.929 77.3377C105.687 77.4856 105.447 77.6168 105.201 77.7508C104.955 77.8847 104.746 78.002 104.514 78.122L104.445 78.1583C104.207 78.2866 103.962 78.4095 103.713 78.5295C103.465 78.6495 103.208 78.7779 102.957 78.8951C102.706 79.0124 102.533 79.0933 102.323 79.1742C102.254 79.2105 102.178 79.2413 102.106 79.272C101.874 79.3752 101.648 79.4729 101.416 79.5678C101.185 79.6627 100.939 79.7632 100.699 79.8469L100.543 79.9083C100.353 79.9836 100.166 80.0535 99.9845 80.1205C99.8868 80.1567 99.7919 80.1929 99.7054 80.2236C99.5295 80.2906 99.3509 80.3521 99.1751 80.4107C99.083 80.447 98.9853 80.4776 98.896 80.5083C98.7369 80.5669 98.5722 80.62 98.4103 80.6675C98.2484 80.7149 98.1312 80.7539 98.0112 80.793C97.8912 80.8321 97.6791 80.8963 97.5088 80.9437C97.4418 80.9661 97.3748 80.9856 97.3051 81.0023C97.0846 81.0693 96.8641 81.1308 96.638 81.1866C96.6082 81.1979 96.5773 81.2063 96.5459 81.2117C96.2947 81.2787 96.0351 81.3457 95.7811 81.4071C95.502 81.4741 95.2229 81.5355 94.9438 81.5969C94.6647 81.6583 94.3856 81.7197 94.1065 81.7728C93.4701 81.8993 92.83 82.0072 92.1862 82.0966L91.5331 82.183C91.254 82.2192 90.9526 82.25 90.6623 82.2807C90.3721 82.3114 90.0818 82.3366 89.7859 82.3589H89.6799L89.7943 82.2416L101.327 70.7089H92.5212C95.2344 64.174 99.698 58.5143 105.421 54.3527C111.143 50.1911 117.903 47.6889 124.956 47.1216L124.948 47.3923ZM125.04 41.266H114.358L125.04 30.5817V41.266ZM125.082 22.3341L103.295 44.1212L100.336 47.0714H106.105C99.2367 51.0047 93.5423 56.7 89.6101 63.5693C88.4877 65.5302 87.5182 67.5747 86.7102 69.6846C85.9011 67.5746 84.9307 65.5301 83.8075 63.5693C79.8753 56.7 74.1809 51.0047 67.3122 47.0714H73.0423L70.0949 44.1212L48.3441 22.376V5.90867C68.1356 7.39631 83.7907 23.9586 83.8075 44.1157H89.6185C89.6464 23.9586 105.293 7.39631 125.082 5.90867V22.3341Z" fill="#F9543B"/>
<path d="M11.181 108.179C10.3115 107.636 9.3036 107.355 8.2783 107.37C7.22914 107.353 6.19327 107.606 5.26954 108.104C4.80165 108.36 4.37457 108.685 4.00238 109.067V107.671H0V122.428H4.00238V113.965C3.99025 113.421 4.12115 112.883 4.38198 112.405C4.62979 111.967 4.99526 111.607 5.437 111.366C5.90699 111.118 6.43215 110.992 6.96372 111.001C7.35826 110.981 7.75261 111.044 8.12131 111.186C8.49 111.328 8.82482 111.545 9.10416 111.825C9.3835 112.104 9.60114 112.439 9.74302 112.807C9.8849 113.176 9.94786 113.57 9.92784 113.965V122.428H13.9302V113.078C13.9353 112.099 13.6831 111.137 13.199 110.286C12.7128 109.427 12.0191 108.702 11.181 108.179Z" fill="#F9543B"/>
<path d="M28.1234 108.363C26.8879 107.691 25.5038 107.339 24.0972 107.339C22.6907 107.339 21.3066 107.691 20.0711 108.363C18.9009 109.017 17.9215 109.964 17.2298 111.112C16.5465 112.302 16.1882 113.65 16.1912 115.022C16.1941 116.394 16.5581 117.741 17.2466 118.927C17.9348 120.089 18.9141 121.051 20.0879 121.718C21.3209 122.389 22.7021 122.74 24.1056 122.74C25.5091 122.74 26.8903 122.389 28.1234 121.718C29.3075 121.049 30.2906 120.075 30.9704 118.897C31.6502 117.719 32.002 116.38 31.989 115.02C32.0108 113.646 31.6504 112.293 30.9479 111.112C30.2604 109.967 29.2871 109.02 28.1234 108.363ZM27.42 117.102C27.115 117.687 26.6479 118.171 26.0747 118.498C25.465 118.842 24.7738 119.017 24.0735 119.003C23.3884 119.016 22.7128 118.841 22.1198 118.498C21.5509 118.166 21.0853 117.683 20.7745 117.102C20.4405 116.467 20.2724 115.757 20.286 115.039C20.2706 114.326 20.4388 113.621 20.7745 112.991C21.0881 112.412 21.5531 111.93 22.1198 111.595C22.7136 111.254 23.3888 111.08 24.0735 111.093C24.7691 111.078 25.4558 111.252 26.0608 111.595C26.6275 111.93 27.0925 112.412 27.4061 112.991C27.7408 113.621 27.9089 114.326 27.8945 115.039C27.9073 115.755 27.7443 116.464 27.42 117.102Z" fill="#F9543B"/>
<path d="M40.4096 117.024L36.8147 107.677H32.416L38.9248 122.433H41.794L48.2721 107.677H44.0241L40.4096 117.024Z" fill="#F9543B"/>
<path d="M60.1253 109.103C59.7125 108.662 59.2273 108.296 58.6907 108.02C57.8085 107.582 56.8342 107.362 55.8494 107.378C54.5689 107.363 53.3106 107.713 52.221 108.385C51.1423 109.057 50.2656 110.008 49.6839 111.137C49.0818 112.358 48.7686 113.702 48.7686 115.063C48.7686 116.424 49.0818 117.768 49.6839 118.989C50.2657 120.117 51.1424 121.067 52.221 121.738C53.31 122.412 54.5687 122.761 55.8494 122.745C56.8359 122.762 57.8115 122.537 58.6907 122.089C59.2264 121.808 59.7114 121.44 60.1253 120.998V122.441H64.097V107.685H60.1253V109.103ZM59.288 117.934C58.9413 118.304 58.5191 118.595 58.0501 118.787C57.5811 118.98 57.0761 119.07 56.5695 119.05C55.8841 119.065 55.2079 118.89 54.6157 118.545C54.0558 118.212 53.6004 117.728 53.3011 117.149C52.9761 116.5 52.8142 115.782 52.8294 115.056C52.8151 114.34 52.9771 113.632 53.3011 112.993C53.6015 112.415 54.0566 111.932 54.6157 111.598C55.2081 111.253 55.8843 111.079 56.5695 111.096C57.2599 111.079 57.9416 111.253 58.54 111.598C59.0991 111.932 59.5542 112.415 59.8546 112.993C60.1795 113.632 60.3425 114.34 60.329 115.056C60.3731 116.109 60.0068 117.137 59.3075 117.925L59.288 117.934Z" fill="#F9543B"/>
<path d="M76.4255 118.66C75.8505 118.901 75.2319 119.02 74.6085 119.011C73.9182 119.023 73.2374 118.849 72.638 118.506C72.06 118.176 71.584 117.693 71.262 117.111C70.9192 116.478 70.7452 115.767 70.7568 115.048C70.739 114.328 70.9134 113.616 71.262 112.985C71.5905 112.413 72.0654 111.938 72.638 111.609C73.2381 111.269 73.9186 111.095 74.6085 111.107C75.2202 111.1 75.8273 111.214 76.3948 111.442C76.9271 111.659 77.404 111.993 77.7903 112.419L80.3553 109.823C79.6536 109.035 78.7888 108.409 77.821 107.989C76.8083 107.555 75.7161 107.336 74.6141 107.347C73.1978 107.329 71.8013 107.682 70.5642 108.372C69.3668 109.028 68.3712 109.999 67.685 111.179C66.9989 112.36 66.6481 113.705 66.6707 115.07C66.6506 116.428 67.0012 117.766 67.6848 118.939C68.3684 120.113 69.3591 121.078 70.5503 121.73C71.7943 122.413 73.1949 122.761 74.6141 122.737C75.7162 122.75 76.8088 122.532 77.821 122.095C78.8066 121.663 79.6907 121.029 80.4167 120.234L77.821 117.635C77.44 118.079 76.9627 118.429 76.4255 118.66Z" fill="#F9543B"/>
<path d="M93.2875 108.363C92.0525 107.691 90.6688 107.339 89.2628 107.339C87.8567 107.339 86.473 107.691 85.238 108.363C84.0672 109.016 83.0876 109.964 82.3967 111.113C81.6951 112.294 81.3357 113.646 81.3584 115.02C81.341 116.4 81.7051 117.758 82.4107 118.944C83.0997 120.105 84.0789 121.067 85.252 121.735C86.4851 122.406 87.8662 122.757 89.2697 122.757C90.6732 122.757 92.0544 122.406 93.2875 121.735C94.4596 121.071 95.435 120.108 96.1148 118.944C96.8121 117.755 97.1712 116.398 97.1531 115.02C97.1759 113.646 96.8164 112.294 96.1148 111.113C95.4262 109.967 94.452 109.02 93.2875 108.363ZM92.5869 117.102C92.2811 117.686 91.8142 118.171 91.2416 118.498C90.6319 118.842 89.9407 119.017 89.2404 119.003C88.5554 119.015 87.8799 118.84 87.2867 118.498C86.7186 118.166 86.2538 117.683 85.9442 117.102C85.6101 116.467 85.4421 115.757 85.4557 115.04C85.4403 114.326 85.6085 113.621 85.9442 112.991C86.2563 112.412 86.7205 111.93 87.2867 111.595C87.8807 111.255 88.5558 111.081 89.2404 111.093C89.9352 111.078 90.621 111.251 91.2249 111.595C91.7916 111.93 92.2566 112.412 92.5702 112.991C92.9058 113.621 93.074 114.326 93.0586 115.04C93.0723 115.755 92.9104 116.464 92.5869 117.102Z" fill="#F9543B"/>
<path d="M110.903 108.179C110.033 107.636 109.025 107.355 108 107.37C106.951 107.352 105.914 107.605 104.991 108.104C104.523 108.361 104.095 108.685 103.721 109.067V107.671H99.7188V122.428H103.721V113.965C103.71 113.421 103.842 112.883 104.104 112.405C104.35 111.966 104.716 111.606 105.159 111.367C105.628 111.118 106.154 110.992 106.685 111.001C107.08 110.981 107.474 111.045 107.842 111.187C108.211 111.329 108.545 111.546 108.825 111.826C109.104 112.105 109.322 112.44 109.464 112.808C109.606 113.177 109.669 113.571 109.649 113.965V122.428H113.652V113.078C113.656 112.099 113.403 111.136 112.918 110.287C112.433 109.427 111.74 108.702 110.903 108.179Z" fill="#F9543B"/>
<path d="M128.073 108.179C127.203 107.636 126.195 107.355 125.17 107.37C124.12 107.353 123.083 107.606 122.159 108.104C121.691 108.36 121.264 108.685 120.892 109.067V107.671H116.889V122.428H120.892V113.965C120.88 113.42 121.012 112.883 121.274 112.405C121.52 111.966 121.886 111.606 122.329 111.367C122.799 111.118 123.324 110.992 123.856 111.001C124.25 110.981 124.644 111.045 125.013 111.187C125.381 111.329 125.716 111.546 125.995 111.826C126.274 112.105 126.492 112.439 126.634 112.808C126.776 113.176 126.839 113.571 126.82 113.965V122.428H130.822V113.078C130.826 112.099 130.573 111.136 130.088 110.286C129.603 109.427 128.91 108.702 128.073 108.179Z" fill="#F9543B"/>
<path d="M144.617 108.302C143.47 107.645 142.165 107.312 140.843 107.339C139.489 107.323 138.154 107.664 136.972 108.326C135.79 108.988 134.802 109.949 134.109 111.113C133.581 111.995 133.237 112.976 133.097 113.994C132.957 115.013 133.024 116.05 133.294 117.042C133.563 118.035 134.03 118.962 134.667 119.77C135.303 120.578 136.096 121.249 136.997 121.744C138.264 122.424 139.685 122.766 141.123 122.737C142.271 122.75 143.41 122.531 144.472 122.095C145.482 121.683 146.378 121.034 147.084 120.203L144.731 117.85C144.297 118.349 143.754 118.741 143.143 118.995C142.494 119.258 141.798 119.388 141.097 119.377C140.33 119.393 139.571 119.21 138.895 118.844C138.269 118.491 137.765 117.958 137.447 117.314C137.313 117.047 137.209 116.766 137.134 116.477L147.91 116.449C147.984 116.142 148.04 115.831 148.078 115.517C148.108 115.248 148.123 114.978 148.123 114.707C148.145 113.39 147.823 112.09 147.19 110.934C146.586 109.84 145.697 108.931 144.617 108.302ZM138.756 111.205C139.385 110.837 140.104 110.651 140.832 110.669C141.5 110.648 142.161 110.812 142.741 111.143C143.267 111.466 143.682 111.939 143.933 112.503C144.071 112.808 144.175 113.127 144.246 113.454L137.115 113.477C137.182 113.21 137.276 112.95 137.394 112.701C137.694 112.078 138.172 111.557 138.767 111.205H138.756Z" fill="#F9543B"/>
<path d="M159.372 118.66C158.797 118.901 158.179 119.021 157.555 119.011C156.865 119.023 156.184 118.849 155.585 118.506C155.007 118.176 154.531 117.693 154.209 117.111C153.866 116.478 153.692 115.768 153.704 115.048C153.686 114.328 153.86 113.616 154.209 112.986C154.542 112.413 155.022 111.94 155.599 111.615C156.199 111.275 156.879 111.101 157.569 111.113C158.181 111.106 158.788 111.219 159.355 111.448C159.888 111.665 160.365 111.999 160.751 112.424L163.316 109.829C162.614 109.041 161.75 108.415 160.782 107.995C159.769 107.56 158.677 107.342 157.575 107.353C156.158 107.334 154.762 107.688 153.525 108.377C152.345 109.03 151.36 109.985 150.67 111.143C150.142 112.022 149.797 112.997 149.655 114.012C149.513 115.027 149.576 116.059 149.841 117.049C150.106 118.039 150.568 118.965 151.198 119.772C151.829 120.58 152.615 121.252 153.511 121.749C154.755 122.433 156.156 122.78 157.575 122.757C158.677 122.77 159.769 122.551 160.782 122.115C161.767 121.682 162.651 121.048 163.377 120.254L160.782 117.655C160.395 118.093 159.913 118.437 159.372 118.66Z" fill="#F9543B"/>
<path d="M175 107.677H171.547V101.536H167.545V107.677H164.092V111.191H167.545V122.433H171.547V111.191H175V107.677Z" fill="#F9543B"/>
</svg>
