<svg width="76" height="76" viewBox="0 0 76 76" fill="none" xmlns="http://www.w3.org/2000/svg">
<path d="M75.5 0.5H73.0376C57.0635 0.5 43.3907 10.5372 37.9965 24.6342C32.6022 10.5372 18.9271 0.5 2.95299 0.5H0.5V14.571L0.568726 35.5411V40.4708C1.79167 59.1941 16.813 74.2106 35.5316 75.4312C36.3469 75.4849 37.1685 75.5119 37.9965 75.5119C38.8244 75.5119 39.6452 75.4849 40.4589 75.4312C59.1823 74.213 74.2012 59.1941 75.4218 40.4708C75.4408 40.1864 75.4574 39.8996 75.4669 39.6128V35.5529H75.5V0.5ZM5.41784 26.4685L14.4833 35.5529H5.41784V26.4685ZM35.5316 70.4993H35.4392C35.2022 70.4803 34.9415 70.4565 34.695 70.4328C34.4485 70.4091 34.2044 70.3807 33.9579 70.3499L33.4033 70.2764C32.8558 70.2005 32.3131 70.1082 31.7703 70.0015C31.5333 69.9565 31.2963 69.9068 31.0593 69.8522C30.8223 69.7977 30.5853 69.7479 30.3483 69.691C30.1303 69.6389 29.9122 69.582 29.6966 69.5251L29.6183 69.5038C29.4287 69.4564 29.2415 69.4042 29.0543 69.3473C28.995 69.3331 28.9358 69.3165 28.8813 69.2976C28.7391 69.2573 28.5945 69.2146 28.4523 69.1696C28.3101 69.1245 28.2295 69.1009 28.1157 69.063C28.002 69.0251 27.8385 68.9776 27.701 68.9278C27.6228 68.9018 27.5398 68.8758 27.464 68.845C27.3218 68.7999 27.1748 68.7478 27.0303 68.6933C26.926 68.6585 26.8217 68.6206 26.7174 68.5795C26.6131 68.5384 26.4946 68.4933 26.3619 68.4443C26.2742 68.4135 26.1842 68.378 26.0965 68.3401C25.9187 68.2737 25.7457 68.2026 25.5727 68.1315L25.4945 68.096C25.3215 68.0249 25.1485 67.9514 24.9754 67.8732C24.8877 67.8377 24.8048 67.8021 24.7195 67.7618C24.5678 67.6954 24.4185 67.6243 24.2692 67.5556L24.191 67.5177C23.9895 67.4253 23.7904 67.3305 23.5937 67.231C23.397 67.1314 23.1789 67.0247 22.9751 66.9157L22.9159 66.8849C22.7192 66.783 22.5272 66.6787 22.3305 66.5697C22.1337 66.4607 21.9157 66.3327 21.7119 66.2189C20.8919 65.7449 20.0931 65.233 19.3229 64.6879C19.1783 64.5907 19.0408 64.4911 18.901 64.3892C18.4531 64.0622 18.0123 63.7233 17.5833 63.3749C17.4861 63.3014 17.3913 63.2232 17.2989 63.1379C17.2064 63.0526 17.0619 62.9435 16.9457 62.8416C16.7846 62.7042 16.621 62.5643 16.4717 62.4221C16.3627 62.325 16.2537 62.2301 16.1494 62.1282C16.0759 62.0642 16.0024 62.0003 15.9313 61.9339L15.6493 61.6684C15.5474 61.5736 15.4479 61.4764 15.346 61.3769C15.1919 61.2252 15.0331 61.0736 14.8719 60.9171C14.7819 60.8294 14.6942 60.737 14.6089 60.6469C14.5236 60.5569 14.4122 60.4431 14.3126 60.3389C14.0172 60.0229 13.7272 59.7028 13.4428 59.3789C13.3362 59.258 13.2319 59.142 13.1276 59.0093L12.9593 58.8101C12.8479 58.6774 12.7389 58.5448 12.6346 58.412C12.5303 58.2793 12.3834 58.0968 12.2578 57.938C12.2388 57.91 12.2182 57.8831 12.1962 57.8574L11.8312 57.3834C11.67 57.1653 11.5136 56.9473 11.3572 56.7245L10.9732 56.1652L10.9472 56.1273C10.8192 55.9353 10.6912 55.7409 10.5679 55.5466C10.4447 55.3522 10.312 55.146 10.1911 54.9446C10.0702 54.7431 9.9541 54.5417 9.82849 54.3378C9.68391 54.0819 9.53461 53.8236 9.39241 53.5629C9.30709 53.4065 9.22413 53.2477 9.14118 53.0889C9.05823 52.9301 8.95869 52.7404 8.87099 52.565C8.84492 52.5082 8.81175 52.449 8.78568 52.3897C8.69087 52.1977 8.5937 52.0034 8.50364 51.809C8.41358 51.6147 8.3164 51.4061 8.22633 51.2023L8.1979 51.1336C8.10783 50.9251 8.0154 50.7165 7.93008 50.5079C7.75312 50.0813 7.58406 49.65 7.4229 49.2139C7.41105 49.176 7.39682 49.138 7.3826 49.1001C7.30913 48.901 7.23804 48.6996 7.17168 48.4981V48.4791L6.95125 47.8013C6.87778 47.5643 6.80669 47.3391 6.7427 47.1069C6.67871 46.8746 6.60998 46.6471 6.55073 46.4172C6.49148 46.1873 6.418 45.9148 6.35638 45.6636C6.29476 45.4123 6.25447 45.2132 6.2047 44.9881C6.15492 44.7629 6.117 44.5923 6.08145 44.3908C6.0628 44.3189 6.04777 44.2462 6.03642 44.1728C5.99613 43.9666 5.95821 43.7556 5.92266 43.5471C5.8563 43.1631 5.80179 42.7768 5.74728 42.3905C5.74728 42.3644 5.74728 42.3407 5.74728 42.3146C5.73306 42.2103 5.71883 42.1061 5.70698 42.0018C5.68802 41.8525 5.6738 41.7031 5.65484 41.5538C5.65484 41.4424 5.63351 41.3311 5.62403 41.222C5.61455 41.113 5.59323 40.9305 5.58375 40.7836C5.58375 40.7267 5.58375 40.6674 5.56953 40.6106C11.5613 41.0901 17.3046 43.2138 22.167 46.7477C27.0295 50.2816 30.8224 55.0888 33.1284 60.6399H25.6225L35.4273 70.3926L35.5245 70.4921L35.5316 70.4993ZM70.4589 40.7433C70.4589 40.8902 70.4352 41.0372 70.4186 41.1818C70.4021 41.3263 70.3997 41.4022 70.3855 41.5136C70.3689 41.6629 70.3547 41.8122 70.3357 41.9615C70.3215 42.0658 70.3072 42.1701 70.2954 42.2743C70.2717 42.4616 70.2433 42.6465 70.2172 42.8337C70.1816 43.0589 70.1484 43.284 70.1082 43.5068C70.0845 43.6609 70.0536 43.8149 70.0252 43.9666C70.0062 44.0685 69.9897 44.168 69.9707 44.2699C69.9707 44.3197 69.9494 44.3718 69.9399 44.4216C69.902 44.5994 69.8664 44.7771 69.8261 44.9549L69.8119 45.026C69.7669 45.2275 69.7195 45.4289 69.6744 45.6304C69.6105 45.8839 69.5465 46.1352 69.4801 46.3864C69.4375 46.5547 69.3924 46.7229 69.3403 46.8912C69.3094 47.012 69.2739 47.1282 69.2336 47.2586C69.1831 47.4292 69.1309 47.5998 69.0772 47.7705C69.0179 47.9648 68.954 48.1592 68.89 48.3512C68.8094 48.5882 68.7264 48.8252 68.6387 49.0622C68.5984 49.1783 68.5534 49.2992 68.5084 49.4129C68.3757 49.7708 68.2358 50.124 68.0889 50.4771C68.0012 50.6881 67.9111 50.8965 67.8211 51.1027C67.7571 51.2473 67.6931 51.3896 67.6244 51.5342C67.5556 51.6787 67.5272 51.7498 67.4774 51.8565L67.3139 52.1977C67.2594 52.3115 67.2048 52.4229 67.1456 52.5343C67.0081 52.8092 66.8683 53.0817 66.7214 53.3543C66.629 53.5249 66.5389 53.6955 66.4441 53.8638C66.1281 54.4247 65.7963 54.9777 65.4487 55.5229C65.3254 55.7172 65.2116 55.9093 65.0718 56.1012C64.785 56.5279 64.4888 56.9449 64.183 57.3573C64.0645 57.5209 63.9461 57.682 63.8181 57.8313C63.7991 57.8598 63.7778 57.8858 63.7588 57.9119L63.3796 58.3859C63.2208 58.585 63.0573 58.7841 62.889 58.9808C62.7847 59.1064 62.6781 59.2178 62.5738 59.3506C62.2894 59.6776 61.9995 59.9975 61.704 60.3104C61.6068 60.4147 61.5073 60.5165 61.4077 60.6184C61.3082 60.7204 61.1968 60.8342 61.0925 60.9409C61.0546 60.9811 61.0143 61.0214 60.974 61.0594C60.8555 61.181 60.7323 61.3018 60.6043 61.4219C60.5403 61.4859 60.4716 61.5499 60.4028 61.6139C60.3341 61.6779 60.199 61.8083 60.0947 61.9054C59.9904 62.0026 59.9525 62.0381 59.8767 62.0997C59.77 62.2016 59.661 62.2989 59.552 62.3937C59.394 62.5359 59.236 62.6757 59.078 62.8132C58.9595 62.9151 58.841 63.0146 58.7225 63.1094C58.604 63.2042 58.5187 63.28 58.4167 63.3582C58.4019 63.3744 58.3852 63.3887 58.367 63.4009C58.194 63.5408 58.0257 63.6758 57.8527 63.8062L57.8124 63.837L57.2791 64.2375H57.2649C57.0824 64.375 56.8904 64.5101 56.7032 64.6405C56.516 64.7708 56.2719 64.9414 56.0514 65.086C55.6793 65.3372 55.3049 65.5767 54.9209 65.8089C54.7218 65.9322 54.5156 66.0459 54.3095 66.1715C54.1033 66.2971 53.8994 66.4085 53.6909 66.5223C53.4823 66.636 53.3046 66.7356 53.1078 66.8375L53.0486 66.8683C52.8471 66.9773 52.6386 67.0816 52.4276 67.1835C52.2167 67.2854 51.9987 67.3945 51.7854 67.494C51.5721 67.5935 51.4251 67.6623 51.2474 67.731C51.1881 67.7618 51.1241 67.7879 51.0625 67.814C50.8658 67.9017 50.6738 67.9846 50.4771 68.0652C50.2804 68.1458 50.0718 68.2311 49.868 68.3022L49.7353 68.3543C49.5741 68.4183 49.4153 68.4776 49.2613 68.5345C49.1783 68.5653 49.0977 68.596 49.0243 68.6221C48.8749 68.679 48.7233 68.7312 48.574 68.781C48.4958 68.8118 48.4128 68.8378 48.337 68.8638C48.2019 68.9136 48.062 68.9587 47.9246 68.999C47.7871 69.0393 47.6876 69.0724 47.5856 69.1056C47.4837 69.1388 47.3036 69.1933 47.159 69.2336C47.1022 69.2525 47.0453 69.2691 46.986 69.2833C46.7988 69.3402 46.6116 69.3924 46.4196 69.4398C46.3943 69.4494 46.3681 69.4565 46.3414 69.4611C46.1281 69.518 45.9077 69.5749 45.692 69.627C45.455 69.6839 45.218 69.7361 44.981 69.7882C44.744 69.8404 44.507 69.8925 44.27 69.9375C43.7296 70.045 43.1861 70.1367 42.6394 70.2125L42.0848 70.2859C41.8478 70.3167 41.5918 70.3428 41.3453 70.3688C41.0988 70.3949 40.8524 70.4163 40.6011 70.4353H40.5111L40.6082 70.3356L50.4013 60.5426H42.9238C45.2278 54.9935 49.018 50.1875 53.8774 46.6537C58.7368 43.1199 64.4769 40.9952 70.466 40.5135L70.4589 40.7433ZM70.5371 35.5411H61.467L70.5371 26.4685V35.5411ZM70.5727 19.4651L52.0721 37.9657L49.5599 40.4708H54.4588C48.6262 43.8108 43.7909 48.647 40.4518 54.4801C39.4988 56.1451 38.6755 57.8812 37.9893 59.6729C37.3024 57.8812 36.4783 56.1451 35.5245 54.4801C32.1855 48.647 27.3501 43.8108 21.5175 40.4708H26.3832L23.8805 37.9657L5.41072 19.5006V5.51736C22.2167 6.7806 35.5103 20.8445 35.5245 37.9609H40.4589C40.4826 20.8445 53.7691 6.7806 70.5727 5.51736V19.4651Z" fill="#F9543B"/>
</svg>
