<svg width="125" height="108" viewBox="0 0 125 108" fill="none" xmlns="http://www.w3.org/2000/svg">
<path fill-rule="evenodd" clip-rule="evenodd" d="M80.1869 101.982C80.2086 102.764 80.0722 103.543 79.7856 104.272C79.499 105.001 79.0681 105.666 78.5184 106.227C77.9687 106.788 77.3113 107.234 76.5851 107.539C75.8588 107.843 75.0785 108 74.2901 108C73.5018 108 72.7215 107.843 71.9952 107.539C71.269 107.234 70.6116 106.788 70.0619 106.227C69.5122 105.666 69.0813 105.001 68.7947 104.272C68.5081 103.543 68.3717 102.764 68.3934 101.982V57.2972C68.3934 55.745 67.7724 54.2565 66.6669 53.159C65.5615 52.0615 64.0622 51.4449 62.4989 51.4449C60.9356 51.4449 59.4363 52.0615 58.3308 53.159C57.2254 54.2565 56.6044 55.745 56.6044 57.2972V91.384C56.6261 92.1664 56.4896 92.9452 56.203 93.6743C55.9165 94.4035 55.4856 95.0682 54.9359 95.6292C54.3862 96.1902 53.7288 96.6361 53.0025 96.9406C52.2763 97.2451 51.4959 97.402 50.7076 97.402C49.9193 97.402 49.1389 97.2451 48.4127 96.9406C47.6864 96.6361 47.0291 96.1902 46.4793 95.6292C45.9296 95.0682 45.4988 94.4035 45.2122 93.6743C44.9256 92.9452 44.7891 92.1664 44.8109 91.384V6.01798C44.7891 5.23559 44.9256 4.45681 45.2122 3.72767C45.4988 2.99853 45.9296 2.33382 46.4793 1.77281C47.0291 1.2118 47.6864 0.765868 48.4127 0.461375C49.1389 0.156881 49.9193 0 50.7076 0C51.4959 0 52.2763 0.156881 53.0025 0.461375C53.7288 0.765868 54.3862 1.2118 54.9359 1.77281C55.4856 2.33382 55.9165 2.99853 56.203 3.72767C56.4896 4.45681 56.6261 5.23559 56.6044 6.01798V39.6783C56.6044 41.2304 57.2254 42.7189 58.3308 43.8164C59.4363 44.9139 60.9356 45.5305 62.4989 45.5305C64.0622 45.5305 65.5615 44.9139 66.6669 43.8164C67.7724 42.7189 68.3934 41.2304 68.3934 39.6783V14.6119C68.3717 13.8295 68.5081 13.0507 68.7947 12.3216C69.0813 11.5925 69.5122 10.9277 70.0619 10.3667C70.6116 9.80572 71.269 9.3598 71.9952 9.0553C72.7215 8.75081 73.5018 8.59393 74.2901 8.59393C75.0785 8.59393 75.8588 8.75081 76.5851 9.0553C77.3113 9.3598 77.9687 9.80572 78.5184 10.3667C79.0681 10.9277 79.499 11.5925 79.7856 12.3216C80.0722 13.0507 80.2086 13.8295 80.1869 14.6119V101.982ZM0 45.806V62.1984C0.0423154 63.7232 0.682141 65.1714 1.78338 66.2351C2.88462 67.2987 4.36038 67.8938 5.89676 67.8938C7.43313 67.8938 8.90889 67.2987 10.0101 66.2351C11.1114 65.1714 11.7512 63.7232 11.7935 62.1984V45.806C11.7935 44.2539 11.1725 42.7654 10.067 41.6678C8.96161 40.5703 7.46231 39.9538 5.89899 39.9538C4.33526 39.9538 2.8355 40.5702 1.72936 41.6676C0.62321 42.765 0.00118645 44.2535 0 45.806ZM90.7988 31.7598V96.1476C90.7771 96.93 90.9136 97.7087 91.2001 98.4379C91.4867 99.167 91.9176 99.8317 92.4673 100.393C93.017 100.954 93.6744 101.4 94.4007 101.704C95.1269 102.009 95.9072 102.166 96.6956 102.166C97.4839 102.166 98.2643 102.009 98.9905 101.704C99.7167 101.4 100.374 100.954 100.924 100.393C101.474 99.8317 101.904 99.167 102.191 98.4379C102.478 97.7087 102.614 96.93 102.592 96.1476V31.7598C102.592 30.2073 101.971 28.7183 100.866 27.62C99.7608 26.5218 98.2616 25.9043 96.6978 25.9031C95.1333 25.9031 93.6329 26.5201 92.5266 27.6185C91.4203 28.7168 90.7988 30.2065 90.7988 31.7598ZM22.4054 18.8733V72.7298C22.4477 74.2546 23.0876 75.7028 24.1888 76.7664C25.29 77.83 26.7658 78.4251 28.3022 78.4251C29.8386 78.4251 31.3143 77.83 32.4156 76.7664C33.5168 75.7028 34.1566 74.2546 34.1989 72.7298V18.8778C34.1978 17.3252 33.5757 15.8367 32.4696 14.7393C31.3634 13.642 29.8637 13.0255 28.2999 13.0255C26.7366 13.0255 25.2373 13.6421 24.1319 14.7396C23.0265 15.8371 22.4054 17.3257 22.4054 18.8778V18.8733ZM113.204 37.612V56.3418C113.183 57.1242 113.319 57.9029 113.606 58.6321C113.892 59.3612 114.323 60.0259 114.873 60.5869C115.422 61.148 116.08 61.5939 116.806 61.8984C117.532 62.2029 118.313 62.3598 119.101 62.3598C119.889 62.3598 120.67 62.2029 121.396 61.8984C122.122 61.5939 122.78 61.148 123.329 60.5869C123.879 60.0259 124.31 59.3612 124.596 58.6321C124.883 57.9029 125.019 57.1242 124.998 56.3418V37.612C124.998 36.0599 124.377 34.5713 123.271 33.4738C122.166 32.3763 120.667 31.7598 119.103 31.7598C118.329 31.7592 117.562 31.9101 116.846 32.204C116.13 32.4978 115.48 32.9288 114.932 33.4723C114.384 34.0158 113.95 34.6611 113.653 35.3714C113.357 36.0817 113.204 36.8431 113.204 37.612Z" fill="white"/>
</svg>
