<svg width="138" height="30" viewBox="0 0 138 30" fill="none" xmlns="http://www.w3.org/2000/svg">
<path d="M29.9953 0H29.0104C22.6218 0 17.1536 4.01423 14.9962 9.65214C12.8389 4.01423 7.36967 0 0.98104 0H0V5.6275L0.0274861 14.0142V15.9858C0.516586 23.4739 6.52417 29.4796 14.0104 29.9677C14.3365 29.9892 14.6651 30 14.9962 30C15.3273 30 15.6556 29.9892 15.981 29.9677C23.4692 29.4805 29.4758 23.4739 29.964 15.9858C29.9716 15.872 29.9782 15.7573 29.982 15.6426V14.0189H29.9953V0ZM1.96682 10.3858L5.59242 14.0189H1.96682V10.3858ZM14.0104 27.9953H13.9735C13.8787 27.9877 13.7744 27.9782 13.6758 27.9687C13.5773 27.9592 13.4796 27.9478 13.381 27.9355L13.1592 27.9061C12.9403 27.8758 12.7232 27.8389 12.5062 27.7962C12.4114 27.7782 12.3166 27.7583 12.2218 27.7365C12.127 27.7147 12.0322 27.6948 11.9374 27.672C11.8502 27.6512 11.763 27.6284 11.6768 27.6057L11.6455 27.5971C11.5697 27.5782 11.4948 27.5573 11.4199 27.5346C11.3962 27.5289 11.3725 27.5223 11.3507 27.5147C11.2938 27.4986 11.236 27.4815 11.1791 27.4635C11.1223 27.4455 11.09 27.436 11.0446 27.4209C10.9991 27.4057 10.9337 27.3867 10.8787 27.3668C10.8474 27.3564 10.8142 27.346 10.7839 27.3337C10.727 27.3157 10.6682 27.2948 10.6104 27.273C10.5687 27.2591 10.527 27.2439 10.4853 27.2275C10.4436 27.2111 10.3962 27.193 10.3431 27.1734C10.3081 27.1611 10.272 27.1469 10.237 27.1317C10.1659 27.1052 10.0967 27.0768 10.0275 27.0483L9.99621 27.0341C9.92702 27.0057 9.85782 26.9763 9.78863 26.945C9.75356 26.9308 9.72038 26.9166 9.68626 26.9005C9.62559 26.8739 9.56588 26.8455 9.50616 26.818L9.47488 26.8028C9.39431 26.7659 9.31469 26.728 9.23602 26.6882C9.15735 26.6483 9.07014 26.6057 8.98863 26.5621L8.96493 26.5498C8.88626 26.509 8.80948 26.4673 8.7308 26.4237C8.65213 26.3801 8.56493 26.3289 8.48341 26.2834C8.15545 26.0938 7.83602 25.8891 7.52796 25.6711C7.47014 25.6322 7.41517 25.5924 7.35924 25.5516C7.1801 25.4208 7.00379 25.2853 6.83223 25.146C6.79337 25.1166 6.75545 25.0853 6.71848 25.0512C6.68152 25.0171 6.6237 24.9735 6.57725 24.9327C6.5128 24.8777 6.44739 24.8218 6.38768 24.7649C6.34408 24.7261 6.30048 24.6881 6.25877 24.6474C6.22939 24.6218 6.2 24.5962 6.17156 24.5697L6.05877 24.4635C6.01801 24.4256 5.9782 24.3867 5.93744 24.3469C5.87583 24.2862 5.81232 24.2256 5.74787 24.163C5.71185 24.128 5.67678 24.091 5.64266 24.055C5.60853 24.0189 5.56398 23.9735 5.52417 23.9318C5.40601 23.8054 5.29005 23.6774 5.1763 23.5478C5.13365 23.4995 5.09195 23.4531 5.05024 23.4L4.98294 23.3204C4.93839 23.2673 4.89479 23.2142 4.85308 23.1611C4.81138 23.1081 4.75261 23.0351 4.70237 22.9716C4.69476 22.9604 4.68653 22.9496 4.67772 22.9393L4.53175 22.7497C4.4673 22.6625 4.40474 22.5754 4.34218 22.4863L4.18863 22.2626L4.1782 22.2474C4.12702 22.1706 4.07583 22.0929 4.02654 22.0151C3.97725 21.9374 3.92417 21.855 3.87583 21.7744C3.82749 21.6938 3.78104 21.6132 3.7308 21.5317C3.67298 21.4294 3.61327 21.3261 3.5564 21.2218C3.52228 21.1593 3.4891 21.0957 3.45593 21.0322C3.42275 20.9687 3.38294 20.8929 3.34787 20.8227C3.33744 20.8 3.32417 20.7763 3.31375 20.7526C3.27583 20.6758 3.23697 20.5981 3.20095 20.5204C3.16493 20.4426 3.12606 20.3592 3.09005 20.2777L3.07867 20.2502C3.04265 20.1668 3.00569 20.0834 2.97156 20C2.90079 19.8294 2.83318 19.6569 2.76872 19.4825C2.76398 19.4673 2.75829 19.4521 2.7526 19.437C2.72322 19.3574 2.69479 19.2768 2.66825 19.1962V19.1886L2.58009 18.9175C2.55071 18.8228 2.52228 18.7327 2.49669 18.6398C2.47109 18.5469 2.4436 18.4559 2.41991 18.364C2.39621 18.272 2.36683 18.163 2.34218 18.0626C2.31754 17.9621 2.30142 17.8825 2.28152 17.7924C2.26161 17.7024 2.24644 17.6341 2.23223 17.5535C2.22477 17.5248 2.21876 17.4957 2.21422 17.4664C2.1981 17.3839 2.18294 17.2995 2.16872 17.2161C2.14218 17.0625 2.12038 16.9081 2.09858 16.7536C2.09858 16.7431 2.09858 16.7336 2.09858 16.7232C2.09289 16.6815 2.0872 16.6398 2.08246 16.5981C2.07488 16.5384 2.06919 16.4786 2.06161 16.4189C2.06161 16.3744 2.05308 16.3298 2.04929 16.2862C2.0455 16.2426 2.03697 16.1696 2.03318 16.1109C2.03318 16.0881 2.03318 16.0644 2.02749 16.0417C4.42383 16.2335 6.72079 17.0828 8.66545 18.4961C10.6101 19.9095 12.1271 21.8321 13.0493 24.0521H10.0474L13.9687 27.9526L14.0076 27.9924L14.0104 27.9953ZM27.9792 16.0948C27.9792 16.1535 27.9697 16.2123 27.963 16.2701C27.9564 16.328 27.9555 16.3583 27.9498 16.4028C27.9431 16.4625 27.9374 16.5223 27.9299 16.582C27.9242 16.6237 27.9185 16.6654 27.9137 16.7071C27.9043 16.782 27.8929 16.8559 27.8825 16.9308C27.8682 17.0209 27.855 17.1109 27.8389 17.2C27.8294 17.2616 27.8171 17.3232 27.8057 17.3839C27.7981 17.4246 27.7915 17.4644 27.7839 17.5052C27.7839 17.5251 27.7754 17.546 27.7716 17.5659C27.7564 17.637 27.7422 17.708 27.7261 17.7791L27.7204 17.8076C27.7024 17.8882 27.6834 17.9687 27.6654 18.0493C27.6398 18.1507 27.6142 18.2512 27.5877 18.3516C27.5706 18.4189 27.5526 18.4862 27.5318 18.5535C27.5194 18.6019 27.5052 18.6483 27.4891 18.7005C27.4689 18.7687 27.448 18.8369 27.4265 18.9052C27.4028 18.9829 27.3773 19.0607 27.3517 19.1374C27.3194 19.2322 27.2863 19.327 27.2512 19.4218C27.2351 19.4682 27.2171 19.5166 27.199 19.5621C27.146 19.7052 27.0901 19.8465 27.0313 19.9877C26.9962 20.0721 26.9602 20.1554 26.9242 20.2379C26.8986 20.2957 26.873 20.3526 26.8455 20.4104C26.818 20.4683 26.8066 20.4967 26.7867 20.5393L26.7213 20.6758C26.6995 20.7213 26.6777 20.7659 26.654 20.8104C26.599 20.9204 26.5431 21.0294 26.4844 21.1384C26.4474 21.2066 26.4114 21.2749 26.3735 21.3421C26.2471 21.5665 26.1144 21.7876 25.9754 22.0057C25.9261 22.0834 25.8806 22.1602 25.8246 22.237C25.7099 22.4076 25.5915 22.5744 25.4692 22.7393C25.4218 22.8047 25.3744 22.8692 25.3232 22.9289C25.3156 22.9403 25.3071 22.9507 25.2995 22.9611L25.1479 23.1507C25.0844 23.2303 25.019 23.31 24.9517 23.3886C24.91 23.4389 24.8673 23.4834 24.8256 23.5365C24.7119 23.6673 24.5959 23.7952 24.4777 23.9204C24.4389 23.9621 24.3991 24.0028 24.3592 24.0436C24.3194 24.0843 24.2749 24.1299 24.2332 24.1725C24.218 24.1886 24.2019 24.2047 24.1858 24.2199C24.1384 24.2686 24.0891 24.3169 24.0379 24.3649C24.0123 24.3905 23.9848 24.4161 23.9573 24.4417C23.9299 24.4673 23.8758 24.5194 23.8341 24.5583C23.7924 24.5971 23.7773 24.6113 23.7469 24.636C23.7043 24.6767 23.6607 24.7156 23.6171 24.7535C23.5539 24.8104 23.4907 24.8663 23.4275 24.9213C23.3801 24.9621 23.3327 25.0019 23.2853 25.0398C23.2379 25.0777 23.2038 25.108 23.163 25.1393C23.1571 25.1458 23.1504 25.1515 23.1431 25.1564C23.0739 25.2123 23.0066 25.2663 22.9374 25.3185L22.9213 25.3308L22.7081 25.491H22.7024C22.6294 25.5459 22.5526 25.6 22.4777 25.6521C22.4028 25.7043 22.3052 25.7725 22.2171 25.8303C22.0682 25.9308 21.9185 26.0265 21.7649 26.1194C21.6853 26.1687 21.6028 26.2142 21.5204 26.2644C21.4379 26.3147 21.3564 26.3592 21.273 26.4047C21.1896 26.4502 21.1185 26.49 21.0398 26.5308L21.0161 26.5431C20.9355 26.5867 20.8521 26.6284 20.7678 26.6692C20.6834 26.7099 20.5962 26.7535 20.5109 26.7934C20.4256 26.8332 20.3668 26.8607 20.2957 26.8881C20.272 26.9005 20.2464 26.9109 20.2218 26.9213C20.1431 26.9564 20.0664 26.9896 19.9877 27.0218C19.909 27.054 19.8256 27.0882 19.7441 27.1166L19.691 27.1374C19.6265 27.163 19.563 27.1867 19.5014 27.2095C19.4682 27.2218 19.436 27.2341 19.4066 27.2445C19.3469 27.2673 19.2863 27.2882 19.2265 27.3081C19.1953 27.3204 19.1621 27.3308 19.1318 27.3412C19.0777 27.3611 19.0218 27.3792 18.9668 27.3953C18.9118 27.4114 18.872 27.4246 18.8313 27.4379C18.7905 27.4512 18.7185 27.473 18.6607 27.4891C18.6379 27.4967 18.6152 27.5033 18.5915 27.509C18.5166 27.5317 18.4417 27.5526 18.3649 27.5716C18.3548 27.5754 18.3443 27.5782 18.3336 27.5801C18.2483 27.6028 18.1602 27.6256 18.0739 27.6464C17.9791 27.6692 17.8844 27.6901 17.7896 27.7109C17.6948 27.7318 17.6 27.7526 17.5052 27.7706C17.2891 27.8136 17.0717 27.8503 16.8531 27.8806L16.6313 27.9099C16.5365 27.9222 16.4341 27.9327 16.3355 27.9431C16.237 27.9535 16.1384 27.9621 16.0379 27.9697H16.0019L16.0408 27.9298L19.9573 24.0133H16.9668C17.8883 21.7939 19.4041 19.8719 21.3476 18.4586C23.291 17.0452 25.5867 16.1955 27.982 16.0029L27.9792 16.0948ZM28.0104 14.0142H24.3829L28.0104 10.3858V14.0142ZM28.0246 7.58484L20.6256 14.9839L19.6209 15.9858H21.5801C19.2474 17.3216 17.3136 19.2557 15.9782 21.5886C15.597 22.2545 15.2678 22.9489 14.9934 23.6654C14.7186 22.9488 14.3891 22.2545 14.0076 21.5886C12.6722 19.2557 10.7383 17.3216 8.40569 15.9858H10.3517L9.35071 14.9839L1.96398 7.59904V2.00663C8.68531 2.51184 14.0019 8.1365 14.0076 14.982H15.981C15.9905 8.1365 21.3043 2.51184 28.0246 2.00663V7.58484Z" fill="white"/>
<path d="M45.3223 11.8568C44.8306 11.5495 44.2607 11.3905 43.6809 11.3991C43.0876 11.3898 42.5019 11.5327 41.9795 11.8142C41.715 11.959 41.4735 12.1426 41.263 12.3587V11.5696H38.9998V19.9138H41.263V15.1285C41.2562 14.8207 41.3302 14.5165 41.4777 14.2463C41.6178 13.9987 41.8244 13.7953 42.0742 13.6591C42.34 13.5186 42.637 13.4475 42.9375 13.4524C43.1606 13.441 43.3836 13.4766 43.5921 13.5569C43.8006 13.6371 43.9899 13.7602 44.1479 13.9181C44.3058 14.0761 44.4289 14.2654 44.5091 14.4739C44.5894 14.6824 44.625 14.9054 44.6136 15.1285V19.9138H46.8768V14.6266C46.8797 14.0734 46.7371 13.5292 46.4633 13.0484C46.1885 12.5622 45.7962 12.1525 45.3223 11.8568Z" fill="white"/>
<path d="M54.9017 11.9618C54.2031 11.5817 53.4204 11.3826 52.6251 11.3826C51.8297 11.3826 51.0471 11.5817 50.3485 11.9618C49.6867 12.3314 49.1329 12.8673 48.7418 13.5164C48.3554 14.1891 48.1528 14.9515 48.1545 15.7272C48.1562 16.5029 48.362 17.2646 48.7513 17.9355C49.1404 18.5924 49.6942 19.1364 50.3579 19.5138C51.0552 19.8928 51.8362 20.0914 52.6298 20.0914C53.4234 20.0914 54.2044 19.8928 54.9017 19.5138C55.5713 19.1353 56.1272 18.5843 56.5116 17.9182C56.896 17.252 57.0949 16.4951 57.0876 15.726C57.0999 14.9491 56.8961 14.1842 56.4989 13.5164C56.1101 12.8687 55.5597 12.333 54.9017 11.9618ZM54.504 16.9033C54.3315 17.234 54.0674 17.508 53.7433 17.6925C53.3985 17.8874 53.0077 17.9861 52.6117 17.9781C52.2243 17.9854 51.8422 17.8866 51.5069 17.6925C51.1852 17.5048 50.9219 17.2317 50.7462 16.9033C50.5573 16.5441 50.4623 16.1428 50.47 15.737C50.4613 15.3336 50.5564 14.9347 50.7462 14.5786C50.9235 14.2514 51.1865 13.9787 51.5069 13.7895C51.8427 13.5966 52.2245 13.4983 52.6117 13.5053C53.005 13.497 53.3933 13.5952 53.7354 13.7895C54.0558 13.9787 54.3188 14.2514 54.4961 14.5786C54.6854 14.9349 54.7804 15.3336 54.7723 15.737C54.7795 16.1419 54.6874 16.5423 54.504 16.9033Z" fill="white"/>
<path d="M61.8497 16.8581L59.8169 11.5726H57.3296L61.0101 19.9168H62.6325L66.2956 11.5726H63.8935L61.8497 16.8581Z" fill="white"/>
<path d="M72.9982 12.3793C72.7648 12.1303 72.4904 11.9232 72.187 11.767C71.6882 11.5193 71.1372 11.3948 70.5804 11.4039C69.8563 11.3957 69.1448 11.5933 68.5286 11.9737C67.9187 12.3534 67.423 12.8911 67.094 13.5298C66.7535 14.2203 66.5764 14.9798 66.5764 15.7496C66.5764 16.5195 66.7535 17.279 67.094 17.9694C67.423 18.6077 67.9188 19.145 68.5286 19.524C69.1445 19.9052 69.8562 20.1028 70.5804 20.0937C71.1382 20.1034 71.6899 19.976 72.187 19.7228C72.49 19.5639 72.7642 19.3553 72.9982 19.1058V19.9217H75.2441V11.5775H72.9982V12.3793ZM72.5248 17.3729C72.3287 17.5821 72.09 17.7467 71.8248 17.8556C71.5596 17.9645 71.274 18.0152 70.9875 18.0042C70.6 18.0127 70.2176 17.9138 69.8828 17.7185C69.5662 17.53 69.3086 17.2567 69.1394 16.9294C68.9556 16.5624 68.8641 16.1561 68.8727 15.7457C68.8646 15.3409 68.9562 14.9404 69.1394 14.5794C69.3093 14.2525 69.5666 13.9793 69.8828 13.7902C70.2177 13.5954 70.6001 13.4971 70.9875 13.5062C71.378 13.497 71.7634 13.5952 72.1018 13.7902C72.4179 13.9793 72.6753 14.2525 72.8451 14.5794C73.0289 14.9402 73.121 15.3408 73.1134 15.7457C73.1383 16.3409 72.9312 16.9225 72.5358 17.3681L72.5248 17.3729Z" fill="white"/>
<path d="M82.2162 17.7829C81.8911 17.9193 81.5413 17.9869 81.1888 17.9818C80.7984 17.9886 80.4134 17.8899 80.0745 17.6961C79.7477 17.5094 79.4785 17.2364 79.2964 16.907C79.1026 16.5492 79.0042 16.1475 79.0108 15.7406C79.0007 15.3334 79.0993 14.9309 79.2964 14.5744C79.4822 14.2506 79.7507 13.982 80.0745 13.7963C80.4139 13.6037 80.7986 13.5056 81.1888 13.5122C81.5346 13.5081 81.8779 13.5724 82.1988 13.7015C82.4998 13.8244 82.7695 14.0131 82.9879 14.2539L84.4384 12.7862C84.0416 12.3407 83.5526 11.9868 83.0053 11.7492C82.4327 11.5034 81.8151 11.3798 81.1919 11.3863C80.391 11.3756 79.6014 11.5754 78.9019 11.9655C78.2247 12.3365 77.6618 12.8854 77.2738 13.5529C76.8858 14.2204 76.6875 14.9813 76.7002 15.7533C76.6888 16.5211 76.8871 17.2775 77.2736 17.9411C77.6602 18.6046 78.2204 19.1502 78.894 19.519C79.5974 19.9054 80.3894 20.1018 81.1919 20.0887C81.8151 20.096 82.4329 19.9723 83.0053 19.7257C83.5626 19.481 84.0626 19.1224 84.4731 18.673L83.0053 17.2037C82.7899 17.4544 82.5199 17.6525 82.2162 17.7829Z" fill="white"/>
<path d="M91.7503 11.9614C91.052 11.5813 90.2696 11.3821 89.4745 11.3821C88.6794 11.3821 87.897 11.5813 87.1987 11.9614C86.5366 12.3305 85.9827 12.8665 85.592 13.516C85.1953 14.1839 84.992 14.9489 85.0049 15.7256C84.995 16.5059 85.201 17.2738 85.5999 17.9445C85.9895 18.601 86.5432 19.1449 87.2066 19.5228C87.9038 19.9018 88.6848 20.1004 89.4784 20.1004C90.2721 20.1004 91.0531 19.9018 91.7503 19.5228C92.4131 19.1469 92.9647 18.6024 93.3491 17.9445C93.7434 17.2722 93.9464 16.5049 93.9362 15.7256C93.9491 14.9489 93.7458 14.1839 93.3491 13.516C92.9597 12.8682 92.4088 12.3325 91.7503 11.9614ZM91.3542 16.9029C91.1812 17.2333 90.9173 17.5071 90.5935 17.6921C90.2487 17.887 89.8579 17.9856 89.4619 17.9777C89.0745 17.9846 88.6926 17.8859 88.3571 17.6921C88.0359 17.5044 87.7731 17.2312 87.598 16.9029C87.4091 16.5436 87.3141 16.1424 87.3218 15.7366C87.3131 15.3332 87.4082 14.9343 87.598 14.5782C87.7745 14.2509 88.0369 13.9781 88.3571 13.7891C88.693 13.5965 89.0747 13.4982 89.4619 13.5049C89.8547 13.4964 90.2425 13.5946 90.584 13.7891C90.9044 13.9782 91.1674 14.251 91.3447 14.5782C91.5345 14.9343 91.6296 15.3332 91.6209 15.7366C91.6287 16.1413 91.5371 16.5418 91.3542 16.9029Z" fill="white"/>
<path d="M101.711 11.8568C101.219 11.5498 100.65 11.3909 100.07 11.3992C99.4765 11.3893 98.8906 11.5322 98.3685 11.8142C98.1037 11.9595 97.8617 12.143 97.6504 12.3587V11.5696H95.3871V19.9138H97.6504V15.1285C97.6441 14.8206 97.7186 14.5164 97.8666 14.2463C98.0058 13.9981 98.2127 13.7944 98.4632 13.6592C98.7289 13.5185 99.0258 13.4474 99.3264 13.4524C99.5495 13.4413 99.7724 13.4771 99.9807 13.5575C100.189 13.6378 100.378 13.7608 100.536 13.9187C100.694 14.0766 100.817 14.2659 100.898 14.4743C100.978 14.6826 101.014 14.9055 101.003 15.1285V19.9138H103.266V14.6267C103.268 14.0733 103.125 13.5291 102.851 13.0485C102.576 12.5623 102.185 12.1525 101.711 11.8568Z" fill="white"/>
<path d="M111.419 11.8568C110.927 11.5499 110.357 11.391 109.777 11.3991C109.184 11.3896 108.597 11.5325 108.074 11.8142C107.81 11.9591 107.568 12.1426 107.358 12.3587V11.5696H105.095V19.9138H107.358V15.1285C107.352 14.8206 107.426 14.5164 107.574 14.2463C107.713 13.998 107.92 13.7944 108.171 13.6592C108.436 13.5185 108.733 13.4474 109.034 13.4524C109.257 13.4413 109.48 13.4771 109.688 13.5574C109.897 13.6377 110.086 13.7608 110.244 13.9187C110.402 14.0766 110.525 14.2659 110.605 14.4742C110.685 14.6826 110.721 14.9055 110.71 15.1285V19.9138H112.973V14.6267C112.976 14.0733 112.832 13.529 112.558 13.0484C112.284 12.5622 111.892 12.1525 111.419 11.8568Z" fill="white"/>
<path d="M120.774 11.9269C120.125 11.5555 119.388 11.3673 118.64 11.3824C117.874 11.3735 117.12 11.5659 116.451 11.9404C115.783 12.3148 115.225 12.8583 114.832 13.5162C114.534 14.0154 114.339 14.5696 114.26 15.1457C114.181 15.7218 114.219 16.308 114.371 16.8691C114.524 17.4303 114.788 17.9549 115.148 18.4117C115.508 18.8685 115.956 19.2481 116.466 19.5277C117.182 19.9122 117.985 20.1057 118.798 20.0896C119.448 20.0965 120.092 19.9731 120.692 19.7266C121.263 19.4933 121.77 19.1264 122.169 18.6565L120.839 17.3261C120.594 17.6082 120.286 17.8297 119.941 17.9731C119.574 18.1219 119.18 18.1954 118.784 18.1894C118.35 18.1986 117.921 18.0947 117.539 17.8879C117.185 17.6887 116.9 17.3872 116.72 17.023C116.644 16.8718 116.585 16.7131 116.543 16.5496L122.637 16.5338C122.679 16.3601 122.71 16.1841 122.731 16.0067C122.748 15.8547 122.757 15.7019 122.757 15.549C122.769 14.804 122.587 14.0686 122.229 13.4152C121.888 12.7968 121.385 12.2825 120.774 11.9269ZM117.46 13.5682C117.816 13.3602 118.222 13.2553 118.634 13.2652C119.012 13.2536 119.385 13.3464 119.714 13.5336C120.011 13.7158 120.246 13.9838 120.388 14.3022C120.465 14.4748 120.525 14.6552 120.564 14.8403L116.532 14.853C116.57 14.7019 116.623 14.555 116.69 14.4142C116.86 14.062 117.13 13.7677 117.466 13.5682H117.46Z" fill="white"/>
<path d="M129.119 17.7832C128.794 17.9195 128.444 17.9872 128.091 17.982C127.701 17.9886 127.316 17.8899 126.977 17.6963C126.65 17.5097 126.381 17.2367 126.199 16.9072C126.005 16.5495 125.907 16.1477 125.913 15.7409C125.903 15.3336 126.002 14.9311 126.199 14.5746C126.387 14.251 126.659 13.9834 126.985 13.7997C127.324 13.6073 127.709 13.5092 128.099 13.5156C128.445 13.5115 128.788 13.5758 129.109 13.705C129.41 13.8278 129.68 14.0165 129.898 14.2573L131.349 12.7896C130.952 12.3441 130.463 11.9902 129.916 11.7527C129.343 11.5068 128.726 11.3832 128.102 11.3897C127.302 11.3791 126.512 11.5788 125.812 11.9689C125.145 12.3381 124.588 12.8778 124.198 13.533C123.9 14.0297 123.705 14.5813 123.624 15.155C123.544 15.7287 123.579 16.3127 123.729 16.8723C123.879 17.4319 124.14 17.9556 124.497 18.4123C124.853 18.8689 125.298 19.2491 125.805 19.5303C126.508 19.9167 127.3 20.1131 128.102 20.1C128.726 20.1073 129.343 19.9836 129.916 19.737C130.473 19.4923 130.973 19.1338 131.384 18.6844L129.916 17.215C129.697 17.4627 129.424 17.657 129.119 17.7832Z" fill="white"/>
<path d="M137.956 11.573H136.004V8.10083H133.741V11.573H131.789V13.56H133.741V19.9172H136.004V13.56H137.956V11.573Z" fill="white"/>
</svg>
