<svg width="71" height="61" viewBox="0 0 71 61" fill="none" xmlns="http://www.w3.org/2000/svg">
<path fill-rule="evenodd" clip-rule="evenodd" d="M45.0595 57.3069C45.0717 57.7465 44.995 58.1841 44.834 58.5939C44.673 59.0036 44.4309 59.3771 44.122 59.6924C43.8131 60.0076 43.4436 60.2582 43.0355 60.4293C42.6274 60.6004 42.1889 60.6886 41.746 60.6886C41.303 60.6886 40.8645 60.6004 40.4564 60.4293C40.0483 60.2582 39.6789 60.0076 39.37 59.6924C39.0611 59.3771 38.8189 59.0036 38.6579 58.5939C38.4969 58.1841 38.4202 57.7465 38.4324 57.3069V32.1971C38.4324 31.3249 38.0834 30.4884 37.4622 29.8717C36.8411 29.255 35.9986 28.9085 35.1201 28.9085C34.2416 28.9085 33.3991 29.255 32.7779 29.8717C32.1567 30.4884 31.8078 31.3249 31.8078 32.1971V51.3515C31.82 51.7912 31.7433 52.2288 31.5822 52.6385C31.4212 53.0483 31.1791 53.4218 30.8702 53.737C30.5613 54.0523 30.1919 54.3029 29.7838 54.474C29.3757 54.6451 28.9372 54.7332 28.4942 54.7332C28.0512 54.7332 27.6127 54.6451 27.2046 54.474C26.7965 54.3029 26.4271 54.0523 26.1182 53.737C25.8093 53.4218 25.5672 53.0483 25.4061 52.6385C25.2451 52.2288 25.1684 51.7912 25.1806 51.3515V3.38169C25.1684 2.94204 25.2451 2.50442 25.4061 2.0947C25.5672 1.68497 25.8093 1.31145 26.1182 0.996196C26.4271 0.680945 26.7965 0.430365 27.2046 0.259261C27.6127 0.0881566 28.0512 0 28.4942 0C28.9372 0 29.3757 0.0881566 29.7838 0.259261C30.1919 0.430365 30.5613 0.680945 30.8702 0.996196C31.1791 1.31145 31.4212 1.68497 31.5822 2.0947C31.7433 2.50442 31.82 2.94204 31.8078 3.38169V22.2965C31.8078 23.1686 32.1567 24.0051 32.7779 24.6218C33.3991 25.2385 34.2416 25.585 35.1201 25.585C35.9986 25.585 36.8411 25.2385 37.4622 24.6218C38.0834 24.0051 38.4324 23.1686 38.4324 22.2965V8.21088C38.4202 7.77124 38.4969 7.33362 38.6579 6.92389C38.8189 6.51417 39.0611 6.14064 39.37 5.82539C39.6789 5.51014 40.0483 5.25956 40.4564 5.08846C40.8645 4.91735 41.303 4.8292 41.746 4.8292C42.1889 4.8292 42.6274 4.91735 43.0355 5.08846C43.4436 5.25956 43.8131 5.51014 44.122 5.82539C44.4309 6.14064 44.673 6.51417 44.834 6.92389C44.995 7.33362 45.0717 7.77124 45.0595 8.21088V57.3069ZM0 25.7398V34.9512C0.0237783 35.8081 0.383316 36.6219 1.00214 37.2196C1.62096 37.8172 2.45023 38.1516 3.31357 38.1516C4.17691 38.1516 5.00618 37.8172 5.625 37.2196C6.24382 36.6219 6.60336 35.8081 6.62714 34.9512V25.7398C6.62714 24.8676 6.27817 24.0312 5.65699 23.4145C5.03581 22.7977 4.19331 22.4513 3.31483 22.4513C2.43612 22.4513 1.59336 22.7977 0.97178 23.4143C0.350201 24.031 0.000666701 24.8674 0 25.7398ZM51.0227 17.8468V54.0283C51.0105 54.468 51.0872 54.9056 51.2482 55.3153C51.4092 55.725 51.6514 56.0986 51.9603 56.4138C52.2692 56.7291 52.6386 56.9796 53.0467 57.1507C53.4548 57.3218 53.8933 57.41 54.3363 57.41C54.7793 57.41 55.2178 57.3218 55.6259 57.1507C56.034 56.9796 56.4034 56.7291 56.7123 56.4138C57.0212 56.0986 57.2633 55.725 57.4243 55.3153C57.5854 54.9056 57.662 54.468 57.6498 54.0283V17.8468C57.6498 16.9744 57.3009 16.1377 56.6798 15.5206C56.0587 14.9034 55.2162 14.5564 54.3375 14.5558C53.4584 14.5558 52.6152 14.9025 51.9936 15.5197C51.3719 16.1369 51.0227 16.974 51.0227 17.8468ZM12.5903 10.6055V40.8691C12.6141 41.726 12.9736 42.5398 13.5924 43.1374C14.2113 43.7351 15.0405 44.0695 15.9039 44.0695C16.7672 44.0695 17.5965 43.7351 18.2153 43.1374C18.8341 42.5398 19.1937 41.726 19.2175 40.8691V10.608C19.2168 9.7356 18.8673 8.89915 18.2457 8.2825C17.6241 7.66585 16.7813 7.31946 15.9026 7.31946C15.0241 7.31946 14.1816 7.66593 13.5605 8.28265C12.9393 8.89937 12.5903 9.73583 12.5903 10.608V10.6055ZM63.613 21.1354V31.6602C63.6008 32.0998 63.6775 32.5375 63.8385 32.9472C63.9996 33.3569 64.2417 33.7304 64.5506 34.0457C64.8595 34.3609 65.2289 34.6115 65.637 34.7826C66.0451 34.9537 66.4836 35.0419 66.9266 35.0419C67.3696 35.0419 67.8081 34.9537 68.2162 34.7826C68.6243 34.6115 68.9937 34.3609 69.3026 34.0457C69.6115 33.7304 69.8536 33.3569 70.0146 32.9472C70.1757 32.5375 70.2524 32.0998 70.2402 31.6602V21.1354C70.2402 20.2632 69.8912 19.4267 69.27 18.81C68.6488 18.1933 67.8063 17.8468 66.9278 17.8468C66.4926 17.8465 66.0617 17.9313 65.6595 18.0964C65.2573 18.2615 64.8919 18.5037 64.5841 18.8091C64.2762 19.1145 64.032 19.4772 63.8654 19.8763C63.6988 20.2754 63.613 20.7033 63.613 21.1354Z" fill="#815CE1"/>
</svg>
