<svg width="175" height="58" viewBox="0 0 175 58" fill="none" xmlns="http://www.w3.org/2000/svg">
<path d="M94.4957 23.0082H86.0159V15.2863H82.6992V33.5232H86.0159V25.7766H94.4957V33.5232H97.8206V15.2863H94.4957V23.0082Z" fill="white"/>
<path d="M104.508 19.8467H101.274V33.5244H104.508V19.8467Z" fill="white"/>
<path d="M102.906 14.4036C102.415 14.3949 101.94 14.5788 101.584 14.9157C101.412 15.0719 101.275 15.2622 101.181 15.4744C101.087 15.6866 101.038 15.916 101.038 16.1479C101.038 16.3798 101.087 16.6092 101.181 16.8214C101.275 17.0336 101.412 17.2239 101.584 17.3801C101.938 17.7225 102.413 17.9123 102.906 17.9086C103.396 17.9181 103.87 17.734 104.225 17.3966C104.396 17.2398 104.533 17.0494 104.626 16.8373C104.72 16.6252 104.768 16.396 104.768 16.1643C104.768 15.9327 104.72 15.7035 104.626 15.4914C104.533 15.2793 104.396 15.0888 104.225 14.9321C103.873 14.5886 103.398 14.3985 102.906 14.4036Z" fill="white"/>
<path d="M119.596 24.6665C119.029 24.3184 118.386 24.1152 117.722 24.0751V23.8971C118.299 23.7621 118.848 23.5236 119.34 23.1934C119.822 22.8663 120.217 22.4275 120.491 21.9146C120.792 21.3269 120.939 20.6734 120.92 20.0142C120.934 19.1609 120.707 18.3209 120.263 17.5908C119.788 16.8465 119.101 16.2594 118.29 15.904C117.25 15.4598 116.124 15.2486 114.993 15.2852H107.98V33.5167H115.4C116.596 33.5567 117.786 33.3352 118.887 32.8677C119.74 32.4955 120.462 31.8764 120.959 31.0906C121.422 30.3244 121.661 29.444 121.648 28.5494C121.673 27.7229 121.474 26.905 121.074 26.1808C120.72 25.5581 120.211 25.0366 119.596 24.6665ZM111.297 18.0098H114.647C115.625 18.0098 116.358 18.2389 116.845 18.6971C117.088 18.9169 117.281 19.1866 117.41 19.4877C117.539 19.7888 117.601 20.1141 117.592 20.4414C117.605 20.933 117.466 21.4167 117.194 21.827C116.919 22.223 116.538 22.5342 116.095 22.7251C115.609 22.9424 115.081 23.0508 114.548 23.0427H111.297V18.0098ZM117.469 30.0719C116.936 30.532 116.068 30.762 114.867 30.762H111.294V25.4196H114.949C115.561 25.4035 116.167 25.5331 116.719 25.7975C117.189 26.0278 117.586 26.3855 117.862 26.8298C118.132 27.2704 118.272 27.7783 118.266 28.2948C118.276 28.6317 118.21 28.9666 118.072 29.2744C117.934 29.5821 117.727 29.8548 117.469 30.0719Z" fill="white"/>
<path d="M134.685 21.3227C134.117 20.7665 133.434 20.3396 132.685 20.0713C131.915 19.7982 131.103 19.6611 130.286 19.666C129.083 19.6372 127.896 19.9476 126.862 20.5614C125.891 21.1654 125.111 22.03 124.612 23.056C124.079 24.2234 123.804 25.4909 123.804 26.7732C123.804 28.0556 124.079 29.323 124.612 30.4905C125.118 31.513 125.919 32.3623 126.912 32.9303C128.005 33.5276 129.238 33.8244 130.484 33.7901C131.454 33.8069 132.418 33.6425 133.328 33.3054C134.107 33.0156 134.807 32.5465 135.369 31.9363C135.906 31.3471 136.284 30.6321 136.469 29.8579L133.446 29.5184C133.315 29.8871 133.097 30.2194 132.811 30.4877C132.526 30.7527 132.188 30.9551 131.819 31.0819C131.407 31.219 130.976 31.2866 130.541 31.2818C129.899 31.2967 129.264 31.1418 128.7 30.8328C128.172 30.529 127.746 30.0765 127.475 29.5321C127.181 28.9194 127.032 28.2477 127.041 27.5687H136.6V26.5802C136.624 25.5232 136.454 24.4708 136.098 23.475C135.793 22.6621 135.31 21.9269 134.685 21.3227ZM127.008 25.3918C127.034 24.8711 127.175 24.3626 127.42 23.9022C127.694 23.3919 128.096 22.9615 128.588 22.6535C129.11 22.3296 129.715 22.164 130.33 22.177C130.901 22.1647 131.465 22.3097 131.959 22.596C132.424 22.8697 132.804 23.2657 133.058 23.7406C133.325 24.2474 133.462 24.8115 133.46 25.3836L127.008 25.3918Z" fill="white"/>
<path d="M148.687 20.6613C148.137 20.3051 147.528 20.0475 146.889 19.9C146.242 19.7454 145.579 19.6673 144.914 19.6673C144.02 19.6569 143.131 19.8005 142.287 20.0917C141.528 20.3536 140.84 20.7854 140.275 21.354C139.714 21.9418 139.309 22.66 139.097 23.4434L142.119 23.8705C142.298 23.3786 142.624 22.9533 143.054 22.652C143.608 22.2797 144.269 22.098 144.936 22.1345C145.559 22.0901 146.176 22.2862 146.659 22.6821C146.865 22.8838 147.025 23.1274 147.128 23.3962C147.232 23.665 147.276 23.9529 147.258 24.2402V24.2922C147.267 24.4262 147.241 24.5603 147.18 24.6803C147.12 24.8003 147.028 24.9018 146.914 24.9741C146.574 25.1542 146.2 25.2633 145.815 25.2944C145.315 25.3638 144.662 25.4396 143.856 25.5217C143.208 25.5915 142.565 25.7059 141.932 25.864C141.343 26.0096 140.779 26.2422 140.259 26.5541C139.77 26.851 139.367 27.2689 139.088 27.7671C138.781 28.3582 138.632 29.0186 138.657 29.6839C138.631 30.4807 138.841 31.2676 139.261 31.9457C139.664 32.5572 140.237 33.0378 140.91 33.3286C141.646 33.6459 142.441 33.8037 143.243 33.7913C143.88 33.8046 144.514 33.7035 145.114 33.4929C146.044 33.1685 146.816 32.5051 147.274 31.6363H147.381V33.5175H150.492V24.3689C150.519 23.5827 150.348 22.8024 149.995 22.0989C149.687 21.5179 149.237 21.0235 148.687 20.6613ZM147.266 28.616C147.269 29.1094 147.133 29.5939 146.876 30.0152C146.609 30.4507 146.229 30.8064 145.777 31.0448C145.256 31.3129 144.675 31.4457 144.089 31.4309C143.501 31.4556 142.92 31.2967 142.427 30.9764C142.079 30.6991 141.851 30.299 141.792 29.8589C141.732 29.4189 141.844 28.9729 142.106 28.6132C142.347 28.3326 142.658 28.1194 143.007 27.9944C143.425 27.8373 143.86 27.7298 144.304 27.674L145.062 27.5672C145.353 27.5261 145.65 27.4769 145.947 27.4248C146.22 27.3761 146.491 27.313 146.758 27.2359C146.941 27.1908 147.116 27.1129 147.271 27.0059L147.266 28.616Z" fill="white"/>
<path d="M159.922 30.9514C159.74 30.9804 159.556 30.9951 159.372 30.9952C159.122 30.9989 158.873 30.9562 158.639 30.8692C158.413 30.7808 158.225 30.6161 158.108 30.4037C157.957 30.0951 157.888 29.7527 157.908 29.4097V22.3395H160.609V19.8449H157.902V16.559H154.663V19.8449H152.714V22.3395H154.663V29.9574C154.627 30.709 154.818 31.4541 155.212 32.096C155.585 32.6617 156.122 33.101 156.751 33.3556C157.449 33.633 158.198 33.759 158.949 33.7253C159.342 33.7195 159.733 33.6773 160.117 33.5993C160.436 33.5281 160.667 33.4624 160.853 33.4049L160.304 30.8829C160.221 30.8939 160.092 30.9213 159.922 30.9514Z" fill="white"/>
<path d="M173.289 27.0481C172.654 26.4438 171.687 26.002 170.39 25.7227L168.049 25.2216C167.51 25.1303 166.999 24.9207 166.552 24.6083C166.407 24.4924 166.292 24.3443 166.215 24.176C166.138 24.0076 166.102 23.8237 166.109 23.6389C166.108 23.407 166.171 23.1793 166.29 22.9801C166.409 22.7809 166.58 22.6177 166.785 22.508C167.295 22.201 167.883 22.0488 168.478 22.0699C168.914 22.0567 169.347 22.139 169.747 22.3108C170.068 22.455 170.35 22.6716 170.572 22.9434C170.77 23.1915 170.916 23.4763 171.003 23.7813L173.951 23.4609C173.765 22.3489 173.148 21.3541 172.234 20.6898C171.305 20.007 170.038 19.6657 168.431 19.6657C167.44 19.6462 166.454 19.8202 165.529 20.1777C164.757 20.4714 164.08 20.9705 163.573 21.6208C163.103 22.2533 162.859 23.0246 162.88 23.8114C162.863 24.264 162.937 24.7155 163.099 25.1389C163.26 25.5623 163.506 25.949 163.82 26.2759C164.45 26.9258 165.424 27.3876 166.741 27.6614L169.082 28.1516C169.589 28.2331 170.068 28.434 170.481 28.7376C170.625 28.8553 170.74 29.0038 170.818 29.1722C170.896 29.3405 170.935 29.5243 170.932 29.7097C170.928 29.9505 170.861 30.1862 170.737 30.3929C170.613 30.5996 170.437 30.7701 170.225 30.8871C169.668 31.2258 169.022 31.3898 168.371 31.3581C167.732 31.3873 167.1 31.2231 166.557 30.8871C166.082 30.557 165.754 30.055 165.645 29.4879L162.49 29.7918C162.569 30.3838 162.774 30.9523 163.09 31.4597C163.405 31.9672 163.826 32.402 164.323 32.7355C165.347 33.4401 166.699 33.7915 168.379 33.7897C169.418 33.8115 170.452 33.6253 171.418 33.2421C172.234 32.9247 172.949 32.3941 173.487 31.7059C173.985 31.0517 174.251 30.2513 174.243 29.4304C174.259 28.989 174.183 28.549 174.019 28.1388C173.855 27.7285 173.606 27.357 173.289 27.0481Z" fill="white"/>
<path d="M87.7073 43.2495H85.7931V42.3814C85.7931 41.5356 86.1492 41.0905 87.0173 41.0905C87.3957 41.0905 87.6183 41.1795 87.7518 41.224L88.1302 40.0889C87.9299 39.9998 87.5292 39.8663 86.8837 39.8663C85.6596 39.8663 84.4799 40.6008 84.4799 42.0698V43.2495H83.0999V44.3624H84.4799V51.7966H85.7931V44.3624H87.7073V43.2495ZM92.6681 51.9747C94.9829 51.9747 96.541 50.2163 96.541 47.5676C96.541 44.8966 94.9829 43.1382 92.6681 43.1382C90.3532 43.1382 88.7952 44.8966 88.7952 47.5676C88.7952 50.2163 90.3532 51.9747 92.6681 51.9747ZM92.6681 50.795C90.9097 50.795 90.1084 49.2815 90.1084 47.5676C90.1084 45.8537 90.9097 44.3179 92.6681 44.3179C94.4265 44.3179 95.2278 45.8537 95.2278 47.5676C95.2278 49.2815 94.4265 50.795 92.6681 50.795ZM98.5456 51.7966H99.8588V46.3879C99.8588 45.2305 100.771 44.3847 102.018 44.3847C102.368 44.3847 102.73 44.4514 102.819 44.4737V43.1382C102.669 43.1271 102.324 43.116 102.129 43.116C101.105 43.116 100.215 43.6947 99.9034 44.5405H99.8143V43.2495H98.5456V51.7966ZM109.428 51.7966L110.575 48.5692H115.182L116.328 51.7966H117.775L113.591 40.4005H112.166L107.982 51.7966H109.428ZM111.009 47.345L112.834 42.2034H112.923L114.748 47.345H111.009ZM119.372 51.7966H120.685V46.3879C120.685 45.2305 121.598 44.3847 122.845 44.3847C123.195 44.3847 123.557 44.4514 123.646 44.4737V43.1382C123.496 43.1271 123.151 43.116 122.956 43.116C121.932 43.116 121.042 43.6947 120.73 44.5405H120.641V43.2495H119.372V51.7966ZM129.455 43.2495H127.63V41.2018H126.317V43.2495H125.026V44.3624H126.317V49.7044C126.317 51.1957 127.519 51.9079 128.632 51.9079C129.121 51.9079 129.433 51.8189 129.611 51.7521L129.344 50.5724C129.233 50.5947 129.055 50.6392 128.765 50.6392C128.186 50.6392 127.63 50.4611 127.63 49.3482V44.3624H129.455V43.2495ZM131.431 51.7966H132.744V43.2495H131.431V51.7966ZM132.098 41.825C132.61 41.825 133.033 41.4243 133.033 40.9347C133.033 40.445 132.61 40.0443 132.098 40.0443C131.586 40.0443 131.164 40.445 131.164 40.9347C131.164 41.4243 131.586 41.825 132.098 41.825ZM141.203 45.1637C140.792 43.9506 139.868 43.1382 138.176 43.1382C136.373 43.1382 135.038 44.1621 135.038 45.6089C135.038 46.7886 135.739 47.5787 137.308 47.946L138.733 48.2798C139.595 48.4802 140.001 48.8919 140.001 49.4818C140.001 50.2163 139.222 50.8173 137.998 50.8173C136.924 50.8173 136.251 50.3554 136.017 49.4373L134.771 49.7489C135.077 51.2012 136.273 51.9747 138.02 51.9747C140.007 51.9747 141.359 50.8896 141.359 49.415C141.359 48.2242 140.613 47.473 139.089 47.1002L137.82 46.7886C136.807 46.5381 136.351 46.1987 136.351 45.5421C136.351 44.8076 137.13 44.2734 138.176 44.2734C139.323 44.2734 139.795 44.9077 140.024 45.4976L141.203 45.1637ZM147.053 43.2495H145.228V41.2018H143.915V43.2495H142.624V44.3624H143.915V49.7044C143.915 51.1957 145.117 51.9079 146.229 51.9079C146.719 51.9079 147.031 51.8189 147.209 51.7521L146.942 50.5724C146.83 50.5947 146.652 50.6392 146.363 50.6392C145.784 50.6392 145.228 50.4611 145.228 49.3482V44.3624H147.053V43.2495ZM154.93 45.1637C154.518 43.9506 153.594 43.1382 151.903 43.1382C150.1 43.1382 148.764 44.1621 148.764 45.6089C148.764 46.7886 149.465 47.5787 151.034 47.946L152.459 48.2798C153.321 48.4802 153.728 48.8919 153.728 49.4818C153.728 50.2163 152.949 50.8173 151.724 50.8173C150.651 50.8173 149.977 50.3554 149.743 49.4373L148.497 49.7489C148.803 51.2012 149.999 51.9747 151.747 51.9747C153.733 51.9747 155.085 50.8896 155.085 49.415C155.085 48.2242 154.34 47.473 152.815 47.1002L151.546 46.7886C150.534 46.5381 150.077 46.1987 150.077 45.5421C150.077 44.8076 150.856 44.2734 151.903 44.2734C153.049 44.2734 153.522 44.9077 153.75 45.4976L154.93 45.1637Z" fill="white"/>
<path fill-rule="evenodd" clip-rule="evenodd" d="M42.782 54.4104C42.7936 54.8278 42.7208 55.2433 42.5679 55.6323C42.415 56.0213 42.1851 56.376 41.8918 56.6753C41.5986 56.9746 41.2478 57.2125 40.8604 57.375C40.4729 57.5374 40.0565 57.6211 39.6359 57.6211C39.2153 57.6211 38.799 57.5374 38.4115 57.375C38.0241 57.2125 37.6733 56.9746 37.38 56.6753C37.0868 56.376 36.8569 56.0213 36.704 55.6323C36.5511 55.2433 36.4783 54.8278 36.4899 54.4104V30.5697C36.4899 29.7416 36.1585 28.9474 35.5687 28.3619C34.979 27.7763 34.179 27.4474 33.345 27.4474C32.5109 27.4474 31.711 27.7763 31.1212 28.3619C30.5314 28.9474 30.2001 29.7416 30.2001 30.5697V48.756C30.2117 49.1734 30.1388 49.5889 29.9859 49.978C29.8331 50.367 29.6032 50.7216 29.3099 51.0209C29.0166 51.3203 28.6659 51.5582 28.2784 51.7206C27.8909 51.8831 27.4746 51.9668 27.054 51.9668C26.6334 51.9668 26.217 51.8831 25.8296 51.7206C25.4421 51.5582 25.0914 51.3203 24.7981 51.0209C24.5048 50.7216 24.2749 50.367 24.122 49.978C23.9691 49.5889 23.8963 49.1734 23.9079 48.756V3.21076C23.8963 2.79334 23.9691 2.37784 24.122 1.98882C24.2749 1.5998 24.5048 1.24516 24.7981 0.945844C25.0914 0.646528 25.4421 0.408613 25.8296 0.246157C26.217 0.0837008 26.6334 0 27.054 0C27.4746 0 27.8909 0.0837008 28.2784 0.246157C28.6659 0.408613 29.0166 0.646528 29.3099 0.945844C29.6032 1.24516 29.8331 1.5998 29.9859 1.98882C30.1388 2.37784 30.2117 2.79334 30.2001 3.21076V21.1695C30.2001 21.9976 30.5314 22.7918 31.1212 23.3773C31.711 23.9629 32.5109 24.2918 33.345 24.2918C34.179 24.2918 34.979 23.9629 35.5687 23.3773C36.1585 22.7918 36.4899 21.9976 36.4899 21.1695V7.79587C36.4783 7.37845 36.5511 6.96295 36.704 6.57393C36.8569 6.18491 37.0868 5.83027 37.38 5.53095C37.6733 5.23164 38.0241 4.99372 38.4115 4.83127C38.799 4.66881 39.2153 4.58511 39.6359 4.58511C40.0565 4.58511 40.4729 4.66881 40.8604 4.83127C41.2478 4.99372 41.5986 5.23164 41.8918 5.53095C42.1851 5.83027 42.415 6.18491 42.5679 6.57393C42.7208 6.96295 42.7936 7.37845 42.782 7.79587V54.4104ZM0 24.4388V33.1847C0.0225765 33.9982 0.363942 34.7708 0.951486 35.3383C1.53903 35.9058 2.32639 36.2233 3.14609 36.2233C3.96579 36.2233 4.75315 35.9058 5.34069 35.3383C5.92824 34.7708 6.2696 33.9982 6.29218 33.1847V24.4388C6.29218 23.6107 5.96084 22.8165 5.37106 22.231C4.78128 21.6454 3.98136 21.3165 3.14728 21.3165C2.31299 21.3165 1.51282 21.6454 0.922662 22.2309C0.332501 22.8163 0.000633003 23.6105 0 24.4388ZM48.4438 16.9448V51.2975C48.4322 51.7149 48.505 52.1304 48.6579 52.5194C48.8108 52.9085 49.0407 53.2631 49.334 53.5624C49.6273 53.8617 49.978 54.0997 50.3655 54.2621C50.7529 54.4246 51.1693 54.5083 51.5899 54.5083C52.0105 54.5083 52.4268 54.4246 52.8143 54.2621C53.2018 54.0997 53.5525 53.8617 53.8458 53.5624C54.1391 53.2631 54.369 52.9085 54.5219 52.5194C54.6748 52.1304 54.7476 51.7149 54.736 51.2975V16.9448C54.736 16.1164 54.4047 15.322 53.815 14.7361C53.2253 14.1502 52.4254 13.8207 51.5911 13.8201C50.7564 13.8201 49.9558 14.1493 49.3656 14.7353C48.7754 15.3212 48.4438 16.116 48.4438 16.9448ZM11.9539 10.0695V38.8034C11.9765 39.617 12.3179 40.3896 12.9054 40.9571C13.493 41.5246 14.2803 41.8421 15.1 41.8421C15.9197 41.8421 16.7071 41.5246 17.2946 40.9571C17.8822 40.3896 18.2235 39.617 18.2461 38.8034V10.0718C18.2455 9.24352 17.9136 8.44935 17.3235 7.86387C16.7333 7.27838 15.9331 6.9495 15.0988 6.9495C14.2648 6.9495 13.4648 7.27846 12.8751 7.86401C12.2853 8.44956 11.9539 9.24374 11.9539 10.0718V10.0695ZM60.3977 20.0671V30.06C60.3862 30.4774 60.459 30.8929 60.6119 31.2819C60.7648 31.6709 60.9946 32.0256 61.2879 32.3249C61.5812 32.6242 61.9319 32.8621 62.3194 33.0246C62.7069 33.187 63.1232 33.2707 63.5438 33.2707C63.9644 33.2707 64.3808 33.187 64.7682 33.0246C65.1557 32.8621 65.5064 32.6242 65.7997 32.3249C66.093 32.0256 66.3229 31.6709 66.4758 31.2819C66.6287 30.8929 66.7015 30.4774 66.6899 30.06V20.0671C66.6899 19.239 66.3586 18.4448 65.7688 17.8593C65.179 17.2737 64.3791 16.9448 63.545 16.9448C63.1318 16.9444 62.7226 17.025 62.3408 17.1817C61.959 17.3385 61.612 17.5685 61.3197 17.8584C61.0274 18.1484 60.7956 18.4927 60.6374 18.8717C60.4792 19.2506 60.3977 19.6569 60.3977 20.0671Z" fill="white"/>
</svg>
