<svg width="34" height="21" viewBox="0 0 34 21" fill="none" xmlns="http://www.w3.org/2000/svg">
<path d="M21.5072 2.18518H12.4163V18.3229H21.5072V2.18518Z" fill="#FF5F00"/>
<path d="M12.9916 10.2631C12.9902 8.70895 13.3467 7.17482 14.0342 5.77687C14.7217 4.37892 15.7222 3.15381 16.9598 2.19426C15.4272 1.00421 13.5864 0.264127 11.6481 0.0586156C9.70973 -0.146896 7.75195 0.190445 5.9985 1.03209C4.24506 1.87374 2.76671 3.18574 1.73242 4.81812C0.698139 6.4505 0.149658 8.33739 0.149658 10.2631C0.149658 12.1889 0.698139 14.0758 1.73242 15.7082C2.76671 17.3405 4.24506 18.6525 5.9985 19.4942C7.75195 20.3358 9.70973 20.6732 11.6481 20.4677C13.5864 20.2621 15.4272 19.5221 16.9598 18.332C15.7222 17.3725 14.7217 16.1473 14.0342 14.7494C13.3467 13.3514 12.9902 11.8173 12.9916 10.2631Z" fill="#EB001B"/>
<path d="M33.7717 10.2631C33.7718 12.1889 33.2234 14.0757 32.1891 15.7081C31.1549 17.3405 29.6766 18.6525 27.9232 19.4942C26.1698 20.3358 24.212 20.6732 22.2737 20.4677C20.3354 20.2621 18.4947 19.5221 16.962 18.332C18.1986 17.3715 19.1983 16.1462 19.8857 14.7485C20.5731 13.3507 20.9303 11.8171 20.9303 10.2631C20.9303 8.7092 20.5731 7.17554 19.8857 5.77782C19.1983 4.38009 18.1986 3.15477 16.962 2.19426C18.4947 1.0042 20.3354 0.264122 22.2737 0.0586129C24.212 -0.146896 26.1698 0.190459 27.9232 1.03212C29.6766 1.87378 31.1549 3.18577 32.1891 4.81815C33.2234 6.45053 33.7718 8.33742 33.7717 10.2631Z" fill="#F79E1B"/>
</svg>
