<svg width="150" height="150" viewBox="0 0 150 150" fill="none" xmlns="http://www.w3.org/2000/svg">
<mask id="mask0_1145_77" style="mask-type:alpha" maskUnits="userSpaceOnUse" x="0" y="0" width="150" height="150">
<circle cx="75" cy="75" r="75" fill="#C4C4C4"/>
</mask>
<g mask="url(#mask0_1145_77)">
<circle cx="75" cy="75" r="75" fill="#C4C4C4"/>
<g opacity="0.5">
<path d="M74.9998 95C90.1015 95 102.333 82.7683 102.333 67.6666C102.333 52.565 90.1015 40.3333 74.9998 40.3333C59.8981 40.3333 47.6665 52.565 47.6665 67.6666C47.6665 82.7683 59.8981 95 74.9998 95ZM74.9998 108.667C56.7548 108.667 20.3331 117.823 20.3331 136V142.833C20.3331 146.592 23.4081 149.667 27.1665 149.667H122.833C126.591 149.667 129.666 146.592 129.666 142.833V136C129.666 117.823 93.2448 108.667 74.9998 108.667Z" fill="#404040"/>
</g>
</g>
</svg>
