<svg width="52" height="50" viewBox="0 0 52 50" fill="none" xmlns="http://www.w3.org/2000/svg">
<g filter="url(#filter0_d_429_295)">
<path d="M45.4744 24.924L41.3719 30.2416C40.8886 30.8682 40.6578 31.5763 40.6794 32.3668L40.8644 39.0737C41.0126 44.4542 38.5445 46.2431 33.4592 44.4396L27.1204 42.1914C26.3737 41.9264 25.6269 41.9264 24.8802 42.1914L18.5414 44.4396C13.4561 46.2431 10.9876 44.4546 11.1363 39.0737L11.3212 32.3668C11.3429 31.5767 11.1124 30.8682 10.6288 30.2416L6.52621 24.924C3.23499 20.6578 4.1777 17.7637 9.35469 16.242L15.8076 14.3448C16.5679 14.1212 17.1719 13.6835 17.62 13.0313L21.4231 7.49669C24.4743 3.05669 27.5252 3.05669 30.5764 7.49669L34.3795 13.0313C34.8276 13.6835 35.432 14.1212 36.1919 14.3448L42.6448 16.242C47.8229 17.7637 48.7656 20.6578 45.4744 24.924Z" fill="#FD8730"/>
</g>
<defs>
<filter id="filter0_d_429_295" x="0.607422" y="0.166687" width="50.7856" height="48.952" filterUnits="userSpaceOnUse" color-interpolation-filters="sRGB">
<feFlood flood-opacity="0" result="BackgroundImageFix"/>
<feColorMatrix in="SourceAlpha" type="matrix" values="0 0 0 0 0 0 0 0 0 0 0 0 0 0 0 0 0 0 127 0" result="hardAlpha"/>
<feOffset/>
<feGaussianBlur stdDeviation="2"/>
<feComposite in2="hardAlpha" operator="out"/>
<feColorMatrix type="matrix" values="0 0 0 0 0 0 0 0 0 0 0 0 0 0 0 0 0 0 0.25 0"/>
<feBlend mode="normal" in2="BackgroundImageFix" result="effect1_dropShadow_429_295"/>
<feBlend mode="normal" in="SourceGraphic" in2="effect1_dropShadow_429_295" result="shape"/>
</filter>
</defs>
</svg>
