<svg width="114" height="148" viewBox="0 0 114 148" fill="none" xmlns="http://www.w3.org/2000/svg">
<path d="M148.107 74.7264L133.338 93.8697C131.598 96.1253 130.768 98.6747 130.845 101.521L131.511 125.665C132.045 145.035 123.16 151.475 104.853 144.982L82.0332 136.889C79.3449 135.935 76.6566 135.935 73.9683 136.889L51.1487 144.982C32.8417 151.475 23.9551 145.036 24.4901 125.665L25.1559 101.521C25.2339 98.676 24.4043 96.1253 22.6631 93.8697L7.89395 74.7264C-3.95443 59.3682 -0.560681 48.9493 18.0765 43.4711L41.3069 36.6412C44.0441 35.8362 46.2186 34.2605 47.8315 31.9127L61.5228 11.988C72.5072 -3.996 83.4903 -3.996 94.4747 11.988L108.166 31.9127C109.779 34.2605 111.955 35.8362 114.691 36.6412L137.921 43.4711C156.562 48.9493 159.956 59.3682 148.107 74.7264Z" fill="#FD8730"/>
</svg>
