<svg width="151" height="198" viewBox="0 0 151 198" fill="none" xmlns="http://www.w3.org/2000/svg">
<path d="M203.483 92.6085L185.548 72.166L188.055 45.0701C188.537 40.2488 185.258 35.8132 180.63 34.7525L154.016 28.6776L140.131 5.24593C137.624 1.09958 132.513 -0.636097 128.077 1.29244L103.006 12.1886L78.0319 1.48529C73.5963 -0.443244 68.3893 1.29244 65.9786 5.43878L51.9967 28.774L25.4794 34.7525C20.7545 35.8132 17.476 40.1524 17.9581 45.0701L20.4652 72.0696L2.52987 92.6085C-0.652209 96.2727 -0.652209 101.673 2.52987 105.337L20.4652 125.779L17.9581 152.972C17.476 157.793 20.7545 162.229 25.383 163.289L51.9967 169.364L65.8822 192.699C68.3893 196.846 73.4999 198.581 78.0319 196.653L103.006 185.757L127.981 196.46C132.417 198.389 137.624 196.653 140.034 192.506L153.92 169.075L180.533 163C185.258 161.939 188.44 157.504 187.958 152.682L185.451 125.586L203.387 105.144C206.665 101.673 206.665 96.2727 203.483 92.6085Z" fill="#FCAA9D"/>
</svg>
