<svg width="35" height="12" viewBox="0 0 35 12" fill="none" xmlns="http://www.w3.org/2000/svg">
<path d="M17.5706 1.03655L15.3239 11.5366H12.6073L14.854 1.03655H17.5706ZM29.0001 7.8156L30.4313 3.87387L31.2538 7.8156H29.0001ZM32.0331 11.5366H34.5437L32.353 1.03655H30.033C29.5114 1.03655 29.0708 1.33916 28.8768 1.80558L24.8006 11.5366H27.6517L28.219 9.96924H31.7047L32.0331 11.5366ZM24.9403 8.11045C24.9532 5.3352 21.108 5.18347 21.1348 3.94801C21.1434 3.56867 21.502 3.16777 22.2866 3.06517C22.6763 3.01517 23.7479 2.97637 24.9661 3.53504L25.442 1.30726C24.7903 1.07189 23.9471 0.842563 22.9013 0.842563C20.2174 0.842563 18.3259 2.27028 18.3112 4.31615C18.294 5.82663 19.6596 6.67067 20.6908 7.17416C21.7477 7.688 22.1021 8.01734 22.0995 8.47945C22.0917 9.18296 21.2537 9.49419 20.4735 9.50454C19.1079 9.52782 18.3138 9.13726 17.6827 8.84414L17.1896 11.1443C17.8241 11.4357 18.9958 11.6866 20.2114 11.7021C23.0651 11.7021 24.9325 10.2908 24.9403 8.11045ZM13.6893 1.03655L9.28715 11.5366H6.41448L4.24877 3.15656C4.116 2.63927 4.00134 2.45219 3.60216 2.2332C2.95038 1.878 1.87184 1.54607 0.921753 1.33916L0.987276 1.03655H5.60924C6.19895 1.03655 6.7283 1.4271 6.8628 2.10733L8.00687 8.18459L10.833 1.03655H13.6893Z" fill="#10357E"/>
</svg>
